{"tracks":[[{"time":0,"duration":119.79166666666667,"noteNumber":42,"velocity":31,"programNumber":1},{"time":119.79166666666667,"duration":125.00000000000001,"noteNumber":42,"velocity":84,"programNumber":1},{"time":244.79166666666669,"duration":62.5,"noteNumber":38,"velocity":51,"programNumber":1},{"time":244.79166666666669,"duration":125,"noteNumber":42,"velocity":66,"programNumber":1},{"time":369.7916666666667,"duration":114.58333333333331,"noteNumber":36,"velocity":7,"programNumber":1},{"time":369.7916666666667,"duration":125,"noteNumber":42,"velocity":77,"programNumber":1},{"time":494.7916666666667,"duration":125.00000000000006,"noteNumber":42,"velocity":70,"programNumber":1},{"time":619.7916666666667,"duration":125,"noteNumber":42,"velocity":57,"programNumber":1},{"time":744.7916666666667,"duration":109.375,"noteNumber":36,"velocity":7,"programNumber":1},{"time":744.7916666666667,"duration":125,"noteNumber":42,"velocity":83,"programNumber":1},{"time":869.7916666666667,"duration":67.70833333333337,"noteNumber":38,"velocity":36,"programNumber":1},{"time":869.7916666666667,"duration":125,"noteNumber":42,"velocity":67,"programNumber":1},{"time":994.7916666666667,"duration":62.5,"noteNumber":38,"velocity":83,"programNumber":1},{"time":994.7916666666667,"duration":125,"noteNumber":42,"velocity":56,"programNumber":1},{"time":1119.7916666666667,"duration":125,"noteNumber":42,"velocity":70,"programNumber":1},{"time":1244.7916666666667,"duration":125,"noteNumber":42,"velocity":65,"programNumber":1},{"time":1369.7916666666667,"duration":125,"noteNumber":42,"velocity":78,"programNumber":1},{"time":1494.7916666666667,"duration":125,"noteNumber":42,"velocity":70,"programNumber":1},{"time":1619.7916666666667,"duration":62.5,"noteNumber":38,"velocity":82,"programNumber":1},{"time":1619.7916666666667,"duration":125,"noteNumber":42,"velocity":58,"programNumber":1},{"time":1744.7916666666667,"duration":109.375,"noteNumber":36,"velocity":6,"programNumber":1},{"time":1744.7916666666667,"duration":125,"noteNumber":42,"velocity":72,"programNumber":1},{"time":1869.7916666666667,"duration":125,"noteNumber":42,"velocity":72,"programNumber":1},{"time":1994.7916666666667,"duration":125.00000000000023,"noteNumber":42,"velocity":57,"programNumber":1},{"time":2119.791666666667,"duration":125,"noteNumber":42,"velocity":83,"programNumber":1},{"time":2244.791666666667,"duration":62.5,"noteNumber":38,"velocity":53,"programNumber":1},{"time":2244.791666666667,"duration":125,"noteNumber":42,"velocity":66,"programNumber":1},{"time":2369.791666666667,"duration":125,"noteNumber":42,"velocity":75,"programNumber":1},{"time":2494.791666666667,"duration":125,"noteNumber":42,"velocity":69,"programNumber":1},{"time":2619.791666666667,"duration":125,"noteNumber":42,"velocity":55,"programNumber":1},{"time":2744.791666666667,"duration":119.79166666666652,"noteNumber":36,"velocity":8,"programNumber":1},{"time":2744.791666666667,"duration":125,"noteNumber":42,"velocity":72,"programNumber":1},{"time":2869.791666666667,"duration":67.70833333333348,"noteNumber":38,"velocity":36,"programNumber":1},{"time":2869.791666666667,"duration":125,"noteNumber":42,"velocity":65,"programNumber":1},{"time":2994.791666666667,"duration":62.5,"noteNumber":38,"velocity":82,"programNumber":1},{"time":2994.791666666667,"duration":125,"noteNumber":42,"velocity":52,"programNumber":1},{"time":3119.791666666667,"duration":114.58333333333348,"noteNumber":36,"velocity":7,"programNumber":1},{"time":3119.791666666667,"duration":125,"noteNumber":42,"velocity":82,"programNumber":1},{"time":3244.791666666667,"duration":125,"noteNumber":42,"velocity":69,"programNumber":1},{"time":3369.791666666667,"duration":114.58333333333348,"noteNumber":36,"velocity":6,"programNumber":1},{"time":3369.791666666667,"duration":125,"noteNumber":42,"velocity":81,"programNumber":1},{"time":3494.791666666667,"duration":62.5,"noteNumber":38,"velocity":43,"programNumber":1},{"time":3494.791666666667,"duration":125,"noteNumber":42,"velocity":72,"programNumber":1},{"time":3619.791666666667,"duration":62.5,"noteNumber":38,"velocity":92,"programNumber":1},{"time":3619.791666666667,"duration":125,"noteNumber":42,"velocity":57,"programNumber":1},{"time":3744.791666666667,"duration":114.58333333333348,"noteNumber":36,"velocity":8,"programNumber":1},{"time":3744.791666666667,"duration":125,"noteNumber":42,"velocity":80,"programNumber":1},{"time":3869.791666666667,"duration":125,"noteNumber":42,"velocity":67,"programNumber":1},{"time":3994.791666666667,"duration":125,"noteNumber":42,"velocity":56,"programNumber":1},{"time":4119.791666666667,"duration":125,"noteNumber":42,"velocity":84,"programNumber":1},{"time":4244.791666666667,"duration":62.5,"noteNumber":38,"velocity":51,"programNumber":1},{"time":4244.791666666667,"duration":125,"noteNumber":42,"velocity":71,"programNumber":1},{"time":4369.791666666667,"duration":125,"noteNumber":42,"velocity":88,"programNumber":1},{"time":4494.791666666667,"duration":125,"noteNumber":42,"velocity":75,"programNumber":1},{"time":4619.791666666667,"duration":125,"noteNumber":42,"velocity":58,"programNumber":1},{"time":4744.791666666667,"duration":125,"noteNumber":42,"velocity":72,"programNumber":1},{"time":4869.791666666667,"duration":125,"noteNumber":42,"velocity":68,"programNumber":1},{"time":4994.791666666667,"duration":125,"noteNumber":42,"velocity":59,"programNumber":1},{"time":5119.791666666667,"duration":119.79166666666697,"noteNumber":36,"velocity":7,"programNumber":1},{"time":5119.791666666667,"duration":125,"noteNumber":42,"velocity":79,"programNumber":1},{"time":5244.791666666667,"duration":62.5,"noteNumber":38,"velocity":58,"programNumber":1},{"time":5244.791666666667,"duration":125,"noteNumber":42,"velocity":67,"programNumber":1},{"time":5369.791666666667,"duration":125,"noteNumber":42,"velocity":80,"programNumber":1},{"time":5494.791666666667,"duration":125,"noteNumber":42,"velocity":67,"programNumber":1},{"time":5619.791666666667,"duration":125,"noteNumber":42,"velocity":55,"programNumber":1},{"time":5744.791666666667,"duration":114.58333333333303,"noteNumber":36,"velocity":10,"programNumber":1},{"time":5744.791666666667,"duration":125,"noteNumber":42,"velocity":74,"programNumber":1},{"time":5869.791666666667,"duration":62.5,"noteNumber":38,"velocity":48,"programNumber":1},{"time":5869.791666666667,"duration":125,"noteNumber":42,"velocity":69,"programNumber":1},{"time":5994.791666666667,"duration":62.5,"noteNumber":38,"velocity":90,"programNumber":1},{"time":5994.791666666667,"duration":125,"noteNumber":42,"velocity":56,"programNumber":1},{"time":6119.791666666667,"duration":125,"noteNumber":42,"velocity":84,"programNumber":1},{"time":6244.791666666667,"duration":62.5,"noteNumber":38,"velocity":53,"programNumber":1},{"time":6244.791666666667,"duration":125,"noteNumber":42,"velocity":64,"programNumber":1},{"time":6369.791666666667,"duration":114.58333333333303,"noteNumber":36,"velocity":8,"programNumber":1},{"time":6369.791666666667,"duration":125,"noteNumber":42,"velocity":80,"programNumber":1},{"time":6494.791666666667,"duration":125,"noteNumber":42,"velocity":73,"programNumber":1},{"time":6619.791666666667,"duration":125,"noteNumber":42,"velocity":57,"programNumber":1},{"time":6744.791666666667,"duration":114.58333333333303,"noteNumber":36,"velocity":7,"programNumber":1},{"time":6744.791666666667,"duration":125,"noteNumber":42,"velocity":83,"programNumber":1},{"time":6869.791666666667,"duration":67.70833333333303,"noteNumber":38,"velocity":37,"programNumber":1},{"time":6869.791666666667,"duration":125,"noteNumber":42,"velocity":69,"programNumber":1},{"time":6994.791666666667,"duration":62.5,"noteNumber":38,"velocity":83,"programNumber":1},{"time":6994.791666666667,"duration":125,"noteNumber":42,"velocity":55,"programNumber":1},{"time":7119.791666666667,"duration":114.58333333333303,"noteNumber":36,"velocity":8,"programNumber":1},{"time":7119.791666666667,"duration":125,"noteNumber":42,"velocity":73,"programNumber":1},{"time":7244.791666666667,"duration":125,"noteNumber":42,"velocity":68,"programNumber":1},{"time":7369.791666666667,"duration":98.95833333333303,"noteNumber":36,"velocity":6,"programNumber":1},{"time":7369.791666666667,"duration":125,"noteNumber":42,"velocity":86,"programNumber":1},{"time":7494.791666666667,"duration":62.5,"noteNumber":38,"velocity":44,"programNumber":1},{"time":7494.791666666667,"duration":125,"noteNumber":42,"velocity":70,"programNumber":1},{"time":7619.791666666667,"duration":62.5,"noteNumber":38,"velocity":88,"programNumber":1},{"time":7619.791666666667,"duration":125,"noteNumber":42,"velocity":58,"programNumber":1},{"time":7744.791666666667,"duration":125,"noteNumber":42,"velocity":72,"programNumber":1},{"time":7869.791666666667,"duration":125,"noteNumber":42,"velocity":65,"programNumber":1},{"time":7994.791666666667,"duration":125,"noteNumber":42,"velocity":59,"programNumber":1},{"time":8119.791666666667,"duration":114.58333333333303,"noteNumber":36,"velocity":6,"programNumber":1},{"time":8119.791666666667,"duration":124.99999999999909,"noteNumber":42,"velocity":83,"programNumber":1},{"time":8244.791666666666,"duration":62.5,"noteNumber":38,"velocity":51,"programNumber":1},{"time":8244.791666666666,"duration":125,"noteNumber":42,"velocity":71,"programNumber":1},{"time":8369.791666666666,"duration":125,"noteNumber":42,"velocity":72,"programNumber":1},{"time":8494.791666666666,"duration":125,"noteNumber":42,"velocity":75,"programNumber":1},{"time":8619.791666666666,"duration":125,"noteNumber":42,"velocity":55,"programNumber":1},{"time":8744.791666666666,"duration":119.79166666666606,"noteNumber":36,"velocity":6,"programNumber":1},{"time":8744.791666666666,"duration":125,"noteNumber":42,"velocity":77,"programNumber":1},{"time":8869.791666666666,"duration":67.70833333333394,"noteNumber":38,"velocity":35,"programNumber":1},{"time":8869.791666666666,"duration":125,"noteNumber":42,"velocity":68,"programNumber":1},{"time":8994.791666666666,"duration":125,"noteNumber":42,"velocity":58,"programNumber":1},{"time":8994.791666666666,"duration":166.66666666666606,"noteNumber":38,"velocity":79,"programNumber":1},{"time":9119.791666666666,"duration":119.79166666666606,"noteNumber":36,"velocity":9,"programNumber":1},{"time":9119.791666666666,"duration":125,"noteNumber":42,"velocity":79,"programNumber":1},{"time":9244.791666666666,"duration":125,"noteNumber":42,"velocity":67,"programNumber":1},{"time":9369.791666666666,"duration":109.375,"noteNumber":36,"velocity":6,"programNumber":1},{"time":9369.791666666666,"duration":125,"noteNumber":42,"velocity":73,"programNumber":1},{"time":9494.791666666666,"duration":125,"noteNumber":42,"velocity":68,"programNumber":1},{"time":9619.791666666666,"duration":62.5,"noteNumber":38,"velocity":90,"programNumber":1},{"time":9619.791666666666,"duration":125,"noteNumber":42,"velocity":58,"programNumber":1},{"time":9744.791666666666,"duration":114.58333333333394,"noteNumber":36,"velocity":9,"programNumber":1},{"time":9744.791666666666,"duration":125,"noteNumber":42,"velocity":81,"programNumber":1},{"time":9869.791666666666,"duration":125,"noteNumber":42,"velocity":66,"programNumber":1},{"time":9994.791666666666,"duration":125,"noteNumber":42,"velocity":56,"programNumber":1},{"time":10119.791666666666,"duration":125,"noteNumber":42,"velocity":81,"programNumber":1},{"time":10244.791666666666,"duration":62.5,"noteNumber":38,"velocity":53,"programNumber":1},{"time":10244.791666666666,"duration":125,"noteNumber":42,"velocity":61,"programNumber":1},{"time":10369.791666666666,"duration":114.58333333333394,"noteNumber":36,"velocity":6,"programNumber":1},{"time":10369.791666666666,"duration":125,"noteNumber":42,"velocity":81,"programNumber":1},{"time":10494.791666666666,"duration":125,"noteNumber":42,"velocity":68,"programNumber":1},{"time":10619.791666666666,"duration":125,"noteNumber":42,"velocity":58,"programNumber":1},{"time":10744.791666666666,"duration":125,"noteNumber":42,"velocity":68,"programNumber":1},{"time":10869.791666666666,"duration":67.70833333333394,"noteNumber":38,"velocity":37,"programNumber":1},{"time":10869.791666666666,"duration":125,"noteNumber":42,"velocity":73,"programNumber":1},{"time":10994.791666666666,"duration":62.5,"noteNumber":38,"velocity":81,"programNumber":1},{"time":10994.791666666666,"duration":125,"noteNumber":42,"velocity":55,"programNumber":1},{"time":11119.791666666666,"duration":119.79166666666606,"noteNumber":36,"velocity":6,"programNumber":1},{"time":11119.791666666666,"duration":125,"noteNumber":42,"velocity":74,"programNumber":1},{"time":11244.791666666666,"duration":93.75,"noteNumber":42,"velocity":70,"programNumber":1},{"time":11369.791666666666,"duration":125,"noteNumber":42,"velocity":42,"programNumber":1},{"time":11494.791666666666,"duration":125,"noteNumber":42,"velocity":68,"programNumber":1},{"time":11619.791666666666,"duration":62.5,"noteNumber":38,"velocity":77,"programNumber":1},{"time":11619.791666666666,"duration":125,"noteNumber":42,"velocity":55,"programNumber":1},{"time":11744.791666666666,"duration":114.58333333333394,"noteNumber":36,"velocity":8,"programNumber":1},{"time":11744.791666666666,"duration":125,"noteNumber":42,"velocity":71,"programNumber":1},{"time":11869.791666666666,"duration":125,"noteNumber":42,"velocity":66,"programNumber":1},{"time":11994.791666666666,"duration":125,"noteNumber":42,"velocity":55,"programNumber":1},{"time":12119.791666666666,"duration":125,"noteNumber":42,"velocity":81,"programNumber":1},{"time":12244.791666666666,"duration":67.70833333333394,"noteNumber":38,"velocity":44,"programNumber":1},{"time":12244.791666666666,"duration":125,"noteNumber":42,"velocity":66,"programNumber":1},{"time":12369.791666666666,"duration":109.375,"noteNumber":36,"velocity":7,"programNumber":1},{"time":12369.791666666666,"duration":125,"noteNumber":42,"velocity":76,"programNumber":1},{"time":12494.791666666666,"duration":125,"noteNumber":42,"velocity":67,"programNumber":1},{"time":12619.791666666666,"duration":125,"noteNumber":42,"velocity":51,"programNumber":1},{"time":12744.791666666666,"duration":114.58333333333394,"noteNumber":36,"velocity":10,"programNumber":1},{"time":12744.791666666666,"duration":125,"noteNumber":42,"velocity":76,"programNumber":1},{"time":12869.791666666666,"duration":62.5,"noteNumber":38,"velocity":50,"programNumber":1},{"time":12869.791666666666,"duration":125,"noteNumber":42,"velocity":69,"programNumber":1},{"time":12994.791666666666,"duration":125,"noteNumber":42,"velocity":51,"programNumber":1},{"time":13119.791666666666,"duration":125,"noteNumber":42,"velocity":66,"programNumber":1},{"time":13244.791666666666,"duration":125,"noteNumber":42,"velocity":63,"programNumber":1},{"time":13369.791666666666,"duration":98.95833333333394,"noteNumber":36,"velocity":6,"programNumber":1},{"time":13369.791666666666,"duration":125,"noteNumber":42,"velocity":82,"programNumber":1},{"time":13494.791666666666,"duration":62.5,"noteNumber":38,"velocity":34,"programNumber":1},{"time":13494.791666666666,"duration":125,"noteNumber":42,"velocity":66,"programNumber":1},{"time":13619.791666666666,"duration":62.5,"noteNumber":38,"velocity":77,"programNumber":1},{"time":13619.791666666666,"duration":125,"noteNumber":42,"velocity":56,"programNumber":1},{"time":13744.791666666666,"duration":125,"noteNumber":42,"velocity":69,"programNumber":1},{"time":13869.791666666666,"duration":125,"noteNumber":42,"velocity":67,"programNumber":1},{"time":13994.791666666666,"duration":125,"noteNumber":42,"velocity":55,"programNumber":1},{"time":14119.791666666666,"duration":125,"noteNumber":42,"velocity":81,"programNumber":1},{"time":14244.791666666666,"duration":62.5,"noteNumber":38,"velocity":46,"programNumber":1},{"time":14244.791666666666,"duration":125,"noteNumber":42,"velocity":64,"programNumber":1},{"time":14369.791666666666,"duration":125,"noteNumber":42,"velocity":71,"programNumber":1},{"time":14494.791666666666,"duration":125,"noteNumber":42,"velocity":66,"programNumber":1},{"time":14619.791666666666,"duration":125,"noteNumber":42,"velocity":55,"programNumber":1},{"time":14744.791666666666,"duration":114.58333333333394,"noteNumber":36,"velocity":7,"programNumber":1},{"time":14744.791666666666,"duration":125,"noteNumber":42,"velocity":73,"programNumber":1},{"time":14869.791666666666,"duration":62.5,"noteNumber":38,"velocity":49,"programNumber":1},{"time":14869.791666666666,"duration":125,"noteNumber":42,"velocity":67,"programNumber":1},{"time":14994.791666666666,"duration":125,"noteNumber":42,"velocity":61,"programNumber":1},{"time":15119.791666666666,"duration":119.79166666666606,"noteNumber":36,"velocity":7,"programNumber":1},{"time":15119.791666666666,"duration":125,"noteNumber":42,"velocity":77,"programNumber":1},{"time":15244.791666666666,"duration":125,"noteNumber":42,"velocity":64,"programNumber":1},{"time":15369.791666666666,"duration":114.58333333333394,"noteNumber":36,"velocity":6,"programNumber":1},{"time":15369.791666666666,"duration":125,"noteNumber":42,"velocity":85,"programNumber":1},{"time":15494.791666666666,"duration":62.5,"noteNumber":38,"velocity":34,"programNumber":1},{"time":15494.791666666666,"duration":125,"noteNumber":42,"velocity":74,"programNumber":1},{"time":15619.791666666666,"duration":62.5,"noteNumber":38,"velocity":84,"programNumber":1},{"time":15619.791666666666,"duration":125,"noteNumber":42,"velocity":57,"programNumber":1},{"time":15744.791666666666,"duration":114.58333333333394,"noteNumber":36,"velocity":8,"programNumber":1},{"time":15744.791666666666,"duration":125,"noteNumber":42,"velocity":81,"programNumber":1},{"time":15869.791666666666,"duration":125,"noteNumber":42,"velocity":66,"programNumber":1},{"time":15994.791666666666,"duration":125,"noteNumber":42,"velocity":57,"programNumber":1},{"time":16119.791666666666,"duration":125,"noteNumber":42,"velocity":82,"programNumber":1},{"time":16244.791666666666,"duration":62.5,"noteNumber":38,"velocity":46,"programNumber":1},{"time":16244.791666666666,"duration":125,"noteNumber":42,"velocity":68,"programNumber":1},{"time":16369.791666666666,"duration":109.37499999999818,"noteNumber":36,"velocity":6,"programNumber":1},{"time":16369.791666666666,"duration":124.99999999999818,"noteNumber":42,"velocity":83,"programNumber":1},{"time":16494.791666666664,"duration":125,"noteNumber":42,"velocity":71,"programNumber":1},{"time":16619.791666666664,"duration":125,"noteNumber":42,"velocity":57,"programNumber":1},{"time":16744.791666666664,"duration":125,"noteNumber":42,"velocity":74,"programNumber":1},{"time":16869.791666666664,"duration":62.5,"noteNumber":38,"velocity":53,"programNumber":1},{"time":16869.791666666664,"duration":125,"noteNumber":42,"velocity":67,"programNumber":1},{"time":16994.791666666664,"duration":62.5,"noteNumber":38,"velocity":92,"programNumber":1},{"time":16994.791666666664,"duration":125,"noteNumber":42,"velocity":57,"programNumber":1},{"time":17119.791666666664,"duration":114.58333333333212,"noteNumber":36,"velocity":8,"programNumber":1},{"time":17119.791666666664,"duration":125,"noteNumber":42,"velocity":75,"programNumber":1},{"time":17244.791666666664,"duration":125,"noteNumber":42,"velocity":68,"programNumber":1},{"time":17369.791666666664,"duration":125,"noteNumber":42,"velocity":80,"programNumber":1},{"time":17494.791666666664,"duration":62.5,"noteNumber":38,"velocity":36,"programNumber":1},{"time":17494.791666666664,"duration":125,"noteNumber":42,"velocity":75,"programNumber":1},{"time":17619.791666666664,"duration":62.5,"noteNumber":38,"velocity":78,"programNumber":1},{"time":17619.791666666664,"duration":125,"noteNumber":42,"velocity":55,"programNumber":1},{"time":17744.791666666664,"duration":119.79166666666788,"noteNumber":36,"velocity":6,"programNumber":1},{"time":17744.791666666664,"duration":125,"noteNumber":42,"velocity":76,"programNumber":1},{"time":17869.791666666664,"duration":125,"noteNumber":42,"velocity":72,"programNumber":1},{"time":17994.791666666664,"duration":125,"noteNumber":42,"velocity":57,"programNumber":1},{"time":18119.791666666664,"duration":125,"noteNumber":42,"velocity":84,"programNumber":1},{"time":18244.791666666664,"duration":67.70833333333212,"noteNumber":38,"velocity":46,"programNumber":1},{"time":18244.791666666664,"duration":125,"noteNumber":42,"velocity":67,"programNumber":1},{"time":18369.791666666664,"duration":93.75,"noteNumber":36,"velocity":6,"programNumber":1},{"time":18369.791666666664,"duration":125,"noteNumber":42,"velocity":74,"programNumber":1},{"time":18494.791666666664,"duration":125,"noteNumber":42,"velocity":72,"programNumber":1},{"time":18619.791666666664,"duration":125,"noteNumber":42,"velocity":57,"programNumber":1},{"time":18744.791666666664,"duration":119.79166666666788,"noteNumber":36,"velocity":6,"programNumber":1},{"time":18744.791666666664,"duration":125,"noteNumber":42,"velocity":78,"programNumber":1},{"time":18869.791666666664,"duration":62.5,"noteNumber":38,"velocity":52,"programNumber":1},{"time":18869.791666666664,"duration":125,"noteNumber":42,"velocity":66,"programNumber":1},{"time":18994.791666666664,"duration":125,"noteNumber":42,"velocity":58,"programNumber":1},{"time":19119.791666666664,"duration":125,"noteNumber":42,"velocity":84,"programNumber":1},{"time":19244.791666666664,"duration":62.5,"noteNumber":38,"velocity":55,"programNumber":1},{"time":19244.791666666664,"duration":125,"noteNumber":42,"velocity":66,"programNumber":1},{"time":19369.791666666664,"duration":119.79166666666788,"noteNumber":36,"velocity":7,"programNumber":1},{"time":19369.791666666664,"duration":125,"noteNumber":42,"velocity":86,"programNumber":1},{"time":19494.791666666664,"duration":125,"noteNumber":42,"velocity":69,"programNumber":1},{"time":19619.791666666664,"duration":125,"noteNumber":42,"velocity":56,"programNumber":1},{"time":19744.791666666664,"duration":125,"noteNumber":42,"velocity":75,"programNumber":1},{"time":19869.791666666664,"duration":67.70833333333212,"noteNumber":38,"velocity":43,"programNumber":1},{"time":19869.791666666664,"duration":125,"noteNumber":42,"velocity":72,"programNumber":1},{"time":19994.791666666664,"duration":62.5,"noteNumber":38,"velocity":88,"programNumber":1},{"time":19994.791666666664,"duration":125,"noteNumber":42,"velocity":60,"programNumber":1},{"time":20119.791666666664,"duration":125,"noteNumber":42,"velocity":82,"programNumber":1},{"time":20244.791666666664,"duration":62.5,"noteNumber":38,"velocity":47,"programNumber":1},{"time":20244.791666666664,"duration":125,"noteNumber":42,"velocity":69,"programNumber":1},{"time":20369.791666666664,"duration":125,"noteNumber":42,"velocity":74,"programNumber":1},{"time":20494.791666666664,"duration":125,"noteNumber":42,"velocity":70,"programNumber":1},{"time":20619.791666666664,"duration":125,"noteNumber":42,"velocity":57,"programNumber":1},{"time":20744.791666666664,"duration":109.375,"noteNumber":36,"velocity":6,"programNumber":1},{"time":20744.791666666664,"duration":125,"noteNumber":42,"velocity":76,"programNumber":1},{"time":20869.791666666664,"duration":62.5,"noteNumber":38,"velocity":52,"programNumber":1},{"time":20869.791666666664,"duration":125,"noteNumber":42,"velocity":66,"programNumber":1},{"time":20994.791666666664,"duration":125,"noteNumber":42,"velocity":55,"programNumber":1},{"time":21119.791666666664,"duration":119.79166666666788,"noteNumber":36,"velocity":8,"programNumber":1},{"time":21119.791666666664,"duration":125,"noteNumber":42,"velocity":74,"programNumber":1},{"time":21244.791666666664,"duration":125,"noteNumber":42,"velocity":69,"programNumber":1},{"time":21369.791666666664,"duration":125,"noteNumber":42,"velocity":78,"programNumber":1},{"time":21494.791666666664,"duration":62.5,"noteNumber":38,"velocity":35,"programNumber":1},{"time":21494.791666666664,"duration":125,"noteNumber":42,"velocity":70,"programNumber":1},{"time":21619.791666666664,"duration":62.5,"noteNumber":38,"velocity":84,"programNumber":1},{"time":21619.791666666664,"duration":125,"noteNumber":42,"velocity":56,"programNumber":1},{"time":21744.791666666664,"duration":119.79166666666788,"noteNumber":36,"velocity":9,"programNumber":1},{"time":21744.791666666664,"duration":125,"noteNumber":42,"velocity":74,"programNumber":1},{"time":21869.791666666664,"duration":125,"noteNumber":42,"velocity":69,"programNumber":1},{"time":21994.791666666664,"duration":125,"noteNumber":42,"velocity":57,"programNumber":1},{"time":22119.791666666664,"duration":125,"noteNumber":42,"velocity":86,"programNumber":1},{"time":22244.791666666664,"duration":67.70833333333212,"noteNumber":38,"velocity":47,"programNumber":1},{"time":22244.791666666664,"duration":125,"noteNumber":42,"velocity":66,"programNumber":1},{"time":22369.791666666664,"duration":114.58333333333212,"noteNumber":36,"velocity":6,"programNumber":1},{"time":22369.791666666664,"duration":125,"noteNumber":42,"velocity":80,"programNumber":1},{"time":22494.791666666664,"duration":125,"noteNumber":42,"velocity":71,"programNumber":1},{"time":22619.791666666664,"duration":88.54166666666788,"noteNumber":42,"velocity":56,"programNumber":1},{"time":22744.791666666664,"duration":125,"noteNumber":42,"velocity":60,"programNumber":1},{"time":22869.791666666664,"duration":67.70833333333212,"noteNumber":38,"velocity":49,"programNumber":1},{"time":22869.791666666664,"duration":125,"noteNumber":42,"velocity":78,"programNumber":1},{"time":22994.791666666664,"duration":62.5,"noteNumber":38,"velocity":102,"programNumber":1},{"time":22994.791666666664,"duration":125,"noteNumber":42,"velocity":58,"programNumber":1},{"time":23119.791666666664,"duration":88.54166666666788,"noteNumber":36,"velocity":4,"programNumber":1},{"time":23119.791666666664,"duration":125,"noteNumber":42,"velocity":85,"programNumber":1},{"time":23244.791666666664,"duration":125,"noteNumber":42,"velocity":77,"programNumber":1},{"time":23369.791666666664,"duration":114.58333333333212,"noteNumber":36,"velocity":4,"programNumber":1},{"time":23369.791666666664,"duration":125,"noteNumber":42,"velocity":83,"programNumber":1},{"time":23494.791666666664,"duration":62.5,"noteNumber":38,"velocity":53,"programNumber":1},{"time":23494.791666666664,"duration":125,"noteNumber":42,"velocity":82,"programNumber":1},{"time":23619.791666666664,"duration":62.5,"noteNumber":38,"velocity":107,"programNumber":1},{"time":23619.791666666664,"duration":125,"noteNumber":42,"velocity":64,"programNumber":1},{"time":23744.791666666664,"duration":114.58333333333212,"noteNumber":36,"velocity":4,"programNumber":1},{"time":23744.791666666664,"duration":125,"noteNumber":42,"velocity":84,"programNumber":1},{"time":23869.791666666664,"duration":125,"noteNumber":42,"velocity":79,"programNumber":1},{"time":23994.791666666664,"duration":125,"noteNumber":42,"velocity":61,"programNumber":1},{"time":23994.791666666664,"duration":145.83333333333212,"noteNumber":38,"velocity":43,"programNumber":1},{"time":24119.791666666664,"duration":114.58333333333212,"noteNumber":36,"velocity":4,"programNumber":1},{"time":24119.791666666664,"duration":250,"noteNumber":42,"velocity":98,"programNumber":1},{"time":24369.791666666664,"duration":250,"noteNumber":42,"velocity":89,"programNumber":1},{"time":24619.791666666664,"duration":67.70833333333212,"noteNumber":38,"velocity":66,"programNumber":1},{"time":24619.791666666664,"duration":250,"noteNumber":42,"velocity":62,"programNumber":1},{"time":24869.791666666664,"duration":67.70833333333212,"noteNumber":38,"velocity":49,"programNumber":1},{"time":24869.791666666664,"duration":250,"noteNumber":42,"velocity":77,"programNumber":1},{"time":25119.791666666664,"duration":114.58333333333212,"noteNumber":36,"velocity":4,"programNumber":1},{"time":25119.791666666664,"duration":125,"noteNumber":42,"velocity":95,"programNumber":1},{"time":25244.791666666664,"duration":125,"noteNumber":42,"velocity":77,"programNumber":1},{"time":25369.791666666664,"duration":114.58333333333212,"noteNumber":36,"velocity":6,"programNumber":1},{"time":25369.791666666664,"duration":125,"noteNumber":42,"velocity":96,"programNumber":1},{"time":25494.791666666664,"duration":125,"noteNumber":42,"velocity":83,"programNumber":1},{"time":25619.791666666664,"duration":125,"noteNumber":42,"velocity":64,"programNumber":1},{"time":25619.791666666664,"duration":135.41666666666788,"noteNumber":38,"velocity":46,"programNumber":1},{"time":25744.791666666664,"duration":114.58333333333576,"noteNumber":36,"velocity":4,"programNumber":1},{"time":25744.791666666664,"duration":125.00000000000364,"noteNumber":42,"velocity":92,"programNumber":1},{"time":25869.791666666668,"duration":62.5,"noteNumber":38,"velocity":59,"programNumber":1},{"time":25869.791666666668,"duration":125,"noteNumber":42,"velocity":78,"programNumber":1},{"time":25994.791666666668,"duration":125,"noteNumber":42,"velocity":60,"programNumber":1},{"time":26119.791666666668,"duration":250,"noteNumber":42,"velocity":97,"programNumber":1},{"time":26369.791666666668,"duration":125,"noteNumber":36,"velocity":4,"programNumber":1},{"time":26369.791666666668,"duration":250,"noteNumber":42,"velocity":84,"programNumber":1},{"time":26619.791666666668,"duration":67.70833333333212,"noteNumber":38,"velocity":61,"programNumber":1},{"time":26619.791666666668,"duration":250,"noteNumber":42,"velocity":63,"programNumber":1},{"time":26869.791666666668,"duration":67.70833333333212,"noteNumber":38,"velocity":49,"programNumber":1},{"time":26869.791666666668,"duration":250,"noteNumber":42,"velocity":78,"programNumber":1},{"time":27119.791666666668,"duration":125,"noteNumber":42,"velocity":82,"programNumber":1},{"time":27119.791666666668,"duration":125,"noteNumber":36,"velocity":4,"programNumber":1},{"time":27244.791666666668,"duration":125,"noteNumber":42,"velocity":77,"programNumber":1},{"time":27369.791666666668,"duration":125,"noteNumber":42,"velocity":90,"programNumber":1},{"time":27494.791666666668,"duration":125,"noteNumber":42,"velocity":76,"programNumber":1},{"time":27619.791666666668,"duration":72.91666666666788,"noteNumber":38,"velocity":47,"programNumber":1},{"time":27619.791666666668,"duration":125,"noteNumber":42,"velocity":58,"programNumber":1},{"time":27744.791666666668,"duration":119.79166666666788,"noteNumber":36,"velocity":5,"programNumber":1},{"time":27744.791666666668,"duration":125,"noteNumber":42,"velocity":91,"programNumber":1},{"time":27869.791666666668,"duration":125,"noteNumber":42,"velocity":74,"programNumber":1},{"time":27994.791666666668,"duration":125,"noteNumber":42,"velocity":59,"programNumber":1},{"time":28119.791666666668,"duration":250,"noteNumber":42,"velocity":96,"programNumber":1},{"time":28369.791666666668,"duration":135.41666666666788,"noteNumber":36,"velocity":5,"programNumber":1},{"time":28369.791666666668,"duration":250,"noteNumber":42,"velocity":95,"programNumber":1},{"time":28619.791666666668,"duration":67.70833333333212,"noteNumber":38,"velocity":63,"programNumber":1},{"time":28619.791666666668,"duration":250,"noteNumber":42,"velocity":61,"programNumber":1},{"time":28869.791666666668,"duration":67.70833333333212,"noteNumber":38,"velocity":50,"programNumber":1},{"time":28869.791666666668,"duration":250,"noteNumber":42,"velocity":75,"programNumber":1},{"time":29119.791666666668,"duration":62.5,"noteNumber":38,"velocity":42,"programNumber":1},{"time":29119.791666666668,"duration":109.375,"noteNumber":36,"velocity":5,"programNumber":1},{"time":29119.791666666668,"duration":125,"noteNumber":42,"velocity":84,"programNumber":1},{"time":29244.791666666668,"duration":125,"noteNumber":42,"velocity":74,"programNumber":1},{"time":29369.791666666668,"duration":98.95833333333212,"noteNumber":36,"velocity":4,"programNumber":1},{"time":29369.791666666668,"duration":125,"noteNumber":42,"velocity":94,"programNumber":1},{"time":29494.791666666668,"duration":125,"noteNumber":42,"velocity":80,"programNumber":1},{"time":29619.791666666668,"duration":62.5,"noteNumber":38,"velocity":107,"programNumber":1},{"time":29619.791666666668,"duration":125,"noteNumber":42,"velocity":60,"programNumber":1},{"time":29744.791666666668,"duration":125,"noteNumber":42,"velocity":81,"programNumber":1},{"time":29869.791666666668,"duration":125,"noteNumber":42,"velocity":75,"programNumber":1},{"time":29994.791666666668,"duration":125,"noteNumber":42,"velocity":60,"programNumber":1},{"time":29994.791666666668,"duration":145.83333333333212,"noteNumber":38,"velocity":39,"programNumber":1},{"time":30119.791666666668,"duration":250,"noteNumber":42,"velocity":93,"programNumber":1},{"time":30369.791666666668,"duration":250,"noteNumber":42,"velocity":102,"programNumber":1},{"time":30619.791666666668,"duration":114.58333333333212,"noteNumber":38,"velocity":63,"programNumber":1},{"time":30619.791666666668,"duration":250,"noteNumber":42,"velocity":78,"programNumber":1},{"time":30869.791666666668,"duration":67.70833333333212,"noteNumber":38,"velocity":51,"programNumber":1},{"time":30869.791666666668,"duration":250,"noteNumber":42,"velocity":70,"programNumber":1},{"time":31119.791666666668,"duration":119.79166666666788,"noteNumber":36,"velocity":4,"programNumber":1},{"time":31119.791666666668,"duration":125,"noteNumber":42,"velocity":88,"programNumber":1},{"time":31244.791666666668,"duration":125,"noteNumber":42,"velocity":79,"programNumber":1},{"time":31369.791666666668,"duration":114.58333333333212,"noteNumber":36,"velocity":5,"programNumber":1},{"time":31369.791666666668,"duration":125,"noteNumber":42,"velocity":89,"programNumber":1},{"time":31494.791666666668,"duration":125,"noteNumber":42,"velocity":80,"programNumber":1},{"time":31619.791666666668,"duration":125,"noteNumber":42,"velocity":66,"programNumber":1},{"time":31619.791666666668,"duration":171.875,"noteNumber":38,"velocity":45,"programNumber":1},{"time":31744.791666666668,"duration":119.79166666666788,"noteNumber":36,"velocity":6,"programNumber":1},{"time":31744.791666666668,"duration":125,"noteNumber":42,"velocity":85,"programNumber":1},{"time":31869.791666666668,"duration":125,"noteNumber":42,"velocity":75,"programNumber":1},{"time":31994.791666666668,"duration":125,"noteNumber":42,"velocity":59,"programNumber":1},{"time":31994.791666666668,"duration":161.45833333333212,"noteNumber":38,"velocity":99,"programNumber":1},{"time":32119.791666666668,"duration":135.41666666666424,"noteNumber":42,"velocity":96,"programNumber":1},{"time":32255.208333333332,"duration":114.58333333333212,"noteNumber":42,"velocity":3,"programNumber":1},{"time":32369.791666666664,"duration":250,"noteNumber":42,"velocity":96,"programNumber":1},{"time":32619.791666666664,"duration":67.70833333333212,"noteNumber":38,"velocity":67,"programNumber":1},{"time":32619.791666666664,"duration":250,"noteNumber":42,"velocity":62,"programNumber":1},{"time":32869.791666666664,"duration":67.70833333333576,"noteNumber":38,"velocity":48,"programNumber":1},{"time":32869.791666666664,"duration":250,"noteNumber":42,"velocity":77,"programNumber":1},{"time":33119.791666666664,"duration":62.5,"noteNumber":38,"velocity":37,"programNumber":1},{"time":33119.791666666664,"duration":114.58333333333576,"noteNumber":36,"velocity":7,"programNumber":1},{"time":33119.791666666664,"duration":125,"noteNumber":42,"velocity":80,"programNumber":1},{"time":33244.791666666664,"duration":125,"noteNumber":42,"velocity":81,"programNumber":1},{"time":33369.791666666664,"duration":125,"noteNumber":42,"velocity":84,"programNumber":1},{"time":33494.791666666664,"duration":125,"noteNumber":42,"velocity":79,"programNumber":1},{"time":33619.791666666664,"duration":125,"noteNumber":42,"velocity":65,"programNumber":1},{"time":33744.791666666664,"duration":119.79166666666424,"noteNumber":36,"velocity":6,"programNumber":1},{"time":33744.791666666664,"duration":125,"noteNumber":42,"velocity":81,"programNumber":1},{"time":33869.791666666664,"duration":67.70833333333576,"noteNumber":38,"velocity":37,"programNumber":1},{"time":33869.791666666664,"duration":125,"noteNumber":42,"velocity":81,"programNumber":1},{"time":33994.791666666664,"duration":62.5,"noteNumber":38,"velocity":88,"programNumber":1},{"time":33994.791666666664,"duration":88.54166666666424,"noteNumber":42,"velocity":60,"programNumber":1},{"time":34119.791666666664,"duration":250,"noteNumber":42,"velocity":80,"programNumber":1},{"time":34369.791666666664,"duration":119.79166666666424,"noteNumber":36,"velocity":3,"programNumber":1},{"time":34369.791666666664,"duration":250,"noteNumber":42,"velocity":104,"programNumber":1},{"time":34619.791666666664,"duration":114.58333333333576,"noteNumber":38,"velocity":58,"programNumber":1},{"time":34619.791666666664,"duration":250,"noteNumber":42,"velocity":67,"programNumber":1},{"time":34869.791666666664,"duration":72.91666666666424,"noteNumber":38,"velocity":48,"programNumber":1},{"time":34869.791666666664,"duration":250,"noteNumber":42,"velocity":85,"programNumber":1},{"time":35119.791666666664,"duration":78.125,"noteNumber":36,"velocity":3,"programNumber":1},{"time":35119.791666666664,"duration":125,"noteNumber":42,"velocity":89,"programNumber":1},{"time":35244.791666666664,"duration":125,"noteNumber":42,"velocity":87,"programNumber":1},{"time":35369.791666666664,"duration":125,"noteNumber":42,"velocity":108,"programNumber":1},{"time":35494.791666666664,"duration":125,"noteNumber":42,"velocity":88,"programNumber":1},{"time":35619.791666666664,"duration":62.5,"noteNumber":38,"velocity":108,"programNumber":1},{"time":35619.791666666664,"duration":125,"noteNumber":42,"velocity":68,"programNumber":1},{"time":35744.791666666664,"duration":78.125,"noteNumber":36,"velocity":3,"programNumber":1},{"time":35744.791666666664,"duration":125,"noteNumber":42,"velocity":97,"programNumber":1},{"time":35869.791666666664,"duration":125,"noteNumber":42,"velocity":84,"programNumber":1},{"time":35994.791666666664,"duration":125,"noteNumber":42,"velocity":65,"programNumber":1},{"time":36119.791666666664,"duration":250,"noteNumber":42,"velocity":114,"programNumber":1},{"time":36369.791666666664,"duration":250,"noteNumber":42,"velocity":105,"programNumber":1},{"time":36619.791666666664,"duration":72.91666666666424,"noteNumber":38,"velocity":61,"programNumber":1},{"time":36619.791666666664,"duration":250,"noteNumber":42,"velocity":65,"programNumber":1},{"time":36869.791666666664,"duration":67.70833333333576,"noteNumber":38,"velocity":45,"programNumber":1},{"time":36869.791666666664,"duration":250,"noteNumber":42,"velocity":83,"programNumber":1},{"time":37119.791666666664,"duration":119.79166666666424,"noteNumber":36,"velocity":5,"programNumber":1},{"time":37119.791666666664,"duration":125,"noteNumber":42,"velocity":111,"programNumber":1},{"time":37244.791666666664,"duration":125,"noteNumber":42,"velocity":84,"programNumber":1},{"time":37369.791666666664,"duration":114.58333333333576,"noteNumber":36,"velocity":4,"programNumber":1},{"time":37369.791666666664,"duration":125,"noteNumber":42,"velocity":100,"programNumber":1},{"time":37494.791666666664,"duration":125,"noteNumber":42,"velocity":86,"programNumber":1},{"time":37619.791666666664,"duration":125,"noteNumber":42,"velocity":70,"programNumber":1},{"time":37619.791666666664,"duration":140.625,"noteNumber":38,"velocity":63,"programNumber":1},{"time":37744.791666666664,"duration":114.58333333333576,"noteNumber":36,"velocity":3,"programNumber":1},{"time":37744.791666666664,"duration":125,"noteNumber":42,"velocity":103,"programNumber":1},{"time":37869.791666666664,"duration":67.70833333333576,"noteNumber":38,"velocity":62,"programNumber":1},{"time":37869.791666666664,"duration":125,"noteNumber":42,"velocity":82,"programNumber":1},{"time":37994.791666666664,"duration":125,"noteNumber":42,"velocity":72,"programNumber":1},{"time":37994.791666666664,"duration":166.66666666666424,"noteNumber":38,"velocity":116,"programNumber":1},{"time":38119.791666666664,"duration":135.41666666666424,"noteNumber":42,"velocity":112,"programNumber":1},{"time":38255.20833333333,"duration":114.58333333333576,"noteNumber":42,"velocity":5,"programNumber":1},{"time":38369.791666666664,"duration":250,"noteNumber":42,"velocity":112,"programNumber":1},{"time":38619.791666666664,"duration":114.58333333333576,"noteNumber":38,"velocity":61,"programNumber":1},{"time":38619.791666666664,"duration":250,"noteNumber":42,"velocity":69,"programNumber":1},{"time":38869.791666666664,"duration":67.70833333333576,"noteNumber":38,"velocity":48,"programNumber":1},{"time":38869.791666666664,"duration":250,"noteNumber":42,"velocity":86,"programNumber":1},{"time":39119.791666666664,"duration":62.5,"noteNumber":38,"velocity":71,"programNumber":1},{"time":39119.791666666664,"duration":119.79166666666424,"noteNumber":36,"velocity":4,"programNumber":1},{"time":39119.791666666664,"duration":125,"noteNumber":42,"velocity":102,"programNumber":1},{"time":39244.791666666664,"duration":125,"noteNumber":42,"velocity":86,"programNumber":1},{"time":39369.791666666664,"duration":125,"noteNumber":42,"velocity":90,"programNumber":1},{"time":39494.791666666664,"duration":125,"noteNumber":42,"velocity":83,"programNumber":1},{"time":39619.791666666664,"duration":125,"noteNumber":42,"velocity":68,"programNumber":1},{"time":39744.791666666664,"duration":119.79166666666424,"noteNumber":36,"velocity":4,"programNumber":1},{"time":39744.791666666664,"duration":125,"noteNumber":42,"velocity":102,"programNumber":1},{"time":39869.791666666664,"duration":67.70833333333576,"noteNumber":38,"velocity":65,"programNumber":1},{"time":39869.791666666664,"duration":125,"noteNumber":42,"velocity":83,"programNumber":1},{"time":39994.791666666664,"duration":125,"noteNumber":42,"velocity":66,"programNumber":1},{"time":39994.791666666664,"duration":166.66666666666424,"noteNumber":38,"velocity":120,"programNumber":1},{"time":40119.791666666664,"duration":250,"noteNumber":42,"velocity":105,"programNumber":1},{"time":40369.791666666664,"duration":114.58333333333576,"noteNumber":36,"velocity":4,"programNumber":1},{"time":40369.791666666664,"duration":250,"noteNumber":42,"velocity":99,"programNumber":1},{"time":40619.791666666664,"duration":119.79166666666424,"noteNumber":38,"velocity":59,"programNumber":1},{"time":40619.791666666664,"duration":250,"noteNumber":42,"velocity":62,"programNumber":1},{"time":40869.791666666664,"duration":67.70833333333576,"noteNumber":38,"velocity":47,"programNumber":1},{"time":40869.791666666664,"duration":250,"noteNumber":42,"velocity":84,"programNumber":1},{"time":41119.791666666664,"duration":57.29166666666424,"noteNumber":38,"velocity":83,"programNumber":1},{"time":41119.791666666664,"duration":130.20833333332848,"noteNumber":36,"velocity":5,"programNumber":1},{"time":41119.791666666664,"duration":249.99999999999272,"noteNumber":42,"velocity":95,"programNumber":1},{"time":41369.79166666666,"duration":250,"noteNumber":42,"velocity":104,"programNumber":1},{"time":41619.79166666666,"duration":114.58333333333576,"noteNumber":38,"velocity":83,"programNumber":1},{"time":41619.79166666666,"duration":250,"noteNumber":42,"velocity":66,"programNumber":1},{"time":41869.79166666666,"duration":67.70833333333576,"noteNumber":38,"velocity":60,"programNumber":1},{"time":41869.79166666666,"duration":250,"noteNumber":42,"velocity":86,"programNumber":1},{"time":42119.79166666666,"duration":250,"noteNumber":42,"velocity":108,"programNumber":1},{"time":42369.79166666666,"duration":250,"noteNumber":42,"velocity":93,"programNumber":1},{"time":42619.79166666666,"duration":114.58333333333576,"noteNumber":38,"velocity":57,"programNumber":1},{"time":42619.79166666666,"duration":250,"noteNumber":42,"velocity":70,"programNumber":1},{"time":42869.79166666666,"duration":72.91666666666424,"noteNumber":38,"velocity":47,"programNumber":1},{"time":42869.79166666666,"duration":250,"noteNumber":42,"velocity":87,"programNumber":1},{"time":43119.79166666666,"duration":187.5,"noteNumber":36,"velocity":6,"programNumber":1},{"time":43119.79166666666,"duration":250,"noteNumber":42,"velocity":102,"programNumber":1},{"time":43369.79166666666,"duration":166.66666666666424,"noteNumber":36,"velocity":3,"programNumber":1},{"time":43369.79166666666,"duration":250,"noteNumber":42,"velocity":106,"programNumber":1},{"time":43619.79166666666,"duration":114.58333333333576,"noteNumber":38,"velocity":82,"programNumber":1},{"time":43619.79166666666,"duration":250,"noteNumber":42,"velocity":67,"programNumber":1},{"time":43869.79166666666,"duration":67.70833333333576,"noteNumber":38,"velocity":62,"programNumber":1},{"time":43869.79166666666,"duration":250,"noteNumber":42,"velocity":82,"programNumber":1},{"time":44119.79166666666,"duration":250,"noteNumber":42,"velocity":109,"programNumber":1},{"time":44369.79166666666,"duration":67.70833333333576,"noteNumber":36,"velocity":3,"programNumber":1},{"time":44369.79166666666,"duration":250,"noteNumber":42,"velocity":105,"programNumber":1},{"time":44619.79166666666,"duration":119.79166666666424,"noteNumber":38,"velocity":60,"programNumber":1},{"time":44619.79166666666,"duration":250,"noteNumber":42,"velocity":69,"programNumber":1},{"time":44869.79166666666,"duration":67.70833333333576,"noteNumber":38,"velocity":49,"programNumber":1},{"time":44869.79166666666,"duration":250,"noteNumber":42,"velocity":91,"programNumber":1},{"time":45119.79166666666,"duration":171.875,"noteNumber":36,"velocity":4,"programNumber":1},{"time":45119.79166666666,"duration":250,"noteNumber":42,"velocity":100,"programNumber":1},{"time":45369.79166666666,"duration":72.91666666666424,"noteNumber":36,"velocity":3,"programNumber":1},{"time":45369.79166666666,"duration":78.125,"noteNumber":42,"velocity":95,"programNumber":1},{"time":45619.79166666666,"duration":67.70833333333576,"noteNumber":38,"velocity":74,"programNumber":1},{"time":45619.79166666666,"duration":250,"noteNumber":42,"velocity":80,"programNumber":1},{"time":45869.79166666666,"duration":67.70833333333576,"noteNumber":38,"velocity":61,"programNumber":1},{"time":45869.79166666666,"duration":250,"noteNumber":42,"velocity":96,"programNumber":1},{"time":46119.79166666666,"duration":250,"noteNumber":42,"velocity":118,"programNumber":1},{"time":46369.79166666666,"duration":151.04166666666424,"noteNumber":36,"velocity":3,"programNumber":1},{"time":46369.79166666666,"duration":250,"noteNumber":42,"velocity":117,"programNumber":1},{"time":46619.79166666666,"duration":67.70833333333576,"noteNumber":38,"velocity":95,"programNumber":1},{"time":46619.79166666666,"duration":250,"noteNumber":42,"velocity":76,"programNumber":1},{"time":46869.79166666666,"duration":62.5,"noteNumber":38,"velocity":70,"programNumber":1},{"time":46869.79166666666,"duration":250,"noteNumber":42,"velocity":95,"programNumber":1},{"time":47119.79166666666,"duration":62.5,"noteNumber":38,"velocity":77,"programNumber":1},{"time":47119.79166666666,"duration":145.83333333333576,"noteNumber":36,"velocity":3,"programNumber":1},{"time":47119.79166666666,"duration":250,"noteNumber":42,"velocity":103,"programNumber":1},{"time":47369.79166666666,"duration":104.16666666666424,"noteNumber":36,"velocity":3,"programNumber":1},{"time":47369.79166666666,"duration":250,"noteNumber":42,"velocity":118,"programNumber":1},{"time":47619.79166666666,"duration":67.70833333333576,"noteNumber":38,"velocity":76,"programNumber":1},{"time":47619.79166666666,"duration":250,"noteNumber":42,"velocity":78,"programNumber":1},{"time":47869.79166666666,"duration":67.70833333333576,"noteNumber":38,"velocity":58,"programNumber":1},{"time":47869.79166666666,"duration":250,"noteNumber":42,"velocity":100,"programNumber":1},{"time":48119.79166666666,"duration":250,"noteNumber":42,"velocity":117,"programNumber":1},{"time":48369.79166666666,"duration":93.75,"noteNumber":36,"velocity":3,"programNumber":1},{"time":48369.79166666666,"duration":250,"noteNumber":42,"velocity":110,"programNumber":1},{"time":48619.79166666666,"duration":67.70833333333576,"noteNumber":38,"velocity":99,"programNumber":1},{"time":48619.79166666666,"duration":250,"noteNumber":42,"velocity":80,"programNumber":1},{"time":48869.79166666666,"duration":62.5,"noteNumber":38,"velocity":74,"programNumber":1},{"time":48869.79166666666,"duration":250,"noteNumber":42,"velocity":90,"programNumber":1},{"time":49119.79166666666,"duration":213.54166666666424,"noteNumber":36,"velocity":3,"programNumber":1},{"time":49119.79166666666,"duration":250,"noteNumber":42,"velocity":115,"programNumber":1},{"time":49369.79166666666,"duration":130.20833333333576,"noteNumber":36,"velocity":3,"programNumber":1},{"time":49369.79166666666,"duration":250,"noteNumber":42,"velocity":110,"programNumber":1},{"time":49619.79166666666,"duration":67.70833333333576,"noteNumber":38,"velocity":79,"programNumber":1},{"time":49619.79166666666,"duration":250,"noteNumber":42,"velocity":81,"programNumber":1},{"time":49869.79166666666,"duration":67.70833333333576,"noteNumber":38,"velocity":62,"programNumber":1},{"time":49869.79166666666,"duration":250,"noteNumber":42,"velocity":94,"programNumber":1},{"time":50119.79166666666,"duration":250,"noteNumber":42,"velocity":122,"programNumber":1},{"time":50369.79166666666,"duration":161.45833333333576,"noteNumber":36,"velocity":3,"programNumber":1},{"time":50369.79166666666,"duration":250,"noteNumber":42,"velocity":114,"programNumber":1},{"time":50619.79166666666,"duration":62.5,"noteNumber":38,"velocity":99,"programNumber":1},{"time":50619.79166666666,"duration":250,"noteNumber":42,"velocity":79,"programNumber":1},{"time":50869.79166666666,"duration":62.5,"noteNumber":38,"velocity":74,"programNumber":1},{"time":50869.79166666666,"duration":250,"noteNumber":42,"velocity":94,"programNumber":1},{"time":51119.79166666666,"duration":177.08333333333576,"noteNumber":36,"velocity":4,"programNumber":1},{"time":51119.79166666666,"duration":250,"noteNumber":42,"velocity":102,"programNumber":1},{"time":51369.79166666666,"duration":114.58333333333576,"noteNumber":36,"velocity":3,"programNumber":1},{"time":51369.79166666666,"duration":250,"noteNumber":42,"velocity":100,"programNumber":1},{"time":51619.79166666666,"duration":114.58333333333576,"noteNumber":38,"velocity":83,"programNumber":1},{"time":51619.79166666666,"duration":250,"noteNumber":42,"velocity":73,"programNumber":1},{"time":51869.79166666666,"duration":67.70833333333576,"noteNumber":38,"velocity":60,"programNumber":1},{"time":51869.79166666666,"duration":250,"noteNumber":42,"velocity":95,"programNumber":1},{"time":52119.79166666666,"duration":250,"noteNumber":42,"velocity":127,"programNumber":1},{"time":52369.79166666666,"duration":125,"noteNumber":36,"velocity":3,"programNumber":1},{"time":52369.79166666666,"duration":250,"noteNumber":42,"velocity":111,"programNumber":1},{"time":52619.79166666666,"duration":67.70833333333576,"noteNumber":38,"velocity":101,"programNumber":1},{"time":52619.79166666666,"duration":250,"noteNumber":42,"velocity":76,"programNumber":1},{"time":52869.79166666666,"duration":62.5,"noteNumber":38,"velocity":74,"programNumber":1},{"time":52869.79166666666,"duration":250,"noteNumber":42,"velocity":94,"programNumber":1},{"time":53119.79166666666,"duration":57.29166666666424,"noteNumber":38,"velocity":76,"programNumber":1},{"time":53119.79166666666,"duration":119.79166666666424,"noteNumber":36,"velocity":3,"programNumber":1},{"time":53119.79166666666,"duration":250,"noteNumber":42,"velocity":98,"programNumber":1},{"time":53369.79166666666,"duration":166.66666666666424,"noteNumber":36,"velocity":3,"programNumber":1},{"time":53369.79166666666,"duration":250,"noteNumber":42,"velocity":120,"programNumber":1},{"time":53619.79166666666,"duration":67.70833333333576,"noteNumber":38,"velocity":79,"programNumber":1},{"time":53619.79166666666,"duration":250,"noteNumber":42,"velocity":73,"programNumber":1},{"time":53869.79166666666,"duration":67.70833333333576,"noteNumber":38,"velocity":60,"programNumber":1},{"time":53869.79166666666,"duration":250,"noteNumber":42,"velocity":98,"programNumber":1},{"time":54119.79166666666,"duration":250,"noteNumber":42,"velocity":125,"programNumber":1},{"time":54369.79166666666,"duration":104.16666666666424,"noteNumber":36,"velocity":3,"programNumber":1},{"time":54369.79166666666,"duration":250,"noteNumber":42,"velocity":105,"programNumber":1},{"time":54619.79166666666,"duration":72.91666666666424,"noteNumber":38,"velocity":53,"programNumber":1},{"time":54619.79166666666,"duration":250,"noteNumber":42,"velocity":77,"programNumber":1},{"time":54869.79166666666,"duration":62.5,"noteNumber":38,"velocity":75,"programNumber":1},{"time":54869.79166666666,"duration":250,"noteNumber":42,"velocity":93,"programNumber":1},{"time":55119.79166666666,"duration":203.125,"noteNumber":36,"velocity":5,"programNumber":1},{"time":55119.79166666666,"duration":250,"noteNumber":42,"velocity":116,"programNumber":1},{"time":55369.79166666666,"duration":130.20833333333576,"noteNumber":36,"velocity":3,"programNumber":1},{"time":55369.79166666666,"duration":250,"noteNumber":42,"velocity":108,"programNumber":1},{"time":55619.79166666666,"duration":177.08333333333576,"noteNumber":36,"velocity":3,"programNumber":1},{"time":55619.79166666666,"duration":250,"noteNumber":42,"velocity":124,"programNumber":1},{"time":55869.79166666666,"duration":104.16666666666424,"noteNumber":36,"velocity":3,"programNumber":1},{"time":55869.79166666666,"duration":250,"noteNumber":42,"velocity":111,"programNumber":1},{"time":56119.79166666666,"duration":67.70833333333576,"noteNumber":38,"velocity":104,"programNumber":1},{"time":56119.79166666666,"duration":250,"noteNumber":42,"velocity":84,"programNumber":1},{"time":56369.79166666666,"duration":250,"noteNumber":42,"velocity":47,"programNumber":1},{"time":56619.79166666666,"duration":57.29166666666424,"noteNumber":38,"velocity":54,"programNumber":1},{"time":56619.79166666666,"duration":197.91666666666424,"noteNumber":42,"velocity":119,"programNumber":1},{"time":56619.79166666666,"duration":203.125,"noteNumber":36,"velocity":4,"programNumber":1},{"time":56869.79166666666,"duration":250,"noteNumber":42,"velocity":96,"programNumber":1},{"time":57119.79166666666,"duration":250,"noteNumber":42,"velocity":93,"programNumber":1},{"time":57369.79166666666,"duration":72.91666666666424,"noteNumber":38,"velocity":46,"programNumber":1},{"time":57369.79166666666,"duration":250,"noteNumber":42,"velocity":63,"programNumber":1},{"time":57619.79166666666,"duration":67.70833333333576,"noteNumber":38,"velocity":67,"programNumber":1},{"time":57619.79166666666,"duration":250,"noteNumber":42,"velocity":76,"programNumber":1},{"time":57869.79166666666,"duration":166.66666666666424,"noteNumber":36,"velocity":4,"programNumber":1},{"time":57869.79166666666,"duration":250,"noteNumber":42,"velocity":108,"programNumber":1},{"time":58119.79166666666,"duration":250,"noteNumber":42,"velocity":108,"programNumber":1},{"time":58369.79166666666,"duration":156.25,"noteNumber":36,"velocity":3,"programNumber":1},{"time":58369.79166666666,"duration":250,"noteNumber":42,"velocity":97,"programNumber":1},{"time":58619.79166666666,"duration":67.70833333333576,"noteNumber":38,"velocity":72,"programNumber":1},{"time":58619.79166666666,"duration":250,"noteNumber":42,"velocity":63,"programNumber":1},{"time":58869.79166666666,"duration":67.70833333333576,"noteNumber":38,"velocity":56,"programNumber":1},{"time":58869.79166666666,"duration":250,"noteNumber":42,"velocity":79,"programNumber":1},{"time":59119.79166666666,"duration":250,"noteNumber":42,"velocity":104,"programNumber":1},{"time":59369.79166666666,"duration":203.125,"noteNumber":36,"velocity":4,"programNumber":1},{"time":59369.79166666666,"duration":250,"noteNumber":42,"velocity":106,"programNumber":1},{"time":59619.79166666666,"duration":114.58333333333576,"noteNumber":38,"velocity":50,"programNumber":1},{"time":59619.79166666666,"duration":250,"noteNumber":42,"velocity":63,"programNumber":1},{"time":59869.79166666666,"duration":72.91666666666424,"noteNumber":38,"velocity":44,"programNumber":1},{"time":59869.79166666666,"duration":250,"noteNumber":42,"velocity":76,"programNumber":1},{"time":60119.79166666666,"duration":250,"noteNumber":42,"velocity":111,"programNumber":1},{"time":60369.79166666666,"duration":250,"noteNumber":42,"velocity":97,"programNumber":1},{"time":60619.79166666666,"duration":114.58333333333576,"noteNumber":38,"velocity":73,"programNumber":1},{"time":60619.79166666666,"duration":250,"noteNumber":42,"velocity":67,"programNumber":1},{"time":60869.79166666666,"duration":72.91666666666424,"noteNumber":38,"velocity":55,"programNumber":1},{"time":60869.79166666666,"duration":250,"noteNumber":42,"velocity":80,"programNumber":1},{"time":61119.79166666666,"duration":250,"noteNumber":42,"velocity":111,"programNumber":1},{"time":61369.79166666666,"duration":114.58333333333576,"noteNumber":36,"velocity":3,"programNumber":1},{"time":61369.79166666666,"duration":250,"noteNumber":42,"velocity":103,"programNumber":1},{"time":61619.79166666666,"duration":72.91666666666424,"noteNumber":38,"velocity":55,"programNumber":1},{"time":61619.79166666666,"duration":250,"noteNumber":42,"velocity":66,"programNumber":1},{"time":61869.79166666666,"duration":72.91666666666424,"noteNumber":38,"velocity":43,"programNumber":1},{"time":61869.79166666666,"duration":250,"noteNumber":42,"velocity":80,"programNumber":1},{"time":62119.79166666666,"duration":104.16666666666424,"noteNumber":36,"velocity":3,"programNumber":1},{"time":62119.79166666666,"duration":250,"noteNumber":42,"velocity":107,"programNumber":1},{"time":62369.79166666666,"duration":125,"noteNumber":36,"velocity":4,"programNumber":1},{"time":62369.79166666666,"duration":250,"noteNumber":42,"velocity":109,"programNumber":1},{"time":62619.79166666666,"duration":114.58333333333576,"noteNumber":38,"velocity":74,"programNumber":1},{"time":62619.79166666666,"duration":250,"noteNumber":42,"velocity":65,"programNumber":1},{"time":62869.79166666666,"duration":67.70833333333576,"noteNumber":38,"velocity":59,"programNumber":1},{"time":62869.79166666666,"duration":250,"noteNumber":42,"velocity":78,"programNumber":1},{"time":63119.79166666666,"duration":250,"noteNumber":42,"velocity":105,"programNumber":1},{"time":63369.79166666666,"duration":250,"noteNumber":42,"velocity":94,"programNumber":1},{"time":63619.79166666666,"duration":72.91666666666424,"noteNumber":38,"velocity":53,"programNumber":1},{"time":63619.79166666666,"duration":250,"noteNumber":42,"velocity":67,"programNumber":1},{"time":63869.79166666666,"duration":72.91666666666424,"noteNumber":38,"velocity":42,"programNumber":1},{"time":63869.79166666666,"duration":125,"noteNumber":42,"velocity":84,"programNumber":1},{"time":63994.79166666666,"duration":125,"noteNumber":42,"velocity":62,"programNumber":1},{"time":63994.79166666666,"duration":171.875,"noteNumber":38,"velocity":103,"programNumber":1},{"time":64119.79166666666,"duration":125,"noteNumber":42,"velocity":111,"programNumber":1},{"time":64244.79166666666,"duration":67.70833333333576,"noteNumber":38,"velocity":49,"programNumber":1},{"time":64244.79166666666,"duration":125,"noteNumber":42,"velocity":83,"programNumber":1},{"time":64369.79166666666,"duration":125,"noteNumber":42,"velocity":102,"programNumber":1},{"time":64494.79166666666,"duration":125,"noteNumber":42,"velocity":85,"programNumber":1},{"time":64619.79166666666,"duration":125,"noteNumber":42,"velocity":65,"programNumber":1},{"time":64619.79166666666,"duration":151.04166666666424,"noteNumber":38,"velocity":104,"programNumber":1},{"time":64744.79166666666,"duration":125,"noteNumber":42,"velocity":104,"programNumber":1},{"time":64744.79166666666,"duration":125,"noteNumber":36,"velocity":3,"programNumber":1},{"time":64869.79166666666,"duration":67.70833333333576,"noteNumber":38,"velocity":55,"programNumber":1},{"time":64869.79166666666,"duration":125,"noteNumber":42,"velocity":79,"programNumber":1},{"time":64994.79166666666,"duration":125,"noteNumber":42,"velocity":67,"programNumber":1},{"time":64994.79166666666,"duration":166.66666666666424,"noteNumber":38,"velocity":110,"programNumber":1},{"time":65119.79166666666,"duration":125,"noteNumber":42,"velocity":107,"programNumber":1},{"time":65244.79166666666,"duration":67.70833333333576,"noteNumber":38,"velocity":61,"programNumber":1},{"time":65244.79166666666,"duration":125,"noteNumber":42,"velocity":84,"programNumber":1},{"time":65369.79166666666,"duration":114.58333333333576,"noteNumber":36,"velocity":3,"programNumber":1},{"time":65369.79166666666,"duration":125,"noteNumber":42,"velocity":106,"programNumber":1},{"time":65494.79166666666,"duration":125,"noteNumber":42,"velocity":80,"programNumber":1},{"time":65619.79166666666,"duration":125,"noteNumber":42,"velocity":63,"programNumber":1},{"time":65619.79166666666,"duration":151.04166666667152,"noteNumber":38,"velocity":82,"programNumber":1},{"time":65744.79166666666,"duration":114.58333333334303,"noteNumber":36,"velocity":5,"programNumber":1},{"time":65744.79166666666,"duration":125.00000000001455,"noteNumber":42,"velocity":90,"programNumber":1},{"time":65869.79166666667,"duration":67.70833333332848,"noteNumber":38,"velocity":67,"programNumber":1},{"time":65869.79166666667,"duration":125,"noteNumber":42,"velocity":78,"programNumber":1},{"time":65994.79166666667,"duration":125,"noteNumber":42,"velocity":62,"programNumber":1},{"time":65994.79166666667,"duration":166.66666666667152,"noteNumber":38,"velocity":124,"programNumber":1},{"time":66119.79166666667,"duration":125,"noteNumber":42,"velocity":109,"programNumber":1},{"time":66244.79166666667,"duration":67.70833333332848,"noteNumber":38,"velocity":49,"programNumber":1},{"time":66244.79166666667,"duration":125,"noteNumber":42,"velocity":81,"programNumber":1},{"time":66369.79166666667,"duration":114.58333333332848,"noteNumber":36,"velocity":4,"programNumber":1},{"time":66369.79166666667,"duration":125,"noteNumber":42,"velocity":90,"programNumber":1},{"time":66494.79166666667,"duration":125,"noteNumber":42,"velocity":83,"programNumber":1},{"time":66619.79166666667,"duration":125,"noteNumber":42,"velocity":67,"programNumber":1},{"time":66619.79166666667,"duration":151.04166666667152,"noteNumber":38,"velocity":98,"programNumber":1},{"time":66744.79166666667,"duration":114.58333333334303,"noteNumber":36,"velocity":5,"programNumber":1},{"time":66744.79166666667,"duration":125.00000000001455,"noteNumber":42,"velocity":93,"programNumber":1},{"time":66869.79166666669,"duration":67.70833333332848,"noteNumber":38,"velocity":55,"programNumber":1},{"time":66869.79166666669,"duration":125,"noteNumber":42,"velocity":80,"programNumber":1},{"time":66994.79166666669,"duration":57.29166666667152,"noteNumber":38,"velocity":117,"programNumber":1},{"time":66994.79166666669,"duration":125,"noteNumber":42,"velocity":60,"programNumber":1},{"time":67119.79166666669,"duration":125,"noteNumber":42,"velocity":108,"programNumber":1},{"time":67244.79166666669,"duration":67.70833333332848,"noteNumber":38,"velocity":59,"programNumber":1},{"time":67244.79166666669,"duration":125,"noteNumber":42,"velocity":87,"programNumber":1},{"time":67369.79166666669,"duration":104.16666666667152,"noteNumber":36,"velocity":3,"programNumber":1},{"time":67369.79166666669,"duration":125,"noteNumber":42,"velocity":106,"programNumber":1},{"time":67494.79166666669,"duration":125,"noteNumber":42,"velocity":74,"programNumber":1},{"time":67619.79166666669,"duration":125,"noteNumber":42,"velocity":63,"programNumber":1},{"time":67744.79166666669,"duration":119.79166666667152,"noteNumber":36,"velocity":4,"programNumber":1},{"time":67744.79166666669,"duration":125,"noteNumber":42,"velocity":106,"programNumber":1},{"time":67869.79166666669,"duration":67.70833333332848,"noteNumber":38,"velocity":68,"programNumber":1},{"time":67869.79166666669,"duration":125,"noteNumber":42,"velocity":75,"programNumber":1},{"time":67994.79166666669,"duration":125,"noteNumber":42,"velocity":63,"programNumber":1},{"time":67994.79166666669,"duration":156.25,"noteNumber":38,"velocity":122,"programNumber":1},{"time":68119.79166666669,"duration":72.91666666667152,"noteNumber":42,"velocity":105,"programNumber":1},{"time":68244.79166666669,"duration":125,"noteNumber":42,"velocity":65,"programNumber":1},{"time":68369.79166666669,"duration":104.16666666667152,"noteNumber":36,"velocity":8,"programNumber":1},{"time":68369.79166666669,"duration":125,"noteNumber":42,"velocity":81,"programNumber":1},{"time":68494.79166666669,"duration":125,"noteNumber":42,"velocity":64,"programNumber":1},{"time":68619.79166666669,"duration":125,"noteNumber":42,"velocity":52,"programNumber":1},{"time":68744.79166666669,"duration":104.16666666667152,"noteNumber":36,"velocity":8,"programNumber":1},{"time":68744.79166666669,"duration":125,"noteNumber":42,"velocity":69,"programNumber":1},{"time":68869.79166666669,"duration":125,"noteNumber":42,"velocity":62,"programNumber":1},{"time":68994.79166666669,"duration":57.29166666667152,"noteNumber":38,"velocity":56,"programNumber":1},{"time":68994.79166666669,"duration":125,"noteNumber":42,"velocity":55,"programNumber":1},{"time":69119.79166666669,"duration":125,"noteNumber":42,"velocity":84,"programNumber":1},{"time":69244.79166666669,"duration":125,"noteNumber":42,"velocity":67,"programNumber":1},{"time":69369.79166666669,"duration":93.75,"noteNumber":36,"velocity":7,"programNumber":1},{"time":69369.79166666669,"duration":125,"noteNumber":42,"velocity":74,"programNumber":1},{"time":69494.79166666669,"duration":125,"noteNumber":42,"velocity":71,"programNumber":1},{"time":69619.79166666669,"duration":57.29166666667152,"noteNumber":38,"velocity":62,"programNumber":1},{"time":69619.79166666669,"duration":125,"noteNumber":42,"velocity":55,"programNumber":1},{"time":69744.79166666669,"duration":114.58333333332848,"noteNumber":36,"velocity":8,"programNumber":1},{"time":69744.79166666669,"duration":125,"noteNumber":42,"velocity":71,"programNumber":1},{"time":69869.79166666669,"duration":125,"noteNumber":42,"velocity":67,"programNumber":1},{"time":69994.79166666669,"duration":125,"noteNumber":42,"velocity":57,"programNumber":1},{"time":70119.79166666669,"duration":125,"noteNumber":42,"velocity":81,"programNumber":1},{"time":70244.79166666669,"duration":125,"noteNumber":42,"velocity":64,"programNumber":1},{"time":70369.79166666669,"duration":125,"noteNumber":42,"velocity":55,"programNumber":1},{"time":70494.79166666669,"duration":104.16666666667152,"noteNumber":36,"velocity":9,"programNumber":1},{"time":70494.79166666669,"duration":125,"noteNumber":42,"velocity":76,"programNumber":1},{"time":70619.79166666669,"duration":125,"noteNumber":42,"velocity":68,"programNumber":1},{"time":70744.79166666669,"duration":125,"noteNumber":42,"velocity":52,"programNumber":1},{"time":70869.79166666669,"duration":104.16666666667152,"noteNumber":36,"velocity":7,"programNumber":1},{"time":70869.79166666669,"duration":125,"noteNumber":42,"velocity":71,"programNumber":1},{"time":70994.79166666669,"duration":125,"noteNumber":42,"velocity":62,"programNumber":1},{"time":71119.79166666669,"duration":67.70833333332848,"noteNumber":38,"velocity":54,"programNumber":1},{"time":71119.79166666669,"duration":125,"noteNumber":42,"velocity":58,"programNumber":1},{"time":71244.79166666669,"duration":125,"noteNumber":42,"velocity":83,"programNumber":1},{"time":71369.79166666669,"duration":125,"noteNumber":42,"velocity":66,"programNumber":1},{"time":71494.79166666669,"duration":125,"noteNumber":42,"velocity":75,"programNumber":1},{"time":71619.79166666669,"duration":125,"noteNumber":42,"velocity":67,"programNumber":1},{"time":71744.79166666669,"duration":57.29166666667152,"noteNumber":38,"velocity":66,"programNumber":1},{"time":71744.79166666669,"duration":125,"noteNumber":42,"velocity":56,"programNumber":1},{"time":71869.79166666669,"duration":114.58333333332848,"noteNumber":36,"velocity":9,"programNumber":1},{"time":71869.79166666669,"duration":125,"noteNumber":42,"velocity":73,"programNumber":1},{"time":71994.79166666669,"duration":125,"noteNumber":42,"velocity":64,"programNumber":1},{"time":72119.79166666669,"duration":125,"noteNumber":42,"velocity":54,"programNumber":1},{"time":72244.79166666669,"duration":119.79166666667152,"noteNumber":36,"velocity":8,"programNumber":1},{"time":72244.79166666669,"duration":125,"noteNumber":42,"velocity":76,"programNumber":1},{"time":72369.79166666669,"duration":125,"noteNumber":42,"velocity":65,"programNumber":1},{"time":72494.79166666669,"duration":125,"noteNumber":42,"velocity":52,"programNumber":1},{"time":72619.79166666669,"duration":125,"noteNumber":42,"velocity":49,"programNumber":1},{"time":72619.79166666669,"duration":166.66666666667152,"noteNumber":38,"velocity":100,"programNumber":1},{"time":72744.79166666669,"duration":119.79166666667152,"noteNumber":36,"velocity":10,"programNumber":1},{"time":72744.79166666669,"duration":125,"noteNumber":42,"velocity":70,"programNumber":1},{"time":72869.79166666669,"duration":72.91666666667152,"noteNumber":38,"velocity":57,"programNumber":1},{"time":72869.79166666669,"duration":125,"noteNumber":42,"velocity":67,"programNumber":1},{"time":72994.79166666669,"duration":93.75,"noteNumber":36,"velocity":7,"programNumber":1},{"time":72994.79166666669,"duration":125,"noteNumber":42,"velocity":73,"programNumber":1},{"time":73119.79166666669,"duration":125,"noteNumber":42,"velocity":66,"programNumber":1},{"time":73244.79166666669,"duration":114.58333333332848,"noteNumber":36,"velocity":7,"programNumber":1},{"time":73244.79166666669,"duration":125,"noteNumber":42,"velocity":68,"programNumber":1},{"time":73369.79166666669,"duration":125,"noteNumber":42,"velocity":69,"programNumber":1},{"time":73494.79166666669,"duration":125,"noteNumber":42,"velocity":78,"programNumber":1},{"time":73619.79166666669,"duration":125,"noteNumber":42,"velocity":69,"programNumber":1},{"time":73744.79166666669,"duration":114.58333333332848,"noteNumber":36,"velocity":8,"programNumber":1},{"time":73744.79166666669,"duration":125,"noteNumber":42,"velocity":81,"programNumber":1},{"time":73869.79166666669,"duration":125,"noteNumber":42,"velocity":64,"programNumber":1},{"time":73994.79166666669,"duration":114.58333333332848,"noteNumber":36,"velocity":8,"programNumber":1},{"time":73994.79166666669,"duration":125,"noteNumber":42,"velocity":74,"programNumber":1},{"time":74119.79166666669,"duration":125,"noteNumber":42,"velocity":68,"programNumber":1},{"time":74244.79166666669,"duration":125,"noteNumber":42,"velocity":53,"programNumber":1},{"time":74369.79166666669,"duration":114.58333333332848,"noteNumber":36,"velocity":9,"programNumber":1},{"time":74369.79166666669,"duration":125,"noteNumber":42,"velocity":78,"programNumber":1},{"time":74494.79166666669,"duration":125,"noteNumber":42,"velocity":65,"programNumber":1},{"time":74619.79166666669,"duration":125,"noteNumber":42,"velocity":52,"programNumber":1},{"time":74744.79166666669,"duration":125,"noteNumber":42,"velocity":72,"programNumber":1},{"time":74869.79166666669,"duration":125,"noteNumber":42,"velocity":66,"programNumber":1},{"time":74994.79166666669,"duration":125,"noteNumber":42,"velocity":82,"programNumber":1},{"time":75119.79166666669,"duration":125,"noteNumber":42,"velocity":68,"programNumber":1},{"time":75244.79166666669,"duration":104.16666666667152,"noteNumber":36,"velocity":8,"programNumber":1},{"time":75244.79166666669,"duration":125,"noteNumber":42,"velocity":80,"programNumber":1},{"time":75369.79166666669,"duration":125,"noteNumber":42,"velocity":73,"programNumber":1},{"time":75494.79166666669,"duration":125,"noteNumber":42,"velocity":58,"programNumber":1},{"time":75619.79166666669,"duration":125,"noteNumber":42,"velocity":60,"programNumber":1},{"time":75619.79166666669,"duration":166.66666666667152,"noteNumber":38,"velocity":127,"programNumber":1},{"time":75744.79166666669,"duration":119.79166666667152,"noteNumber":36,"velocity":7,"programNumber":1},{"time":75744.79166666669,"duration":125,"noteNumber":42,"velocity":70,"programNumber":1},{"time":75869.79166666669,"duration":72.91666666667152,"noteNumber":38,"velocity":49,"programNumber":1},{"time":75869.79166666669,"duration":125,"noteNumber":42,"velocity":63,"programNumber":1},{"time":75994.79166666669,"duration":93.75,"noteNumber":36,"velocity":7,"programNumber":1},{"time":75994.79166666669,"duration":125,"noteNumber":42,"velocity":75,"programNumber":1},{"time":76119.79166666669,"duration":125,"noteNumber":42,"velocity":64,"programNumber":1},{"time":76244.79166666669,"duration":125,"noteNumber":42,"velocity":67,"programNumber":1},{"time":76369.79166666669,"duration":125,"noteNumber":42,"velocity":68,"programNumber":1},{"time":76494.79166666669,"duration":125,"noteNumber":42,"velocity":54,"programNumber":1},{"time":76619.79166666669,"duration":119.79166666667152,"noteNumber":36,"velocity":7,"programNumber":1},{"time":76619.79166666669,"duration":125,"noteNumber":42,"velocity":72,"programNumber":1},{"time":76744.79166666669,"duration":125,"noteNumber":42,"velocity":66,"programNumber":1},{"time":76869.79166666669,"duration":67.70833333332848,"noteNumber":38,"velocity":53,"programNumber":1},{"time":76869.79166666669,"duration":125,"noteNumber":42,"velocity":54,"programNumber":1},{"time":76994.79166666669,"duration":125,"noteNumber":42,"velocity":87,"programNumber":1},{"time":77119.79166666669,"duration":125,"noteNumber":42,"velocity":66,"programNumber":1},{"time":77244.79166666669,"duration":114.58333333332848,"noteNumber":36,"velocity":7,"programNumber":1},{"time":77244.79166666669,"duration":125,"noteNumber":42,"velocity":78,"programNumber":1},{"time":77369.79166666669,"duration":125,"noteNumber":42,"velocity":66,"programNumber":1},{"time":77494.79166666669,"duration":125,"noteNumber":42,"velocity":55,"programNumber":1},{"time":77619.79166666669,"duration":114.58333333332848,"noteNumber":36,"velocity":7,"programNumber":1},{"time":77619.79166666669,"duration":125,"noteNumber":42,"velocity":80,"programNumber":1},{"time":77744.79166666669,"duration":125,"noteNumber":42,"velocity":64,"programNumber":1},{"time":77869.79166666669,"duration":125,"noteNumber":42,"velocity":53,"programNumber":1},{"time":77994.79166666669,"duration":125,"noteNumber":42,"velocity":86,"programNumber":1},{"time":78119.79166666669,"duration":125,"noteNumber":42,"velocity":69,"programNumber":1},{"time":78244.79166666669,"duration":98.95833333332848,"noteNumber":36,"velocity":7,"programNumber":1},{"time":78244.79166666669,"duration":125,"noteNumber":42,"velocity":88,"programNumber":1},{"time":78369.79166666669,"duration":125,"noteNumber":42,"velocity":71,"programNumber":1},{"time":78494.79166666669,"duration":125,"noteNumber":42,"velocity":51,"programNumber":1},{"time":78619.79166666669,"duration":104.16666666667152,"noteNumber":36,"velocity":7,"programNumber":1},{"time":78619.79166666669,"duration":125,"noteNumber":42,"velocity":70,"programNumber":1},{"time":78744.79166666669,"duration":125,"noteNumber":42,"velocity":66,"programNumber":1},{"time":78869.79166666669,"duration":67.70833333332848,"noteNumber":38,"velocity":50,"programNumber":1},{"time":78869.79166666669,"duration":125,"noteNumber":42,"velocity":50,"programNumber":1},{"time":78994.79166666669,"duration":125,"noteNumber":42,"velocity":86,"programNumber":1},{"time":79119.79166666669,"duration":125,"noteNumber":42,"velocity":64,"programNumber":1},{"time":79244.79166666669,"duration":125,"noteNumber":42,"velocity":78,"programNumber":1},{"time":79369.79166666669,"duration":125,"noteNumber":42,"velocity":69,"programNumber":1},{"time":79494.79166666669,"duration":67.70833333332848,"noteNumber":38,"velocity":59,"programNumber":1},{"time":79494.79166666669,"duration":67.70833333332848,"noteNumber":42,"velocity":51,"programNumber":1},{"time":79619.79166666669,"duration":125,"noteNumber":42,"velocity":56,"programNumber":1},{"time":79744.79166666669,"duration":125,"noteNumber":42,"velocity":49,"programNumber":1},{"time":79869.79166666669,"duration":125,"noteNumber":42,"velocity":37,"programNumber":1},{"time":79994.79166666669,"duration":125,"noteNumber":42,"velocity":61,"programNumber":1},{"time":80119.79166666669,"duration":67.70833333332848,"noteNumber":38,"velocity":31,"programNumber":1},{"time":80119.79166666669,"duration":125,"noteNumber":42,"velocity":47,"programNumber":1},{"time":80244.79166666669,"duration":125,"noteNumber":42,"velocity":57,"programNumber":1},{"time":80369.79166666669,"duration":125,"noteNumber":42,"velocity":51,"programNumber":1},{"time":80494.79166666669,"duration":125,"noteNumber":42,"velocity":37,"programNumber":1},{"time":80619.79166666669,"duration":125,"noteNumber":42,"velocity":60,"programNumber":1},{"time":80744.79166666669,"duration":67.70833333332848,"noteNumber":38,"velocity":36,"programNumber":1},{"time":80744.79166666669,"duration":125,"noteNumber":42,"velocity":50,"programNumber":1},{"time":80869.79166666669,"duration":57.29166666667152,"noteNumber":38,"velocity":65,"programNumber":1},{"time":80869.79166666669,"duration":125,"noteNumber":42,"velocity":40,"programNumber":1},{"time":80994.79166666669,"duration":125,"noteNumber":42,"velocity":61,"programNumber":1},{"time":81119.79166666669,"duration":67.70833333332848,"noteNumber":38,"velocity":24,"programNumber":1},{"time":81119.79166666669,"duration":125,"noteNumber":42,"velocity":50,"programNumber":1},{"time":81244.79166666669,"duration":125,"noteNumber":42,"velocity":53,"programNumber":1},{"time":81369.79166666669,"duration":125,"noteNumber":42,"velocity":47,"programNumber":1},{"time":81494.79166666669,"duration":125,"noteNumber":42,"velocity":40,"programNumber":1},{"time":81494.79166666669,"duration":156.25,"noteNumber":38,"velocity":63,"programNumber":1},{"time":81619.79166666669,"duration":125,"noteNumber":42,"velocity":51,"programNumber":1},{"time":81744.79166666669,"duration":72.91666666667152,"noteNumber":38,"velocity":28,"programNumber":1},{"time":81744.79166666669,"duration":125,"noteNumber":42,"velocity":47,"programNumber":1},{"time":81869.79166666669,"duration":125,"noteNumber":42,"velocity":41,"programNumber":1},{"time":81869.79166666669,"duration":171.875,"noteNumber":38,"velocity":60,"programNumber":1},{"time":81994.79166666669,"duration":135.41666666667152,"noteNumber":42,"velocity":55,"programNumber":1},{"time":82130.20833333336,"duration":114.58333333332848,"noteNumber":42,"velocity":2,"programNumber":1},{"time":82244.79166666669,"duration":250,"noteNumber":42,"velocity":50,"programNumber":1},{"time":82494.79166666669,"duration":67.70833333332848,"noteNumber":38,"velocity":47,"programNumber":1},{"time":82494.79166666669,"duration":250,"noteNumber":42,"velocity":38,"programNumber":1},{"time":82744.79166666669,"duration":57.29166666667152,"noteNumber":38,"velocity":38,"programNumber":1},{"time":82744.79166666669,"duration":250,"noteNumber":42,"velocity":48,"programNumber":1},{"time":82994.79166666669,"duration":125,"noteNumber":42,"velocity":61,"programNumber":1},{"time":83119.79166666669,"duration":125,"noteNumber":42,"velocity":52,"programNumber":1},{"time":83244.79166666669,"duration":125,"noteNumber":42,"velocity":62,"programNumber":1},{"time":83369.79166666669,"duration":125,"noteNumber":42,"velocity":48,"programNumber":1},{"time":83494.79166666669,"duration":125,"noteNumber":42,"velocity":40,"programNumber":1},{"time":83494.79166666669,"duration":151.04166666667152,"noteNumber":38,"velocity":43,"programNumber":1},{"time":83619.79166666669,"duration":125,"noteNumber":42,"velocity":50,"programNumber":1},{"time":83744.79166666669,"duration":67.70833333332848,"noteNumber":38,"velocity":28,"programNumber":1},{"time":83744.79166666669,"duration":125,"noteNumber":42,"velocity":47,"programNumber":1},{"time":83869.79166666669,"duration":57.29166666667152,"noteNumber":38,"velocity":59,"programNumber":1},{"time":83869.79166666669,"duration":125,"noteNumber":42,"velocity":38,"programNumber":1},{"time":83994.79166666669,"duration":250,"noteNumber":42,"velocity":54,"programNumber":1},{"time":84244.79166666669,"duration":250,"noteNumber":42,"velocity":50,"programNumber":1},{"time":84494.79166666669,"duration":114.58333333332848,"noteNumber":38,"velocity":46,"programNumber":1},{"time":84494.79166666669,"duration":250,"noteNumber":42,"velocity":37,"programNumber":1},{"time":84744.79166666669,"duration":67.70833333332848,"noteNumber":38,"velocity":37,"programNumber":1},{"time":84744.79166666669,"duration":250,"noteNumber":42,"velocity":49,"programNumber":1},{"time":84994.79166666669,"duration":125,"noteNumber":42,"velocity":60,"programNumber":1},{"time":85119.79166666669,"duration":125,"noteNumber":42,"velocity":49,"programNumber":1},{"time":85244.79166666669,"duration":125,"noteNumber":42,"velocity":55,"programNumber":1},{"time":85369.79166666669,"duration":125,"noteNumber":42,"velocity":48,"programNumber":1},{"time":85494.79166666669,"duration":125,"noteNumber":42,"velocity":36,"programNumber":1},{"time":85619.79166666669,"duration":125,"noteNumber":42,"velocity":55,"programNumber":1},{"time":85744.79166666669,"duration":67.70833333332848,"noteNumber":38,"velocity":30,"programNumber":1},{"time":85744.79166666669,"duration":125,"noteNumber":42,"velocity":49,"programNumber":1},{"time":85869.79166666669,"duration":57.29166666667152,"noteNumber":38,"velocity":61,"programNumber":1},{"time":85869.79166666669,"duration":125,"noteNumber":42,"velocity":39,"programNumber":1},{"time":85994.79166666669,"duration":135.41666666667152,"noteNumber":42,"velocity":62,"programNumber":1},{"time":86130.20833333336,"duration":114.58333333332848,"noteNumber":42,"velocity":2,"programNumber":1},{"time":86244.79166666669,"duration":250,"noteNumber":42,"velocity":62,"programNumber":1},{"time":86494.79166666669,"duration":67.70833333332848,"noteNumber":38,"velocity":49,"programNumber":1},{"time":86494.79166666669,"duration":250,"noteNumber":42,"velocity":41,"programNumber":1},{"time":86744.79166666669,"duration":67.70833333332848,"noteNumber":38,"velocity":35,"programNumber":1},{"time":86744.79166666669,"duration":250,"noteNumber":42,"velocity":50,"programNumber":1},{"time":86994.79166666669,"duration":125,"noteNumber":42,"velocity":62,"programNumber":1},{"time":87119.79166666669,"duration":125,"noteNumber":42,"velocity":52,"programNumber":1},{"time":87244.79166666669,"duration":125,"noteNumber":42,"velocity":50,"programNumber":1},{"time":87369.79166666669,"duration":125,"noteNumber":42,"velocity":49,"programNumber":1},{"time":87494.79166666669,"duration":125,"noteNumber":42,"velocity":36,"programNumber":1},{"time":87619.79166666669,"duration":125,"noteNumber":42,"velocity":53,"programNumber":1},{"time":87744.79166666669,"duration":67.70833333332848,"noteNumber":38,"velocity":28,"programNumber":1},{"time":87744.79166666669,"duration":125,"noteNumber":42,"velocity":51,"programNumber":1},{"time":87869.79166666669,"duration":57.29166666667152,"noteNumber":38,"velocity":61,"programNumber":1},{"time":87869.79166666669,"duration":125,"noteNumber":42,"velocity":39,"programNumber":1},{"time":87994.79166666669,"duration":250,"noteNumber":42,"velocity":56,"programNumber":1},{"time":88244.79166666669,"duration":192.70833333332848,"noteNumber":36,"velocity":45,"programNumber":1},{"time":88244.79166666669,"duration":250,"noteNumber":42,"velocity":81,"programNumber":1},{"time":88494.79166666669,"duration":67.70833333332848,"noteNumber":38,"velocity":48,"programNumber":1},{"time":88494.79166666669,"duration":125,"noteNumber":42,"velocity":40,"programNumber":1},{"time":88619.79166666669,"duration":125,"noteNumber":42,"velocity":48,"programNumber":1},{"time":88619.79166666669,"duration":177.08333333332848,"noteNumber":36,"velocity":58,"programNumber":1},{"time":88744.79166666669,"duration":57.291666666656965,"noteNumber":38,"velocity":34,"programNumber":1},{"time":88744.79166666669,"duration":249.99999999998545,"noteNumber":42,"velocity":50,"programNumber":1},{"time":88994.79166666667,"duration":125,"noteNumber":42,"velocity":79,"programNumber":1},{"time":88994.79166666667,"duration":182.29166666667152,"noteNumber":36,"velocity":65,"programNumber":1},{"time":89119.79166666667,"duration":125,"noteNumber":42,"velocity":49,"programNumber":1},{"time":89244.79166666667,"duration":125,"noteNumber":42,"velocity":69,"programNumber":1},{"time":89244.79166666667,"duration":177.08333333332848,"noteNumber":36,"velocity":66,"programNumber":1},{"time":89369.79166666667,"duration":125,"noteNumber":42,"velocity":52,"programNumber":1},{"time":89494.79166666667,"duration":72.91666666667152,"noteNumber":38,"velocity":35,"programNumber":1},{"time":89494.79166666667,"duration":125,"noteNumber":42,"velocity":39,"programNumber":1},{"time":89619.79166666667,"duration":125,"noteNumber":42,"velocity":73,"programNumber":1},{"time":89619.79166666667,"duration":192.70833333332848,"noteNumber":36,"velocity":62,"programNumber":1},{"time":89744.79166666667,"duration":125,"noteNumber":42,"velocity":47,"programNumber":1},{"time":89869.79166666667,"duration":125,"noteNumber":42,"velocity":39,"programNumber":1},{"time":89994.79166666667,"duration":192.70833333332848,"noteNumber":36,"velocity":40,"programNumber":1},{"time":89994.79166666667,"duration":250,"noteNumber":42,"velocity":75,"programNumber":1},{"time":90244.79166666667,"duration":192.70833333332848,"noteNumber":36,"velocity":42,"programNumber":1},{"time":90244.79166666667,"duration":250,"noteNumber":42,"velocity":77,"programNumber":1},{"time":90494.79166666667,"duration":67.70833333332848,"noteNumber":38,"velocity":47,"programNumber":1},{"time":90494.79166666667,"duration":125,"noteNumber":42,"velocity":38,"programNumber":1},{"time":90619.79166666667,"duration":125,"noteNumber":42,"velocity":45,"programNumber":1},{"time":90619.79166666667,"duration":187.5,"noteNumber":36,"velocity":57,"programNumber":1},{"time":90744.79166666667,"duration":67.70833333332848,"noteNumber":38,"velocity":36,"programNumber":1},{"time":90744.79166666667,"duration":192.70833333332848,"noteNumber":42,"velocity":44,"programNumber":1},{"time":90994.79166666667,"duration":119.79166666667152,"noteNumber":36,"velocity":49,"programNumber":1},{"time":90994.79166666667,"duration":125,"noteNumber":42,"velocity":41,"programNumber":1},{"time":91119.79166666667,"duration":125,"noteNumber":42,"velocity":27,"programNumber":1},{"time":91244.79166666667,"duration":125,"noteNumber":42,"velocity":34,"programNumber":1},{"time":91244.79166666667,"duration":125,"noteNumber":36,"velocity":27,"programNumber":1},{"time":91369.79166666667,"duration":125,"noteNumber":42,"velocity":29,"programNumber":1},{"time":91494.79166666667,"duration":125,"noteNumber":42,"velocity":22,"programNumber":1},{"time":91494.79166666667,"duration":166.66666666667152,"noteNumber":38,"velocity":15,"programNumber":1},{"time":91619.79166666667,"duration":125,"noteNumber":42,"velocity":39,"programNumber":1},{"time":91619.79166666667,"duration":125,"noteNumber":36,"velocity":33,"programNumber":1},{"time":91744.79166666667,"duration":98.95833333332848,"noteNumber":38,"velocity":32,"programNumber":1},{"time":91744.79166666667,"duration":125,"noteNumber":42,"velocity":26,"programNumber":1},{"time":91869.79166666667,"duration":125,"noteNumber":42,"velocity":23,"programNumber":1},{"time":91869.79166666667,"duration":151.04166666667152,"noteNumber":38,"velocity":40,"programNumber":1},{"time":91994.79166666667,"duration":171.875,"noteNumber":36,"velocity":38,"programNumber":1},{"time":91994.79166666667,"duration":250,"noteNumber":42,"velocity":42,"programNumber":1},{"time":92244.79166666667,"duration":182.29166666667152,"noteNumber":36,"velocity":39,"programNumber":1},{"time":92244.79166666667,"duration":250,"noteNumber":42,"velocity":43,"programNumber":1},{"time":92494.79166666667,"duration":125,"noteNumber":42,"velocity":22,"programNumber":1},{"time":92494.79166666667,"duration":156.25,"noteNumber":38,"velocity":23,"programNumber":1},{"time":92619.79166666667,"duration":125,"noteNumber":42,"velocity":25,"programNumber":1},{"time":92619.79166666667,"duration":125,"noteNumber":36,"velocity":40,"programNumber":1},{"time":92744.79166666667,"duration":114.58333333332848,"noteNumber":38,"velocity":21,"programNumber":1},{"time":92744.79166666667,"duration":250,"noteNumber":42,"velocity":26,"programNumber":1},{"time":92994.79166666667,"duration":125,"noteNumber":42,"velocity":44,"programNumber":1},{"time":92994.79166666667,"duration":130.20833333332848,"noteNumber":36,"velocity":29,"programNumber":1},{"time":93119.79166666667,"duration":125,"noteNumber":42,"velocity":27,"programNumber":1},{"time":93244.79166666667,"duration":125,"noteNumber":36,"velocity":24,"programNumber":1},{"time":93244.79166666667,"duration":125,"noteNumber":42,"velocity":36,"programNumber":1},{"time":93369.79166666667,"duration":125,"noteNumber":42,"velocity":27,"programNumber":1},{"time":93494.79166666667,"duration":125,"noteNumber":42,"velocity":21,"programNumber":1},{"time":93619.79166666667,"duration":125,"noteNumber":42,"velocity":43,"programNumber":1},{"time":93619.79166666667,"duration":125,"noteNumber":36,"velocity":30,"programNumber":1},{"time":93744.79166666667,"duration":72.91666666667152,"noteNumber":38,"velocity":16,"programNumber":1},{"time":93744.79166666667,"duration":125,"noteNumber":42,"velocity":25,"programNumber":1},{"time":93869.79166666667,"duration":125,"noteNumber":42,"velocity":23,"programNumber":1},{"time":93869.79166666667,"duration":166.66666666667152,"noteNumber":38,"velocity":32,"programNumber":1},{"time":93994.79166666667,"duration":177.08333333334303,"noteNumber":36,"velocity":35,"programNumber":1},{"time":93994.79166666667,"duration":250.00000000001455,"noteNumber":42,"velocity":39,"programNumber":1},{"time":94244.79166666669,"duration":182.29166666667152,"noteNumber":36,"velocity":36,"programNumber":1},{"time":94244.79166666669,"duration":250,"noteNumber":42,"velocity":42,"programNumber":1},{"time":94494.79166666669,"duration":125,"noteNumber":42,"velocity":21,"programNumber":1},{"time":94494.79166666669,"duration":156.25,"noteNumber":38,"velocity":24,"programNumber":1},{"time":94619.79166666669,"duration":125,"noteNumber":42,"velocity":27,"programNumber":1},{"time":94619.79166666669,"duration":130.20833333332848,"noteNumber":36,"velocity":25,"programNumber":1},{"time":94744.79166666669,"duration":72.91666666665697,"noteNumber":38,"velocity":21,"programNumber":1},{"time":94744.79166666669,"duration":249.99999999998545,"noteNumber":42,"velocity":27,"programNumber":1},{"time":94994.79166666667,"duration":125,"noteNumber":42,"velocity":43,"programNumber":1},{"time":94994.79166666667,"duration":130.20833333332848,"noteNumber":36,"velocity":30,"programNumber":1},{"time":95119.79166666667,"duration":125,"noteNumber":42,"velocity":27,"programNumber":1},{"time":95244.79166666667,"duration":125,"noteNumber":36,"velocity":29,"programNumber":1},{"time":95244.79166666667,"duration":125,"noteNumber":42,"velocity":39,"programNumber":1},{"time":95369.79166666667,"duration":125,"noteNumber":42,"velocity":26,"programNumber":1},{"time":95494.79166666667,"duration":125,"noteNumber":42,"velocity":21,"programNumber":1},{"time":95494.79166666667,"duration":140.625,"noteNumber":38,"velocity":19,"programNumber":1},{"time":95619.79166666667,"duration":125,"noteNumber":42,"velocity":40,"programNumber":1},{"time":95619.79166666667,"duration":125,"noteNumber":36,"velocity":28,"programNumber":1},{"time":95744.79166666667,"duration":125,"noteNumber":38,"velocity":16,"programNumber":1},{"time":95744.79166666667,"duration":125,"noteNumber":42,"velocity":26,"programNumber":1},{"time":95869.79166666667,"duration":125,"noteNumber":42,"velocity":22,"programNumber":1},{"time":95869.79166666667,"duration":166.66666666667152,"noteNumber":38,"velocity":32,"programNumber":1},{"time":95994.79166666667,"duration":171.875,"noteNumber":36,"velocity":32,"programNumber":1},{"time":95994.79166666667,"duration":250,"noteNumber":42,"velocity":41,"programNumber":1},{"time":96244.79166666667,"duration":177.08333333332848,"noteNumber":36,"velocity":33,"programNumber":1},{"time":96244.79166666667,"duration":250,"noteNumber":42,"velocity":42,"programNumber":1},{"time":96494.79166666667,"duration":125,"noteNumber":42,"velocity":23,"programNumber":1},{"time":96494.79166666667,"duration":156.25,"noteNumber":38,"velocity":23,"programNumber":1},{"time":96619.79166666667,"duration":125,"noteNumber":42,"velocity":26,"programNumber":1},{"time":96619.79166666667,"duration":130.20833333332848,"noteNumber":36,"velocity":23,"programNumber":1},{"time":96744.79166666667,"duration":114.58333333332848,"noteNumber":38,"velocity":21,"programNumber":1},{"time":96744.79166666667,"duration":250,"noteNumber":42,"velocity":26,"programNumber":1},{"time":96994.79166666667,"duration":125,"noteNumber":42,"velocity":42,"programNumber":1},{"time":96994.79166666667,"duration":145.83333333332848,"noteNumber":36,"velocity":30,"programNumber":1},{"time":97119.79166666667,"duration":125,"noteNumber":42,"velocity":27,"programNumber":1},{"time":97244.79166666667,"duration":125,"noteNumber":42,"velocity":37,"programNumber":1},{"time":97244.79166666667,"duration":125,"noteNumber":36,"velocity":26,"programNumber":1},{"time":97369.79166666667,"duration":125,"noteNumber":42,"velocity":26,"programNumber":1},{"time":97494.79166666667,"duration":125,"noteNumber":42,"velocity":22,"programNumber":1},{"time":97494.79166666667,"duration":130.20833333332848,"noteNumber":38,"velocity":20,"programNumber":1},{"time":97619.79166666667,"duration":125,"noteNumber":42,"velocity":42,"programNumber":1},{"time":97619.79166666667,"duration":125,"noteNumber":36,"velocity":32,"programNumber":1},{"time":97744.79166666667,"duration":125,"noteNumber":38,"velocity":16,"programNumber":1},{"time":97744.79166666667,"duration":125,"noteNumber":42,"velocity":24,"programNumber":1},{"time":97869.79166666667,"duration":125,"noteNumber":42,"velocity":22,"programNumber":1},{"time":97869.79166666667,"duration":166.66666666667152,"noteNumber":38,"velocity":33,"programNumber":1},{"time":97994.79166666667,"duration":166.66666666667152,"noteNumber":36,"velocity":39,"programNumber":1},{"time":97994.79166666667,"duration":250,"noteNumber":42,"velocity":44,"programNumber":1},{"time":98244.79166666667,"duration":177.08333333332848,"noteNumber":36,"velocity":39,"programNumber":1},{"time":98244.79166666667,"duration":250,"noteNumber":42,"velocity":43,"programNumber":1},{"time":98494.79166666667,"duration":125,"noteNumber":42,"velocity":22,"programNumber":1},{"time":98494.79166666667,"duration":156.25,"noteNumber":38,"velocity":24,"programNumber":1},{"time":98619.79166666667,"duration":125,"noteNumber":42,"velocity":26,"programNumber":1},{"time":98619.79166666667,"duration":125,"noteNumber":36,"velocity":40,"programNumber":1},{"time":98744.79166666667,"duration":72.91666666667152,"noteNumber":38,"velocity":21,"programNumber":1},{"time":98744.79166666667,"duration":250,"noteNumber":42,"velocity":27,"programNumber":1},{"time":98994.79166666667,"duration":125,"noteNumber":42,"velocity":42,"programNumber":1},{"time":98994.79166666667,"duration":130.20833333332848,"noteNumber":36,"velocity":30,"programNumber":1},{"time":99119.79166666667,"duration":125,"noteNumber":42,"velocity":27,"programNumber":1},{"time":99244.79166666667,"duration":125,"noteNumber":42,"velocity":37,"programNumber":1},{"time":99244.79166666667,"duration":125,"noteNumber":36,"velocity":24,"programNumber":1},{"time":99369.79166666667,"duration":125,"noteNumber":42,"velocity":27,"programNumber":1},{"time":99494.79166666667,"duration":125,"noteNumber":42,"velocity":21,"programNumber":1},{"time":99494.79166666667,"duration":130.20833333332848,"noteNumber":38,"velocity":20,"programNumber":1},{"time":99619.79166666667,"duration":125,"noteNumber":42,"velocity":42,"programNumber":1},{"time":99619.79166666667,"duration":125,"noteNumber":36,"velocity":29,"programNumber":1},{"time":99744.79166666667,"duration":72.91666666667152,"noteNumber":38,"velocity":17,"programNumber":1},{"time":99744.79166666667,"duration":125,"noteNumber":42,"velocity":25,"programNumber":1},{"time":99869.79166666667,"duration":125,"noteNumber":42,"velocity":22,"programNumber":1},{"time":99869.79166666667,"duration":166.66666666667152,"noteNumber":38,"velocity":33,"programNumber":1},{"time":99994.79166666667,"duration":166.66666666667152,"noteNumber":36,"velocity":35,"programNumber":1},{"time":99994.79166666667,"duration":250,"noteNumber":42,"velocity":41,"programNumber":1},{"time":100244.79166666667,"duration":177.08333333332848,"noteNumber":36,"velocity":37,"programNumber":1},{"time":100244.79166666667,"duration":250,"noteNumber":42,"velocity":45,"programNumber":1},{"time":100494.79166666667,"duration":125,"noteNumber":42,"velocity":23,"programNumber":1},{"time":100494.79166666667,"duration":156.25,"noteNumber":38,"velocity":23,"programNumber":1},{"time":100619.79166666667,"duration":125,"noteNumber":42,"velocity":26,"programNumber":1},{"time":100619.79166666667,"duration":130.20833333332848,"noteNumber":36,"velocity":25,"programNumber":1},{"time":100744.79166666667,"duration":72.91666666665697,"noteNumber":38,"velocity":21,"programNumber":1},{"time":100744.79166666667,"duration":249.99999999998545,"noteNumber":42,"velocity":26,"programNumber":1},{"time":100994.79166666666,"duration":125,"noteNumber":42,"velocity":45,"programNumber":1},{"time":100994.79166666666,"duration":130.20833333332848,"noteNumber":36,"velocity":29,"programNumber":1},{"time":101119.79166666666,"duration":125,"noteNumber":42,"velocity":26,"programNumber":1},{"time":101244.79166666666,"duration":125,"noteNumber":42,"velocity":39,"programNumber":1},{"time":101244.79166666666,"duration":125,"noteNumber":36,"velocity":30,"programNumber":1},{"time":101369.79166666666,"duration":125,"noteNumber":42,"velocity":26,"programNumber":1},{"time":101494.79166666666,"duration":125,"noteNumber":42,"velocity":23,"programNumber":1},{"time":101494.79166666666,"duration":130.20833333332848,"noteNumber":38,"velocity":17,"programNumber":1},{"time":101619.79166666666,"duration":125,"noteNumber":42,"velocity":40,"programNumber":1},{"time":101619.79166666666,"duration":125,"noteNumber":36,"velocity":27,"programNumber":1},{"time":101744.79166666666,"duration":125,"noteNumber":38,"velocity":16,"programNumber":1},{"time":101744.79166666666,"duration":125,"noteNumber":42,"velocity":27,"programNumber":1},{"time":101869.79166666666,"duration":125,"noteNumber":42,"velocity":22,"programNumber":1},{"time":101869.79166666666,"duration":166.66666666667152,"noteNumber":38,"velocity":33,"programNumber":1},{"time":101994.79166666666,"duration":166.66666666667152,"noteNumber":36,"velocity":32,"programNumber":1},{"time":101994.79166666666,"duration":250,"noteNumber":42,"velocity":40,"programNumber":1},{"time":102244.79166666666,"duration":72.91666666667152,"noteNumber":36,"velocity":33,"programNumber":1},{"time":102244.79166666666,"duration":250,"noteNumber":42,"velocity":1,"programNumber":1},{"time":102494.79166666666,"duration":125,"noteNumber":42,"velocity":22,"programNumber":1},{"time":102494.79166666666,"duration":156.25,"noteNumber":38,"velocity":20,"programNumber":1},{"time":102619.79166666666,"duration":125,"noteNumber":42,"velocity":28,"programNumber":1},{"time":102619.79166666666,"duration":125,"noteNumber":36,"velocity":38,"programNumber":1},{"time":102744.79166666666,"duration":72.91666666667152,"noteNumber":38,"velocity":18,"programNumber":1},{"time":102744.79166666666,"duration":250,"noteNumber":42,"velocity":28,"programNumber":1},{"time":102994.79166666666,"duration":125,"noteNumber":42,"velocity":46,"programNumber":1},{"time":102994.79166666666,"duration":130.20833333332848,"noteNumber":36,"velocity":24,"programNumber":1},{"time":103119.79166666666,"duration":125,"noteNumber":42,"velocity":28,"programNumber":1},{"time":103244.79166666666,"duration":125,"noteNumber":36,"velocity":41,"programNumber":1},{"time":103244.79166666666,"duration":125,"noteNumber":42,"velocity":39,"programNumber":1},{"time":103369.79166666666,"duration":125,"noteNumber":42,"velocity":28,"programNumber":1},{"time":103494.79166666666,"duration":125,"noteNumber":42,"velocity":24,"programNumber":1},{"time":103494.79166666666,"duration":140.625,"noteNumber":38,"velocity":24,"programNumber":1},{"time":103619.79166666666,"duration":125,"noteNumber":42,"velocity":45,"programNumber":1},{"time":103619.79166666666,"duration":130.20833333332848,"noteNumber":36,"velocity":27,"programNumber":1},{"time":103744.79166666666,"duration":125,"noteNumber":38,"velocity":24,"programNumber":1},{"time":103744.79166666666,"duration":125,"noteNumber":42,"velocity":29,"programNumber":1},{"time":103869.79166666666,"duration":125,"noteNumber":42,"velocity":23,"programNumber":1},{"time":103869.79166666666,"duration":156.25,"noteNumber":38,"velocity":38,"programNumber":1},{"time":103994.79166666666,"duration":151.04166666667152,"noteNumber":36,"velocity":32,"programNumber":1},{"time":103994.79166666666,"duration":250,"noteNumber":42,"velocity":44,"programNumber":1},{"time":104244.79166666666,"duration":177.08333333332848,"noteNumber":36,"velocity":33,"programNumber":1},{"time":104244.79166666666,"duration":250,"noteNumber":42,"velocity":43,"programNumber":1},{"time":104494.79166666666,"duration":125,"noteNumber":42,"velocity":22,"programNumber":1},{"time":104494.79166666666,"duration":166.66666666667152,"noteNumber":38,"velocity":18,"programNumber":1},{"time":104619.79166666666,"duration":125,"noteNumber":42,"velocity":27,"programNumber":1},{"time":104619.79166666666,"duration":125,"noteNumber":36,"velocity":35,"programNumber":1},{"time":104744.79166666666,"duration":109.375,"noteNumber":38,"velocity":17,"programNumber":1},{"time":104744.79166666666,"duration":250,"noteNumber":42,"velocity":27,"programNumber":1},{"time":104994.79166666666,"duration":125,"noteNumber":36,"velocity":42,"programNumber":1},{"time":104994.79166666666,"duration":125,"noteNumber":42,"velocity":43,"programNumber":1},{"time":105119.79166666666,"duration":125,"noteNumber":42,"velocity":27,"programNumber":1},{"time":105244.79166666666,"duration":119.79166666667152,"noteNumber":36,"velocity":36,"programNumber":1},{"time":105244.79166666666,"duration":125,"noteNumber":42,"velocity":34,"programNumber":1},{"time":105369.79166666666,"duration":125,"noteNumber":42,"velocity":27,"programNumber":1},{"time":105494.79166666666,"duration":125,"noteNumber":42,"velocity":22,"programNumber":1},{"time":105494.79166666666,"duration":140.625,"noteNumber":38,"velocity":23,"programNumber":1},{"time":105619.79166666666,"duration":125,"noteNumber":42,"velocity":40,"programNumber":1},{"time":105619.79166666666,"duration":125,"noteNumber":36,"velocity":25,"programNumber":1},{"time":105744.79166666666,"duration":72.91666666667152,"noteNumber":38,"velocity":23,"programNumber":1},{"time":105744.79166666666,"duration":125,"noteNumber":42,"velocity":26,"programNumber":1},{"time":105869.79166666666,"duration":125,"noteNumber":42,"velocity":22,"programNumber":1},{"time":105869.79166666666,"duration":166.66666666667152,"noteNumber":38,"velocity":40,"programNumber":1},{"time":105994.79166666666,"duration":171.875,"noteNumber":36,"velocity":28,"programNumber":1},{"time":105994.79166666666,"duration":250,"noteNumber":42,"velocity":40,"programNumber":1},{"time":106244.79166666666,"duration":182.29166666667152,"noteNumber":36,"velocity":30,"programNumber":1},{"time":106244.79166666666,"duration":250,"noteNumber":42,"velocity":42,"programNumber":1},{"time":106494.79166666666,"duration":125,"noteNumber":42,"velocity":24,"programNumber":1},{"time":106494.79166666666,"duration":166.66666666667152,"noteNumber":38,"velocity":18,"programNumber":1},{"time":106619.79166666666,"duration":125,"noteNumber":42,"velocity":26,"programNumber":1},{"time":106619.79166666666,"duration":125,"noteNumber":36,"velocity":37,"programNumber":1},{"time":106744.79166666666,"duration":72.91666666667152,"noteNumber":38,"velocity":17,"programNumber":1},{"time":106744.79166666666,"duration":250,"noteNumber":42,"velocity":26,"programNumber":1},{"time":106994.79166666666,"duration":125,"noteNumber":42,"velocity":44,"programNumber":1},{"time":106994.79166666666,"duration":125,"noteNumber":36,"velocity":42,"programNumber":1},{"time":107119.79166666666,"duration":125,"noteNumber":42,"velocity":25,"programNumber":1},{"time":107244.79166666666,"duration":125,"noteNumber":42,"velocity":37,"programNumber":1},{"time":107244.79166666666,"duration":125,"noteNumber":36,"velocity":24,"programNumber":1},{"time":107369.79166666666,"duration":125,"noteNumber":42,"velocity":28,"programNumber":1},{"time":107494.79166666666,"duration":125,"noteNumber":42,"velocity":23,"programNumber":1},{"time":107494.79166666666,"duration":140.625,"noteNumber":38,"velocity":22,"programNumber":1},{"time":107619.79166666666,"duration":125,"noteNumber":42,"velocity":40,"programNumber":1},{"time":107619.79166666666,"duration":125,"noteNumber":36,"velocity":38,"programNumber":1},{"time":107744.79166666666,"duration":125,"noteNumber":38,"velocity":22,"programNumber":1},{"time":107744.79166666666,"duration":125,"noteNumber":42,"velocity":25,"programNumber":1},{"time":107869.79166666666,"duration":125,"noteNumber":42,"velocity":23,"programNumber":1},{"time":107869.79166666666,"duration":156.25,"noteNumber":38,"velocity":38,"programNumber":1},{"time":107994.79166666666,"duration":171.875,"noteNumber":36,"velocity":27,"programNumber":1},{"time":107994.79166666666,"duration":250,"noteNumber":42,"velocity":42,"programNumber":1},{"time":108244.79166666666,"duration":177.08333333332848,"noteNumber":36,"velocity":27,"programNumber":1},{"time":108244.79166666666,"duration":250,"noteNumber":42,"velocity":39,"programNumber":1},{"time":108494.79166666666,"duration":125,"noteNumber":42,"velocity":23,"programNumber":1},{"time":108494.79166666666,"duration":156.25,"noteNumber":38,"velocity":17,"programNumber":1},{"time":108619.79166666666,"duration":125,"noteNumber":42,"velocity":27,"programNumber":1},{"time":108619.79166666666,"duration":125,"noteNumber":36,"velocity":36,"programNumber":1},{"time":108744.79166666666,"duration":78.125,"noteNumber":38,"velocity":16,"programNumber":1},{"time":108744.79166666666,"duration":250,"noteNumber":42,"velocity":26,"programNumber":1},{"time":108994.79166666666,"duration":125,"noteNumber":42,"velocity":40,"programNumber":1},{"time":108994.79166666666,"duration":125,"noteNumber":36,"velocity":42,"programNumber":1},{"time":109119.79166666666,"duration":125,"noteNumber":42,"velocity":25,"programNumber":1},{"time":109244.79166666666,"duration":119.79166666667152,"noteNumber":36,"velocity":39,"programNumber":1},{"time":109244.79166666666,"duration":125,"noteNumber":42,"velocity":38,"programNumber":1},{"time":109369.79166666666,"duration":125,"noteNumber":42,"velocity":27,"programNumber":1},{"time":109494.79166666666,"duration":125,"noteNumber":42,"velocity":23,"programNumber":1},{"time":109494.79166666666,"duration":140.625,"noteNumber":38,"velocity":23,"programNumber":1},{"time":109619.79166666666,"duration":125,"noteNumber":42,"velocity":43,"programNumber":1},{"time":109619.79166666666,"duration":130.20833333332848,"noteNumber":36,"velocity":26,"programNumber":1},{"time":109744.79166666666,"duration":67.70833333332848,"noteNumber":38,"velocity":23,"programNumber":1},{"time":109744.79166666666,"duration":125,"noteNumber":42,"velocity":27,"programNumber":1},{"time":109869.79166666666,"duration":125,"noteNumber":42,"velocity":23,"programNumber":1},{"time":109869.79166666666,"duration":156.25,"noteNumber":38,"velocity":39,"programNumber":1},{"time":109994.79166666666,"duration":166.66666666667152,"noteNumber":36,"velocity":24,"programNumber":1},{"time":109994.79166666666,"duration":250,"noteNumber":42,"velocity":42,"programNumber":1},{"time":110244.79166666666,"duration":177.08333333332848,"noteNumber":36,"velocity":34,"programNumber":1},{"time":110244.79166666666,"duration":250,"noteNumber":42,"velocity":42,"programNumber":1},{"time":110494.79166666666,"duration":125,"noteNumber":42,"velocity":22,"programNumber":1},{"time":110494.79166666666,"duration":166.66666666667152,"noteNumber":38,"velocity":18,"programNumber":1},{"time":110619.79166666666,"duration":125,"noteNumber":42,"velocity":26,"programNumber":1},{"time":110619.79166666666,"duration":125,"noteNumber":36,"velocity":35,"programNumber":1},{"time":110744.79166666666,"duration":72.91666666667152,"noteNumber":38,"velocity":17,"programNumber":1},{"time":110744.79166666666,"duration":250,"noteNumber":42,"velocity":26,"programNumber":1},{"time":110994.79166666666,"duration":125,"noteNumber":42,"velocity":44,"programNumber":1},{"time":110994.79166666666,"duration":125,"noteNumber":36,"velocity":42,"programNumber":1},{"time":111119.79166666666,"duration":125,"noteNumber":42,"velocity":27,"programNumber":1},{"time":111244.79166666666,"duration":119.79166666667152,"noteNumber":36,"velocity":36,"programNumber":1},{"time":111244.79166666666,"duration":125,"noteNumber":42,"velocity":35,"programNumber":1},{"time":111369.79166666666,"duration":125,"noteNumber":42,"velocity":28,"programNumber":1},{"time":111494.79166666666,"duration":125,"noteNumber":42,"velocity":23,"programNumber":1},{"time":111494.79166666666,"duration":166.66666666667152,"noteNumber":38,"velocity":25,"programNumber":1},{"time":111619.79166666666,"duration":125,"noteNumber":42,"velocity":42,"programNumber":1},{"time":111619.79166666666,"duration":130.20833333332848,"noteNumber":36,"velocity":24,"programNumber":1},{"time":111744.79166666666,"duration":57.291666666656965,"noteNumber":38,"velocity":30,"programNumber":1},{"time":111744.79166666666,"duration":124.99999999998545,"noteNumber":42,"velocity":26,"programNumber":1},{"time":111869.79166666664,"duration":125,"noteNumber":42,"velocity":23,"programNumber":1},{"time":111869.79166666664,"duration":145.83333333332848,"noteNumber":38,"velocity":34,"programNumber":1},{"time":111994.79166666664,"duration":171.875,"noteNumber":36,"velocity":30,"programNumber":1},{"time":111994.79166666664,"duration":250,"noteNumber":42,"velocity":40,"programNumber":1},{"time":112244.79166666664,"duration":182.29166666667152,"noteNumber":36,"velocity":30,"programNumber":1},{"time":112244.79166666664,"duration":250,"noteNumber":42,"velocity":44,"programNumber":1},{"time":112494.79166666664,"duration":125,"noteNumber":42,"velocity":23,"programNumber":1},{"time":112494.79166666664,"duration":156.25,"noteNumber":38,"velocity":18,"programNumber":1},{"time":112619.79166666664,"duration":125,"noteNumber":42,"velocity":28,"programNumber":1},{"time":112619.79166666664,"duration":125,"noteNumber":36,"velocity":39,"programNumber":1},{"time":112744.79166666664,"duration":72.91666666667152,"noteNumber":38,"velocity":17,"programNumber":1},{"time":112744.79166666664,"duration":250,"noteNumber":42,"velocity":27,"programNumber":1},{"time":112994.79166666664,"duration":125,"noteNumber":42,"velocity":47,"programNumber":1},{"time":112994.79166666664,"duration":130.20833333332848,"noteNumber":36,"velocity":24,"programNumber":1},{"time":113119.79166666664,"duration":125,"noteNumber":42,"velocity":28,"programNumber":1},{"time":113244.79166666664,"duration":125,"noteNumber":42,"velocity":41,"programNumber":1},{"time":113244.79166666664,"duration":125,"noteNumber":36,"velocity":25,"programNumber":1},{"time":113369.79166666664,"duration":125,"noteNumber":42,"velocity":29,"programNumber":1},{"time":113494.79166666664,"duration":140.625,"noteNumber":38,"velocity":23,"programNumber":1},{"time":113494.79166666664,"duration":177.08333333332848,"noteNumber":42,"velocity":23,"programNumber":1},{"time":113619.79166666664,"duration":67.70833333332848,"noteNumber":36,"velocity":41,"programNumber":1},{"time":113744.79166666664,"duration":125,"noteNumber":38,"velocity":18,"programNumber":1},{"time":113744.79166666664,"duration":125,"noteNumber":42,"velocity":27,"programNumber":1},{"time":113869.79166666664,"duration":125,"noteNumber":42,"velocity":23,"programNumber":1},{"time":113869.79166666664,"duration":166.66666666667152,"noteNumber":38,"velocity":37,"programNumber":1},{"time":113994.79166666664,"duration":171.875,"noteNumber":36,"velocity":40,"programNumber":1},{"time":113994.79166666664,"duration":250,"noteNumber":42,"velocity":39,"programNumber":1},{"time":114244.79166666664,"duration":177.08333333332848,"noteNumber":36,"velocity":40,"programNumber":1},{"time":114244.79166666664,"duration":250,"noteNumber":42,"velocity":42,"programNumber":1},{"time":114494.79166666664,"duration":125,"noteNumber":42,"velocity":22,"programNumber":1},{"time":114494.79166666664,"duration":156.25,"noteNumber":38,"velocity":28,"programNumber":1},{"time":114619.79166666664,"duration":125,"noteNumber":42,"velocity":27,"programNumber":1},{"time":114619.79166666664,"duration":125,"noteNumber":36,"velocity":31,"programNumber":1},{"time":114744.79166666664,"duration":109.375,"noteNumber":38,"velocity":25,"programNumber":1},{"time":114744.79166666664,"duration":250,"noteNumber":42,"velocity":25,"programNumber":1},{"time":114994.79166666664,"duration":125,"noteNumber":36,"velocity":37,"programNumber":1},{"time":114994.79166666664,"duration":125,"noteNumber":42,"velocity":44,"programNumber":1},{"time":115119.79166666664,"duration":125,"noteNumber":42,"velocity":28,"programNumber":1},{"time":115244.79166666664,"duration":125,"noteNumber":36,"velocity":35,"programNumber":1},{"time":115244.79166666664,"duration":125,"noteNumber":42,"velocity":39,"programNumber":1},{"time":115369.79166666664,"duration":125,"noteNumber":42,"velocity":28,"programNumber":1},{"time":115494.79166666664,"duration":125,"noteNumber":42,"velocity":22,"programNumber":1},{"time":115494.79166666664,"duration":130.20833333332848,"noteNumber":38,"velocity":16,"programNumber":1},{"time":115619.79166666664,"duration":125,"noteNumber":42,"velocity":42,"programNumber":1},{"time":115619.79166666664,"duration":125,"noteNumber":36,"velocity":42,"programNumber":1},{"time":115744.79166666664,"duration":125,"noteNumber":38,"velocity":19,"programNumber":1},{"time":115744.79166666664,"duration":125,"noteNumber":42,"velocity":26,"programNumber":1},{"time":115869.79166666664,"duration":125,"noteNumber":42,"velocity":24,"programNumber":1},{"time":115869.79166666664,"duration":156.25,"noteNumber":38,"velocity":39,"programNumber":1},{"time":115994.79166666664,"duration":171.875,"noteNumber":36,"velocity":38,"programNumber":1},{"time":115994.79166666664,"duration":250,"noteNumber":42,"velocity":43,"programNumber":1},{"time":116244.79166666664,"duration":182.29166666667152,"noteNumber":36,"velocity":28,"programNumber":1},{"time":116244.79166666664,"duration":250,"noteNumber":42,"velocity":45,"programNumber":1},{"time":116494.79166666664,"duration":125,"noteNumber":42,"velocity":22,"programNumber":1},{"time":116494.79166666664,"duration":156.25,"noteNumber":38,"velocity":28,"programNumber":1},{"time":116619.79166666664,"duration":125,"noteNumber":42,"velocity":28,"programNumber":1},{"time":116619.79166666664,"duration":125,"noteNumber":36,"velocity":29,"programNumber":1},{"time":116744.79166666664,"duration":109.375,"noteNumber":38,"velocity":25,"programNumber":1},{"time":116744.79166666664,"duration":250,"noteNumber":42,"velocity":26,"programNumber":1},{"time":116994.79166666664,"duration":125,"noteNumber":42,"velocity":44,"programNumber":1},{"time":116994.79166666664,"duration":125,"noteNumber":36,"velocity":35,"programNumber":1},{"time":117119.79166666664,"duration":125,"noteNumber":42,"velocity":27,"programNumber":1},{"time":117244.79166666664,"duration":125,"noteNumber":42,"velocity":36,"programNumber":1},{"time":117244.79166666664,"duration":125,"noteNumber":36,"velocity":31,"programNumber":1},{"time":117369.79166666664,"duration":125,"noteNumber":42,"velocity":28,"programNumber":1},{"time":117494.79166666664,"duration":125,"noteNumber":42,"velocity":21,"programNumber":1},{"time":117494.79166666664,"duration":130.20833333332848,"noteNumber":38,"velocity":18,"programNumber":1},{"time":117619.79166666664,"duration":125,"noteNumber":42,"velocity":45,"programNumber":1},{"time":117619.79166666664,"duration":125,"noteNumber":36,"velocity":38,"programNumber":1},{"time":117744.79166666664,"duration":72.91666666667152,"noteNumber":38,"velocity":20,"programNumber":1},{"time":117744.79166666664,"duration":125,"noteNumber":42,"velocity":26,"programNumber":1},{"time":117869.79166666664,"duration":125,"noteNumber":42,"velocity":22,"programNumber":1},{"time":117869.79166666664,"duration":166.66666666667152,"noteNumber":38,"velocity":37,"programNumber":1},{"time":117994.79166666664,"duration":171.875,"noteNumber":36,"velocity":24,"programNumber":1},{"time":117994.79166666664,"duration":250,"noteNumber":42,"velocity":44,"programNumber":1},{"time":118244.79166666664,"duration":182.29166666667152,"noteNumber":36,"velocity":25,"programNumber":1},{"time":118244.79166666664,"duration":250,"noteNumber":42,"velocity":42,"programNumber":1},{"time":118494.79166666664,"duration":125,"noteNumber":42,"velocity":23,"programNumber":1},{"time":118494.79166666664,"duration":156.25,"noteNumber":38,"velocity":28,"programNumber":1},{"time":118619.79166666664,"duration":125,"noteNumber":42,"velocity":28,"programNumber":1},{"time":118619.79166666664,"duration":125,"noteNumber":36,"velocity":31,"programNumber":1},{"time":118744.79166666664,"duration":109.375,"noteNumber":38,"velocity":25,"programNumber":1},{"time":118744.79166666664,"duration":250,"noteNumber":42,"velocity":26,"programNumber":1},{"time":118994.79166666664,"duration":125,"noteNumber":42,"velocity":44,"programNumber":1},{"time":118994.79166666664,"duration":125,"noteNumber":36,"velocity":36,"programNumber":1},{"time":119119.79166666664,"duration":125,"noteNumber":42,"velocity":28,"programNumber":1},{"time":119244.79166666664,"duration":125,"noteNumber":42,"velocity":41,"programNumber":1},{"time":119244.79166666664,"duration":125,"noteNumber":36,"velocity":38,"programNumber":1},{"time":119369.79166666664,"duration":125,"noteNumber":42,"velocity":27,"programNumber":1},{"time":119494.79166666664,"duration":125,"noteNumber":42,"velocity":23,"programNumber":1},{"time":119494.79166666664,"duration":130.20833333332848,"noteNumber":38,"velocity":16,"programNumber":1},{"time":119619.79166666664,"duration":125,"noteNumber":42,"velocity":41,"programNumber":1},{"time":119619.79166666664,"duration":125,"noteNumber":36,"velocity":34,"programNumber":1},{"time":119744.79166666664,"duration":125,"noteNumber":38,"velocity":19,"programNumber":1},{"time":119744.79166666664,"duration":125,"noteNumber":42,"velocity":27,"programNumber":1},{"time":119869.79166666664,"duration":125,"noteNumber":42,"velocity":22,"programNumber":1},{"time":119869.79166666664,"duration":166.66666666667152,"noteNumber":38,"velocity":35,"programNumber":1},{"time":119994.79166666664,"duration":156.25,"noteNumber":36,"velocity":39,"programNumber":1},{"time":119994.79166666664,"duration":250,"noteNumber":42,"velocity":40,"programNumber":1},{"time":120244.79166666664,"duration":177.08333333332848,"noteNumber":36,"velocity":40,"programNumber":1},{"time":120244.79166666664,"duration":250,"noteNumber":42,"velocity":40,"programNumber":1},{"time":120494.79166666664,"duration":125,"noteNumber":42,"velocity":21,"programNumber":1},{"time":120494.79166666664,"duration":156.25,"noteNumber":38,"velocity":27,"programNumber":1},{"time":120619.79166666664,"duration":125,"noteNumber":42,"velocity":27,"programNumber":1},{"time":120619.79166666664,"duration":125,"noteNumber":36,"velocity":29,"programNumber":1},{"time":120744.79166666664,"duration":109.375,"noteNumber":38,"velocity":24,"programNumber":1},{"time":120744.79166666664,"duration":250,"noteNumber":42,"velocity":27,"programNumber":1},{"time":120994.79166666664,"duration":125,"noteNumber":42,"velocity":43,"programNumber":1},{"time":120994.79166666664,"duration":125,"noteNumber":36,"velocity":35,"programNumber":1},{"time":121119.79166666664,"duration":125,"noteNumber":42,"velocity":26,"programNumber":1},{"time":121244.79166666664,"duration":125,"noteNumber":42,"velocity":36,"programNumber":1},{"time":121244.79166666664,"duration":125,"noteNumber":36,"velocity":33,"programNumber":1},{"time":121369.79166666664,"duration":125,"noteNumber":42,"velocity":26,"programNumber":1},{"time":121494.79166666664,"duration":125,"noteNumber":42,"velocity":23,"programNumber":1},{"time":121494.79166666664,"duration":130.20833333332848,"noteNumber":38,"velocity":16,"programNumber":1},{"time":121619.79166666664,"duration":125,"noteNumber":36,"velocity":41,"programNumber":1},{"time":121619.79166666664,"duration":125,"noteNumber":42,"velocity":41,"programNumber":1},{"time":121744.79166666664,"duration":125,"noteNumber":38,"velocity":19,"programNumber":1},{"time":121744.79166666664,"duration":125,"noteNumber":42,"velocity":27,"programNumber":1},{"time":121869.79166666664,"duration":125,"noteNumber":42,"velocity":21,"programNumber":1},{"time":121869.79166666664,"duration":156.25,"noteNumber":38,"velocity":37,"programNumber":1},{"time":121994.79166666664,"duration":156.25,"noteNumber":36,"velocity":37,"programNumber":1},{"time":121994.79166666664,"duration":250,"noteNumber":42,"velocity":40,"programNumber":1},{"time":122244.79166666664,"duration":182.29166666667152,"noteNumber":36,"velocity":27,"programNumber":1},{"time":122244.79166666664,"duration":250,"noteNumber":42,"velocity":43,"programNumber":1},{"time":122494.79166666664,"duration":125,"noteNumber":42,"velocity":21,"programNumber":1},{"time":122494.79166666664,"duration":156.25,"noteNumber":38,"velocity":28,"programNumber":1},{"time":122619.79166666664,"duration":125,"noteNumber":42,"velocity":27,"programNumber":1},{"time":122619.79166666664,"duration":125,"noteNumber":36,"velocity":28,"programNumber":1},{"time":122744.79166666664,"duration":109.375,"noteNumber":38,"velocity":24,"programNumber":1},{"time":122744.79166666664,"duration":250,"noteNumber":42,"velocity":26,"programNumber":1},{"time":122994.79166666664,"duration":125,"noteNumber":42,"velocity":47,"programNumber":1},{"time":122994.79166666664,"duration":125,"noteNumber":36,"velocity":35,"programNumber":1},{"time":123119.79166666664,"duration":125,"noteNumber":42,"velocity":24,"programNumber":1},{"time":123244.79166666664,"duration":125,"noteNumber":42,"velocity":36,"programNumber":1},{"time":123244.79166666664,"duration":125,"noteNumber":36,"velocity":30,"programNumber":1},{"time":123369.79166666664,"duration":125,"noteNumber":42,"velocity":28,"programNumber":1},{"time":123494.79166666664,"duration":125,"noteNumber":42,"velocity":22,"programNumber":1},{"time":123494.79166666664,"duration":130.20833333332848,"noteNumber":38,"velocity":16,"programNumber":1},{"time":123619.79166666664,"duration":125,"noteNumber":42,"velocity":40,"programNumber":1},{"time":123619.79166666664,"duration":125,"noteNumber":36,"velocity":37,"programNumber":1},{"time":123744.79166666664,"duration":125,"noteNumber":38,"velocity":17,"programNumber":1},{"time":123744.79166666664,"duration":125,"noteNumber":42,"velocity":29,"programNumber":1},{"time":123869.79166666664,"duration":125,"noteNumber":42,"velocity":22,"programNumber":1},{"time":123869.79166666664,"duration":156.25,"noteNumber":38,"velocity":36,"programNumber":1},{"time":123994.79166666664,"duration":171.875,"noteNumber":36,"velocity":43,"programNumber":1},{"time":123994.79166666664,"duration":250,"noteNumber":42,"velocity":43,"programNumber":1},{"time":124244.79166666664,"duration":182.29166666667152,"noteNumber":36,"velocity":24,"programNumber":1},{"time":124244.79166666664,"duration":250,"noteNumber":42,"velocity":42,"programNumber":1},{"time":124494.79166666664,"duration":125,"noteNumber":42,"velocity":22,"programNumber":1},{"time":124494.79166666664,"duration":156.25,"noteNumber":38,"velocity":28,"programNumber":1},{"time":124619.79166666664,"duration":125,"noteNumber":42,"velocity":26,"programNumber":1},{"time":124619.79166666664,"duration":125,"noteNumber":36,"velocity":31,"programNumber":1},{"time":124744.79166666664,"duration":109.375,"noteNumber":38,"velocity":26,"programNumber":1},{"time":124744.79166666664,"duration":296.875,"noteNumber":42,"velocity":25,"programNumber":1},{"time":124994.79166666664,"duration":67.70833333332848,"noteNumber":36,"velocity":35,"programNumber":1},{"time":125119.79166666664,"duration":125,"noteNumber":42,"velocity":29,"programNumber":1},{"time":125244.79166666664,"duration":125,"noteNumber":42,"velocity":37,"programNumber":1},{"time":125244.79166666664,"duration":125,"noteNumber":36,"velocity":30,"programNumber":1},{"time":125369.79166666664,"duration":125,"noteNumber":42,"velocity":28,"programNumber":1},{"time":125494.79166666664,"duration":125,"noteNumber":42,"velocity":22,"programNumber":1},{"time":125494.79166666664,"duration":145.83333333332848,"noteNumber":38,"velocity":32,"programNumber":1},{"time":125619.79166666664,"duration":125,"noteNumber":42,"velocity":41,"programNumber":1},{"time":125619.79166666664,"duration":125,"noteNumber":36,"velocity":27,"programNumber":1},{"time":125744.79166666664,"duration":104.16666666667152,"noteNumber":38,"velocity":26,"programNumber":1},{"time":125744.79166666664,"duration":125,"noteNumber":42,"velocity":27,"programNumber":1},{"time":125869.79166666664,"duration":125,"noteNumber":42,"velocity":22,"programNumber":1},{"time":125869.79166666664,"duration":156.25,"noteNumber":38,"velocity":41,"programNumber":1},{"time":125994.79166666664,"duration":166.66666666667152,"noteNumber":36,"velocity":32,"programNumber":1},{"time":125994.79166666664,"duration":250,"noteNumber":42,"velocity":41,"programNumber":1},{"time":126244.79166666664,"duration":177.08333333332848,"noteNumber":36,"velocity":34,"programNumber":1},{"time":126244.79166666664,"duration":250,"noteNumber":42,"velocity":44,"programNumber":1},{"time":126494.79166666664,"duration":109.375,"noteNumber":38,"velocity":22,"programNumber":1},{"time":126494.79166666664,"duration":125,"noteNumber":42,"velocity":22,"programNumber":1},{"time":126619.79166666664,"duration":125,"noteNumber":42,"velocity":26,"programNumber":1},{"time":126619.79166666664,"duration":125,"noteNumber":36,"velocity":42,"programNumber":1},{"time":126744.79166666664,"duration":109.375,"noteNumber":38,"velocity":21,"programNumber":1},{"time":126744.79166666664,"duration":250,"noteNumber":42,"velocity":27,"programNumber":1},{"time":126994.79166666664,"duration":125,"noteNumber":42,"velocity":44,"programNumber":1},{"time":126994.79166666664,"duration":130.20833333332848,"noteNumber":36,"velocity":29,"programNumber":1},{"time":127119.79166666664,"duration":125,"noteNumber":42,"velocity":27,"programNumber":1},{"time":127244.79166666664,"duration":125,"noteNumber":42,"velocity":36,"programNumber":1},{"time":127244.79166666664,"duration":125,"noteNumber":36,"velocity":28,"programNumber":1},{"time":127369.79166666664,"duration":125,"noteNumber":42,"velocity":26,"programNumber":1},{"time":127494.79166666664,"duration":125,"noteNumber":42,"velocity":22,"programNumber":1},{"time":127619.79166666664,"duration":125,"noteNumber":42,"velocity":43,"programNumber":1},{"time":127619.79166666664,"duration":125,"noteNumber":36,"velocity":33,"programNumber":1},{"time":127744.79166666664,"duration":67.70833333332848,"noteNumber":38,"velocity":24,"programNumber":1},{"time":127744.79166666664,"duration":125,"noteNumber":42,"velocity":27,"programNumber":1},{"time":127869.79166666664,"duration":125,"noteNumber":42,"velocity":22,"programNumber":1},{"time":127869.79166666664,"duration":156.25,"noteNumber":38,"velocity":41,"programNumber":1},{"time":127994.79166666664,"duration":171.875,"noteNumber":36,"velocity":30,"programNumber":1},{"time":127994.79166666664,"duration":250,"noteNumber":42,"velocity":42,"programNumber":1},{"time":128244.79166666664,"duration":177.08333333332848,"noteNumber":36,"velocity":41,"programNumber":1},{"time":128244.79166666664,"duration":250,"noteNumber":42,"velocity":44,"programNumber":1},{"time":128494.79166666664,"duration":125,"noteNumber":42,"velocity":22,"programNumber":1},{"time":128494.79166666664,"duration":156.25,"noteNumber":38,"velocity":21,"programNumber":1},{"time":128619.79166666664,"duration":125,"noteNumber":42,"velocity":27,"programNumber":1},{"time":128619.79166666664,"duration":125,"noteNumber":36,"velocity":40,"programNumber":1},{"time":128744.79166666664,"duration":72.91666666667152,"noteNumber":38,"velocity":21,"programNumber":1},{"time":128744.79166666664,"duration":250,"noteNumber":42,"velocity":27,"programNumber":1},{"time":128994.79166666664,"duration":125,"noteNumber":42,"velocity":42,"programNumber":1},{"time":128994.79166666664,"duration":130.20833333332848,"noteNumber":36,"velocity":29,"programNumber":1},{"time":129119.79166666664,"duration":125,"noteNumber":42,"velocity":27,"programNumber":1},{"time":129244.79166666664,"duration":125,"noteNumber":42,"velocity":39,"programNumber":1},{"time":129244.79166666664,"duration":125,"noteNumber":36,"velocity":25,"programNumber":1},{"time":129369.79166666664,"duration":125,"noteNumber":42,"velocity":28,"programNumber":1},{"time":129494.79166666664,"duration":125,"noteNumber":42,"velocity":23,"programNumber":1},{"time":129494.79166666664,"duration":135.41666666667152,"noteNumber":38,"velocity":20,"programNumber":1},{"time":129619.79166666664,"duration":125,"noteNumber":42,"velocity":43,"programNumber":1},{"time":129619.79166666664,"duration":125,"noteNumber":36,"velocity":30,"programNumber":1},{"time":129744.79166666664,"duration":67.70833333332848,"noteNumber":38,"velocity":25,"programNumber":1},{"time":129744.79166666664,"duration":125,"noteNumber":42,"velocity":27,"programNumber":1},{"time":129869.79166666664,"duration":125,"noteNumber":42,"velocity":21,"programNumber":1},{"time":129869.79166666664,"duration":156.25,"noteNumber":38,"velocity":43,"programNumber":1},{"time":129994.79166666664,"duration":171.875,"noteNumber":36,"velocity":37,"programNumber":1},{"time":129994.79166666664,"duration":250,"noteNumber":42,"velocity":42,"programNumber":1},{"time":130244.79166666664,"duration":177.08333333332848,"noteNumber":36,"velocity":37,"programNumber":1},{"time":130244.79166666664,"duration":250,"noteNumber":42,"velocity":44,"programNumber":1},{"time":130494.79166666664,"duration":125,"noteNumber":42,"velocity":26,"programNumber":1},{"time":130494.79166666664,"duration":156.25,"noteNumber":38,"velocity":24,"programNumber":1},{"time":130619.79166666664,"duration":125,"noteNumber":42,"velocity":26,"programNumber":1},{"time":130619.79166666664,"duration":130.20833333332848,"noteNumber":36,"velocity":25,"programNumber":1},{"time":130744.79166666664,"duration":72.91666666665697,"noteNumber":38,"velocity":20,"programNumber":1},{"time":130744.79166666664,"duration":249.99999999998545,"noteNumber":42,"velocity":28,"programNumber":1},{"time":130994.79166666663,"duration":125,"noteNumber":42,"velocity":45,"programNumber":1},{"time":130994.79166666663,"duration":130.20833333334303,"noteNumber":36,"velocity":29,"programNumber":1},{"time":131119.79166666663,"duration":125,"noteNumber":42,"velocity":29,"programNumber":1},{"time":131244.79166666663,"duration":119.79166666665697,"noteNumber":36,"velocity":40,"programNumber":1},{"time":131244.79166666663,"duration":125,"noteNumber":42,"velocity":37,"programNumber":1},{"time":131369.79166666663,"duration":125,"noteNumber":42,"velocity":30,"programNumber":1},{"time":131494.79166666663,"duration":125,"noteNumber":42,"velocity":24,"programNumber":1},{"time":131494.79166666663,"duration":130.20833333334303,"noteNumber":38,"velocity":21,"programNumber":1},{"time":131619.79166666663,"duration":125,"noteNumber":42,"velocity":42,"programNumber":1},{"time":131619.79166666663,"duration":125,"noteNumber":36,"velocity":28,"programNumber":1},{"time":131744.79166666663,"duration":104.16666666665697,"noteNumber":38,"velocity":25,"programNumber":1},{"time":131744.79166666663,"duration":125,"noteNumber":42,"velocity":27,"programNumber":1},{"time":131869.79166666663,"duration":125,"noteNumber":42,"velocity":20,"programNumber":1},{"time":131869.79166666663,"duration":151.04166666665697,"noteNumber":38,"velocity":43,"programNumber":1},{"time":131994.79166666663,"duration":171.875,"noteNumber":36,"velocity":33,"programNumber":1},{"time":131994.79166666663,"duration":250,"noteNumber":42,"velocity":41,"programNumber":1},{"time":132244.79166666663,"duration":182.29166666665697,"noteNumber":36,"velocity":34,"programNumber":1},{"time":132244.79166666663,"duration":250,"noteNumber":42,"velocity":41,"programNumber":1},{"time":132494.79166666663,"duration":125,"noteNumber":42,"velocity":22,"programNumber":1},{"time":132494.79166666663,"duration":156.25,"noteNumber":38,"velocity":22,"programNumber":1},{"time":132619.79166666663,"duration":125,"noteNumber":42,"velocity":28,"programNumber":1},{"time":132619.79166666663,"duration":130.20833333334303,"noteNumber":36,"velocity":24,"programNumber":1},{"time":132744.79166666663,"duration":67.70833333334303,"noteNumber":38,"velocity":21,"programNumber":1},{"time":132744.79166666663,"duration":250,"noteNumber":42,"velocity":27,"programNumber":1},{"time":132994.79166666663,"duration":125,"noteNumber":42,"velocity":44,"programNumber":1},{"time":132994.79166666663,"duration":130.20833333334303,"noteNumber":36,"velocity":28,"programNumber":1},{"time":133119.79166666663,"duration":125,"noteNumber":42,"velocity":27,"programNumber":1},{"time":133244.79166666663,"duration":125,"noteNumber":42,"velocity":40,"programNumber":1},{"time":133244.79166666663,"duration":125,"noteNumber":36,"velocity":30,"programNumber":1},{"time":133369.79166666663,"duration":125,"noteNumber":42,"velocity":27,"programNumber":1},{"time":133494.79166666663,"duration":125,"noteNumber":42,"velocity":23,"programNumber":1},{"time":133619.79166666663,"duration":125,"noteNumber":42,"velocity":44,"programNumber":1},{"time":133619.79166666663,"duration":130.20833333334303,"noteNumber":36,"velocity":27,"programNumber":1},{"time":133744.79166666663,"duration":72.91666666668607,"noteNumber":38,"velocity":15,"programNumber":1},{"time":133744.79166666663,"duration":125.0000000000291,"noteNumber":42,"velocity":30,"programNumber":1},{"time":133869.79166666666,"duration":125,"noteNumber":42,"velocity":23,"programNumber":1},{"time":133869.79166666666,"duration":156.25,"noteNumber":38,"velocity":34,"programNumber":1},{"time":133994.79166666666,"duration":166.66666666665697,"noteNumber":36,"velocity":33,"programNumber":1},{"time":133994.79166666666,"duration":250,"noteNumber":42,"velocity":42,"programNumber":1},{"time":134244.79166666666,"duration":177.08333333334303,"noteNumber":36,"velocity":31,"programNumber":1},{"time":134244.79166666666,"duration":250,"noteNumber":42,"velocity":41,"programNumber":1},{"time":134494.79166666666,"duration":109.375,"noteNumber":38,"velocity":24,"programNumber":1},{"time":134494.79166666666,"duration":125,"noteNumber":42,"velocity":22,"programNumber":1},{"time":134619.79166666666,"duration":125,"noteNumber":42,"velocity":27,"programNumber":1},{"time":134619.79166666666,"duration":125,"noteNumber":36,"velocity":40,"programNumber":1},{"time":134744.79166666666,"duration":72.91666666665697,"noteNumber":38,"velocity":21,"programNumber":1},{"time":134744.79166666666,"duration":250,"noteNumber":42,"velocity":26,"programNumber":1},{"time":134994.79166666666,"duration":125,"noteNumber":42,"velocity":43,"programNumber":1},{"time":134994.79166666666,"duration":130.20833333334303,"noteNumber":36,"velocity":28,"programNumber":1},{"time":135119.79166666666,"duration":125,"noteNumber":42,"velocity":27,"programNumber":1},{"time":135244.79166666666,"duration":125,"noteNumber":36,"velocity":24,"programNumber":1},{"time":135244.79166666666,"duration":125,"noteNumber":42,"velocity":37,"programNumber":1},{"time":135369.79166666666,"duration":125,"noteNumber":42,"velocity":26,"programNumber":1},{"time":135494.79166666666,"duration":125,"noteNumber":42,"velocity":22,"programNumber":1},{"time":135494.79166666666,"duration":135.41666666665697,"noteNumber":38,"velocity":20,"programNumber":1},{"time":135619.79166666666,"duration":125,"noteNumber":42,"velocity":45,"programNumber":1},{"time":135619.79166666666,"duration":125,"noteNumber":36,"velocity":31,"programNumber":1},{"time":135744.79166666666,"duration":67.70833333334303,"noteNumber":38,"velocity":25,"programNumber":1},{"time":135744.79166666666,"duration":125,"noteNumber":42,"velocity":26,"programNumber":1},{"time":135869.79166666666,"duration":125,"noteNumber":42,"velocity":22,"programNumber":1},{"time":135869.79166666666,"duration":151.04166666665697,"noteNumber":38,"velocity":41,"programNumber":1},{"time":135994.79166666666,"duration":166.66666666665697,"noteNumber":36,"velocity":36,"programNumber":1},{"time":135994.79166666666,"duration":250,"noteNumber":42,"velocity":43,"programNumber":1},{"time":136244.79166666666,"duration":166.66666666665697,"noteNumber":42,"velocity":42,"programNumber":1},{"time":136244.79166666666,"duration":177.08333333331393,"noteNumber":36,"velocity":38,"programNumber":1},{"time":136494.79166666663,"duration":125,"noteNumber":42,"velocity":22,"programNumber":1},{"time":136494.79166666663,"duration":156.25,"noteNumber":38,"velocity":29,"programNumber":1},{"time":136619.79166666663,"duration":119.79166666665697,"noteNumber":36,"velocity":49,"programNumber":1},{"time":136619.79166666663,"duration":125,"noteNumber":42,"velocity":27,"programNumber":1},{"time":136744.79166666663,"duration":104.16666666665697,"noteNumber":38,"velocity":26,"programNumber":1},{"time":136744.79166666663,"duration":250,"noteNumber":42,"velocity":27,"programNumber":1},{"time":136994.79166666663,"duration":119.79166666665697,"noteNumber":36,"velocity":36,"programNumber":1},{"time":136994.79166666663,"duration":125,"noteNumber":42,"velocity":41,"programNumber":1},{"time":137119.79166666663,"duration":125,"noteNumber":42,"velocity":26,"programNumber":1},{"time":137244.79166666663,"duration":119.79166666665697,"noteNumber":36,"velocity":32,"programNumber":1},{"time":137244.79166666663,"duration":125,"noteNumber":42,"velocity":35,"programNumber":1},{"time":137369.79166666663,"duration":125,"noteNumber":42,"velocity":26,"programNumber":1},{"time":137494.79166666663,"duration":67.70833333334303,"noteNumber":38,"velocity":23,"programNumber":1},{"time":137494.79166666663,"duration":125,"noteNumber":42,"velocity":21,"programNumber":1},{"time":137619.79166666663,"duration":119.79166666665697,"noteNumber":36,"velocity":38,"programNumber":1},{"time":137619.79166666663,"duration":125,"noteNumber":42,"velocity":39,"programNumber":1},{"time":137744.79166666663,"duration":93.75,"noteNumber":38,"velocity":32,"programNumber":1},{"time":137744.79166666663,"duration":125,"noteNumber":42,"velocity":25,"programNumber":1},{"time":137869.79166666663,"duration":125,"noteNumber":42,"velocity":22,"programNumber":1},{"time":137994.79166666663,"duration":145.83333333334303,"noteNumber":36,"velocity":43,"programNumber":1},{"time":137994.79166666663,"duration":250,"noteNumber":42,"velocity":39,"programNumber":1},{"time":138244.79166666663,"duration":166.66666666665697,"noteNumber":36,"velocity":44,"programNumber":1},{"time":138244.79166666663,"duration":250,"noteNumber":42,"velocity":39,"programNumber":1},{"time":138494.79166666663,"duration":62.5,"noteNumber":38,"velocity":28,"programNumber":1},{"time":138494.79166666663,"duration":125,"noteNumber":42,"velocity":21,"programNumber":1},{"time":138619.79166666663,"duration":125,"noteNumber":42,"velocity":26,"programNumber":1},{"time":138619.79166666663,"duration":125,"noteNumber":36,"velocity":34,"programNumber":1},{"time":138744.79166666663,"duration":67.70833333334303,"noteNumber":38,"velocity":24,"programNumber":1},{"time":138744.79166666663,"duration":250,"noteNumber":42,"velocity":25,"programNumber":1},{"time":138994.79166666663,"duration":125,"noteNumber":42,"velocity":38,"programNumber":1},{"time":138994.79166666663,"duration":125,"noteNumber":36,"velocity":36,"programNumber":1},{"time":139119.79166666663,"duration":125,"noteNumber":42,"velocity":25,"programNumber":1},{"time":139244.79166666663,"duration":119.79166666665697,"noteNumber":36,"velocity":37,"programNumber":1},{"time":139244.79166666663,"duration":125,"noteNumber":42,"velocity":37,"programNumber":1},{"time":139369.79166666663,"duration":125,"noteNumber":42,"velocity":25,"programNumber":1},{"time":139494.79166666663,"duration":125,"noteNumber":42,"velocity":22,"programNumber":1},{"time":139494.79166666663,"duration":166.66666666665697,"noteNumber":38,"velocity":24,"programNumber":1},{"time":139619.79166666663,"duration":119.79166666665697,"noteNumber":36,"velocity":34,"programNumber":1},{"time":139619.79166666663,"duration":125,"noteNumber":42,"velocity":38,"programNumber":1},{"time":139744.79166666663,"duration":93.75,"noteNumber":38,"velocity":31,"programNumber":1},{"time":139744.79166666663,"duration":125,"noteNumber":42,"velocity":26,"programNumber":1},{"time":139869.79166666663,"duration":125,"noteNumber":42,"velocity":21,"programNumber":1},{"time":139869.79166666663,"duration":145.83333333334303,"noteNumber":38,"velocity":33,"programNumber":1},{"time":139994.79166666663,"duration":145.83333333334303,"noteNumber":36,"velocity":39,"programNumber":1},{"time":139994.79166666663,"duration":250,"noteNumber":42,"velocity":39,"programNumber":1},{"time":140244.79166666663,"duration":166.66666666665697,"noteNumber":36,"velocity":40,"programNumber":1},{"time":140244.79166666663,"duration":250,"noteNumber":42,"velocity":39,"programNumber":1},{"time":140494.79166666663,"duration":72.91666666665697,"noteNumber":38,"velocity":16,"programNumber":1},{"time":140494.79166666663,"duration":125,"noteNumber":42,"velocity":21,"programNumber":1},{"time":140619.79166666663,"duration":125,"noteNumber":42,"velocity":26,"programNumber":1},{"time":140619.79166666663,"duration":125,"noteNumber":36,"velocity":32,"programNumber":1},{"time":140744.79166666663,"duration":72.91666666665697,"noteNumber":38,"velocity":17,"programNumber":1},{"time":140744.79166666663,"duration":250,"noteNumber":42,"velocity":25,"programNumber":1},{"time":140994.79166666663,"duration":125,"noteNumber":42,"velocity":41,"programNumber":1},{"time":140994.79166666663,"duration":125,"noteNumber":36,"velocity":36,"programNumber":1},{"time":141119.79166666663,"duration":125,"noteNumber":42,"velocity":25,"programNumber":1},{"time":141244.79166666663,"duration":119.79166666665697,"noteNumber":36,"velocity":34,"programNumber":1},{"time":141244.79166666663,"duration":125,"noteNumber":42,"velocity":33,"programNumber":1},{"time":141369.79166666663,"duration":125,"noteNumber":42,"velocity":27,"programNumber":1},{"time":141494.79166666663,"duration":125,"noteNumber":36,"velocity":43,"programNumber":1},{"time":141494.79166666663,"duration":125,"noteNumber":42,"velocity":75,"programNumber":1},{"time":141619.79166666663,"duration":119.79166666665697,"noteNumber":36,"velocity":52,"programNumber":1},{"time":141619.79166666663,"duration":125,"noteNumber":42,"velocity":45,"programNumber":1},{"time":141744.79166666663,"duration":125,"noteNumber":42,"velocity":26,"programNumber":1},{"time":141869.79166666663,"duration":125,"noteNumber":42,"velocity":23,"programNumber":1},{"time":141869.79166666663,"duration":145.83333333334303,"noteNumber":38,"velocity":33,"programNumber":1},{"time":141994.79166666663,"duration":151.04166666668607,"noteNumber":36,"velocity":37,"programNumber":1},{"time":141994.79166666663,"duration":250.0000000000291,"noteNumber":42,"velocity":39,"programNumber":1},{"time":142244.79166666666,"duration":166.66666666665697,"noteNumber":36,"velocity":47,"programNumber":1},{"time":142244.79166666666,"duration":250,"noteNumber":42,"velocity":44,"programNumber":1},{"time":142494.79166666666,"duration":67.70833333334303,"noteNumber":38,"velocity":28,"programNumber":1},{"time":142494.79166666666,"duration":125,"noteNumber":42,"velocity":21,"programNumber":1},{"time":142619.79166666666,"duration":125,"noteNumber":42,"velocity":26,"programNumber":1},{"time":142619.79166666666,"duration":125,"noteNumber":36,"velocity":31,"programNumber":1},{"time":142744.79166666666,"duration":104.16666666665697,"noteNumber":38,"velocity":25,"programNumber":1},{"time":142744.79166666666,"duration":250,"noteNumber":42,"velocity":25,"programNumber":1},{"time":142994.79166666666,"duration":119.79166666665697,"noteNumber":36,"velocity":36,"programNumber":1},{"time":142994.79166666666,"duration":125,"noteNumber":42,"velocity":39,"programNumber":1},{"time":143119.79166666666,"duration":125,"noteNumber":42,"velocity":24,"programNumber":1},{"time":143244.79166666666,"duration":119.79166666665697,"noteNumber":36,"velocity":31,"programNumber":1},{"time":143244.79166666666,"duration":125,"noteNumber":42,"velocity":33,"programNumber":1},{"time":143369.79166666666,"duration":125,"noteNumber":42,"velocity":26,"programNumber":1},{"time":143494.79166666666,"duration":125,"noteNumber":42,"velocity":20,"programNumber":1},{"time":143494.79166666666,"duration":166.66666666665697,"noteNumber":38,"velocity":22,"programNumber":1},{"time":143619.79166666666,"duration":119.79166666665697,"noteNumber":36,"velocity":37,"programNumber":1},{"time":143619.79166666666,"duration":125,"noteNumber":42,"velocity":39,"programNumber":1},{"time":143744.79166666666,"duration":57.291666666656965,"noteNumber":38,"velocity":30,"programNumber":1},{"time":143744.79166666666,"duration":125,"noteNumber":42,"velocity":26,"programNumber":1},{"time":143869.79166666666,"duration":125,"noteNumber":42,"velocity":22,"programNumber":1},{"time":143869.79166666666,"duration":145.83333333334303,"noteNumber":38,"velocity":34,"programNumber":1},{"time":143994.79166666666,"duration":145.83333333334303,"noteNumber":36,"velocity":43,"programNumber":1},{"time":143994.79166666666,"duration":250,"noteNumber":42,"velocity":40,"programNumber":1},{"time":144244.79166666666,"duration":166.66666666665697,"noteNumber":36,"velocity":44,"programNumber":1},{"time":144244.79166666666,"duration":250,"noteNumber":42,"velocity":38,"programNumber":1},{"time":144494.79166666666,"duration":104.16666666665697,"noteNumber":38,"velocity":29,"programNumber":1},{"time":144494.79166666666,"duration":125,"noteNumber":42,"velocity":22,"programNumber":1},{"time":144619.79166666666,"duration":125,"noteNumber":42,"velocity":25,"programNumber":1},{"time":144619.79166666666,"duration":125,"noteNumber":36,"velocity":33,"programNumber":1},{"time":144744.79166666666,"duration":67.70833333334303,"noteNumber":38,"velocity":26,"programNumber":1},{"time":144744.79166666666,"duration":250,"noteNumber":42,"velocity":27,"programNumber":1},{"time":144994.79166666666,"duration":119.79166666665697,"noteNumber":36,"velocity":36,"programNumber":1},{"time":144994.79166666666,"duration":125,"noteNumber":42,"velocity":38,"programNumber":1},{"time":145119.79166666666,"duration":125,"noteNumber":42,"velocity":25,"programNumber":1},{"time":145244.79166666666,"duration":119.79166666665697,"noteNumber":36,"velocity":38,"programNumber":1},{"time":145244.79166666666,"duration":125,"noteNumber":42,"velocity":35,"programNumber":1},{"time":145369.79166666666,"duration":57.291666666656965,"noteNumber":38,"velocity":19,"programNumber":1},{"time":145369.79166666666,"duration":125,"noteNumber":42,"velocity":26,"programNumber":1},{"time":145494.79166666666,"duration":125,"noteNumber":36,"velocity":33,"programNumber":1},{"time":145494.79166666666,"duration":125,"noteNumber":42,"velocity":64,"programNumber":1},{"time":145619.79166666666,"duration":125,"noteNumber":36,"velocity":36,"programNumber":1},{"time":145619.79166666666,"duration":125,"noteNumber":42,"velocity":61,"programNumber":1},{"time":145744.79166666666,"duration":125,"noteNumber":42,"velocity":26,"programNumber":1},{"time":145869.79166666666,"duration":125,"noteNumber":42,"velocity":21,"programNumber":1},{"time":145994.79166666666,"duration":145.83333333334303,"noteNumber":36,"velocity":41,"programNumber":1},{"time":145994.79166666666,"duration":250,"noteNumber":42,"velocity":39,"programNumber":1},{"time":146244.79166666666,"duration":166.66666666665697,"noteNumber":36,"velocity":40,"programNumber":1},{"time":146244.79166666666,"duration":250,"noteNumber":42,"velocity":41,"programNumber":1},{"time":146494.79166666666,"duration":125,"noteNumber":42,"velocity":20,"programNumber":1},{"time":146494.79166666666,"duration":156.25,"noteNumber":38,"velocity":28,"programNumber":1},{"time":146619.79166666666,"duration":125,"noteNumber":42,"velocity":26,"programNumber":1},{"time":146619.79166666666,"duration":125,"noteNumber":36,"velocity":32,"programNumber":1},{"time":146744.79166666666,"duration":67.70833333334303,"noteNumber":38,"velocity":26,"programNumber":1},{"time":146744.79166666666,"duration":250,"noteNumber":42,"velocity":25,"programNumber":1},{"time":146994.79166666666,"duration":125,"noteNumber":42,"velocity":40,"programNumber":1},{"time":146994.79166666666,"duration":125,"noteNumber":36,"velocity":36,"programNumber":1},{"time":147119.79166666666,"duration":125,"noteNumber":42,"velocity":26,"programNumber":1},{"time":147244.79166666666,"duration":119.79166666665697,"noteNumber":36,"velocity":35,"programNumber":1},{"time":147244.79166666666,"duration":125,"noteNumber":42,"velocity":36,"programNumber":1},{"time":147369.79166666666,"duration":125,"noteNumber":42,"velocity":27,"programNumber":1},{"time":147494.79166666666,"duration":125,"noteNumber":42,"velocity":21,"programNumber":1},{"time":147494.79166666666,"duration":166.66666666665697,"noteNumber":38,"velocity":21,"programNumber":1},{"time":147619.79166666666,"duration":119.79166666665697,"noteNumber":36,"velocity":41,"programNumber":1},{"time":147619.79166666666,"duration":156.25,"noteNumber":42,"velocity":40,"programNumber":1},{"time":147869.79166666666,"duration":57.291666666656965,"noteNumber":38,"velocity":35,"programNumber":1},{"time":147869.79166666666,"duration":125,"noteNumber":42,"velocity":21,"programNumber":1},{"time":147994.79166666666,"duration":166.66666666665697,"noteNumber":36,"velocity":33,"programNumber":1},{"time":147994.79166666666,"duration":250,"noteNumber":42,"velocity":38,"programNumber":1},{"time":148244.79166666666,"duration":177.08333333334303,"noteNumber":36,"velocity":32,"programNumber":1},{"time":148244.79166666666,"duration":250,"noteNumber":42,"velocity":42,"programNumber":1},{"time":148494.79166666666,"duration":62.5,"noteNumber":38,"velocity":26,"programNumber":1},{"time":148494.79166666666,"duration":125,"noteNumber":42,"velocity":20,"programNumber":1},{"time":148619.79166666666,"duration":125,"noteNumber":42,"velocity":27,"programNumber":1},{"time":148619.79166666666,"duration":125,"noteNumber":36,"velocity":25,"programNumber":1},{"time":148744.79166666666,"duration":57.291666666656965,"noteNumber":38,"velocity":31,"programNumber":1},{"time":148744.79166666666,"duration":250,"noteNumber":42,"velocity":25,"programNumber":1},{"time":148994.79166666666,"duration":125,"noteNumber":42,"velocity":42,"programNumber":1},{"time":148994.79166666666,"duration":125,"noteNumber":36,"velocity":31,"programNumber":1},{"time":149119.79166666666,"duration":125,"noteNumber":42,"velocity":25,"programNumber":1},{"time":149244.79166666666,"duration":125,"noteNumber":42,"velocity":36,"programNumber":1},{"time":149244.79166666666,"duration":125,"noteNumber":36,"velocity":26,"programNumber":1},{"time":149369.79166666666,"duration":125,"noteNumber":42,"velocity":25,"programNumber":1},{"time":149494.79166666666,"duration":125,"noteNumber":36,"velocity":28,"programNumber":1},{"time":149494.79166666666,"duration":125,"noteNumber":42,"velocity":45,"programNumber":1},{"time":149619.79166666666,"duration":119.79166666665697,"noteNumber":36,"velocity":46,"programNumber":1},{"time":149619.79166666666,"duration":125,"noteNumber":42,"velocity":44,"programNumber":1},{"time":149744.79166666666,"duration":125,"noteNumber":42,"velocity":27,"programNumber":1},{"time":149869.79166666666,"duration":125,"noteNumber":42,"velocity":22,"programNumber":1},{"time":149994.79166666666,"duration":166.66666666665697,"noteNumber":36,"velocity":38,"programNumber":1},{"time":149994.79166666666,"duration":250,"noteNumber":42,"velocity":41,"programNumber":1},{"time":150244.79166666666,"duration":177.08333333334303,"noteNumber":36,"velocity":39,"programNumber":1},{"time":150244.79166666666,"duration":250,"noteNumber":42,"velocity":42,"programNumber":1},{"time":150494.79166666666,"duration":62.5,"noteNumber":38,"velocity":25,"programNumber":1},{"time":150494.79166666666,"duration":125,"noteNumber":42,"velocity":22,"programNumber":1},{"time":150619.79166666666,"duration":125,"noteNumber":42,"velocity":27,"programNumber":1},{"time":150619.79166666666,"duration":125,"noteNumber":36,"velocity":27,"programNumber":1},{"time":150744.79166666666,"duration":67.70833333334303,"noteNumber":38,"velocity":24,"programNumber":1},{"time":150744.79166666666,"duration":250,"noteNumber":42,"velocity":27,"programNumber":1},{"time":150994.79166666666,"duration":125,"noteNumber":36,"velocity":31,"programNumber":1},{"time":150994.79166666666,"duration":125,"noteNumber":42,"velocity":41,"programNumber":1},{"time":151119.79166666666,"duration":125,"noteNumber":42,"velocity":25,"programNumber":1},{"time":151244.79166666666,"duration":119.79166666665697,"noteNumber":36,"velocity":41,"programNumber":1},{"time":151244.79166666666,"duration":125,"noteNumber":42,"velocity":37,"programNumber":1},{"time":151369.79166666666,"duration":125,"noteNumber":42,"velocity":25,"programNumber":1},{"time":151494.79166666666,"duration":125,"noteNumber":42,"velocity":21,"programNumber":1},{"time":151619.79166666666,"duration":125,"noteNumber":42,"velocity":42,"programNumber":1},{"time":151619.79166666666,"duration":125,"noteNumber":36,"velocity":30,"programNumber":1},{"time":151744.79166666666,"duration":125,"noteNumber":42,"velocity":26,"programNumber":1},{"time":151869.79166666666,"duration":57.291666666656965,"noteNumber":38,"velocity":35,"programNumber":1},{"time":151869.79166666666,"duration":125,"noteNumber":42,"velocity":23,"programNumber":1},{"time":151994.79166666666,"duration":156.25,"noteNumber":36,"velocity":35,"programNumber":1},{"time":151994.79166666666,"duration":250,"noteNumber":42,"velocity":40,"programNumber":1},{"time":152244.79166666666,"duration":192.70833333334303,"noteNumber":36,"velocity":32,"programNumber":1},{"time":152244.79166666666,"duration":250,"noteNumber":42,"velocity":38,"programNumber":1},{"time":152494.79166666666,"duration":57.291666666656965,"noteNumber":38,"velocity":33,"programNumber":1},{"time":152494.79166666666,"duration":125,"noteNumber":42,"velocity":18,"programNumber":1},{"time":152619.79166666666,"duration":119.79166666665697,"noteNumber":36,"velocity":27,"programNumber":1},{"time":152619.79166666666,"duration":125,"noteNumber":42,"velocity":15,"programNumber":1},{"time":152744.79166666666,"duration":250,"noteNumber":42,"velocity":14,"programNumber":1},{"time":152994.79166666666,"duration":125,"noteNumber":42,"velocity":35,"programNumber":1},{"time":152994.79166666666,"duration":125,"noteNumber":36,"velocity":25,"programNumber":1},{"time":153119.79166666666,"duration":125,"noteNumber":42,"velocity":25,"programNumber":1},{"time":153244.79166666666,"duration":119.79166666665697,"noteNumber":36,"velocity":33,"programNumber":1},{"time":153244.79166666666,"duration":125,"noteNumber":42,"velocity":22,"programNumber":1},{"time":153369.79166666666,"duration":125,"noteNumber":42,"velocity":25,"programNumber":1},{"time":153494.79166666666,"duration":125,"noteNumber":36,"velocity":35,"programNumber":1},{"time":153494.79166666666,"duration":125,"noteNumber":42,"velocity":62,"programNumber":1},{"time":153619.79166666666,"duration":125,"noteNumber":36,"velocity":61,"programNumber":1},{"time":153619.79166666666,"duration":125,"noteNumber":42,"velocity":62,"programNumber":1},{"time":153744.79166666666,"duration":67.70833333334303,"noteNumber":38,"velocity":26,"programNumber":1},{"time":153744.79166666666,"duration":125,"noteNumber":42,"velocity":35,"programNumber":1},{"time":153869.79166666666,"duration":125,"noteNumber":42,"velocity":25,"programNumber":1},{"time":153869.79166666666,"duration":156.25,"noteNumber":38,"velocity":39,"programNumber":1},{"time":153994.79166666666,"duration":171.875,"noteNumber":36,"velocity":33,"programNumber":1},{"time":153994.79166666666,"duration":250,"noteNumber":42,"velocity":42,"programNumber":1},{"time":154244.79166666666,"duration":177.08333333334303,"noteNumber":36,"velocity":28,"programNumber":1},{"time":154244.79166666666,"duration":250,"noteNumber":42,"velocity":35,"programNumber":1},{"time":154494.79166666666,"duration":62.5,"noteNumber":38,"velocity":24,"programNumber":1},{"time":154494.79166666666,"duration":125,"noteNumber":42,"velocity":23,"programNumber":1},{"time":154619.79166666666,"duration":125,"noteNumber":42,"velocity":26,"programNumber":1},{"time":154619.79166666666,"duration":125,"noteNumber":36,"velocity":25,"programNumber":1},{"time":154744.79166666666,"duration":67.70833333334303,"noteNumber":38,"velocity":24,"programNumber":1},{"time":154744.79166666666,"duration":250,"noteNumber":42,"velocity":26,"programNumber":1},{"time":154994.79166666666,"duration":125,"noteNumber":42,"velocity":43,"programNumber":1},{"time":154994.79166666666,"duration":125,"noteNumber":36,"velocity":30,"programNumber":1},{"time":155119.79166666666,"duration":125,"noteNumber":42,"velocity":25,"programNumber":1},{"time":155244.79166666666,"duration":125,"noteNumber":42,"velocity":36,"programNumber":1},{"time":155244.79166666666,"duration":125,"noteNumber":36,"velocity":28,"programNumber":1},{"time":155369.79166666666,"duration":125,"noteNumber":42,"velocity":26,"programNumber":1},{"time":155494.79166666666,"duration":57.291666666656965,"noteNumber":38,"velocity":41,"programNumber":1},{"time":155494.79166666666,"duration":125,"noteNumber":42,"velocity":21,"programNumber":1},{"time":155619.79166666666,"duration":125,"noteNumber":42,"velocity":41,"programNumber":1},{"time":155619.79166666666,"duration":125,"noteNumber":36,"velocity":32,"programNumber":1},{"time":155744.79166666666,"duration":125,"noteNumber":42,"velocity":26,"programNumber":1},{"time":155869.79166666666,"duration":57.291666666656965,"noteNumber":38,"velocity":37,"programNumber":1},{"time":155869.79166666666,"duration":125,"noteNumber":42,"velocity":22,"programNumber":1},{"time":155994.79166666666,"duration":156.25,"noteNumber":36,"velocity":38,"programNumber":1},{"time":155994.79166666666,"duration":250,"noteNumber":42,"velocity":42,"programNumber":1},{"time":156244.79166666666,"duration":177.08333333334303,"noteNumber":36,"velocity":39,"programNumber":1},{"time":156244.79166666666,"duration":250,"noteNumber":42,"velocity":43,"programNumber":1},{"time":156494.79166666666,"duration":57.291666666656965,"noteNumber":38,"velocity":35,"programNumber":1},{"time":156494.79166666666,"duration":125,"noteNumber":42,"velocity":20,"programNumber":1},{"time":156619.79166666666,"duration":125,"noteNumber":42,"velocity":27,"programNumber":1},{"time":156619.79166666666,"duration":125,"noteNumber":36,"velocity":27,"programNumber":1},{"time":156744.79166666666,"duration":57.291666666656965,"noteNumber":38,"velocity":30,"programNumber":1},{"time":156744.79166666666,"duration":250,"noteNumber":42,"velocity":27,"programNumber":1},{"time":156994.79166666666,"duration":125,"noteNumber":42,"velocity":42,"programNumber":1},{"time":156994.79166666666,"duration":125,"noteNumber":36,"velocity":30,"programNumber":1},{"time":157119.79166666666,"duration":125,"noteNumber":42,"velocity":26,"programNumber":1},{"time":157244.79166666666,"duration":125,"noteNumber":42,"velocity":36,"programNumber":1},{"time":157244.79166666666,"duration":125,"noteNumber":36,"velocity":25,"programNumber":1},{"time":157369.79166666666,"duration":125,"noteNumber":42,"velocity":26,"programNumber":1},{"time":157494.79166666666,"duration":125,"noteNumber":36,"velocity":41,"programNumber":1},{"time":157494.79166666666,"duration":125,"noteNumber":42,"velocity":51,"programNumber":1},{"time":157619.79166666666,"duration":125,"noteNumber":42,"velocity":42,"programNumber":1},{"time":157619.79166666666,"duration":140.625,"noteNumber":36,"velocity":40,"programNumber":1},{"time":157744.79166666666,"duration":125,"noteNumber":42,"velocity":27,"programNumber":1},{"time":157869.79166666666,"duration":125,"noteNumber":42,"velocity":22,"programNumber":1},{"time":157994.79166666666,"duration":166.66666666665697,"noteNumber":36,"velocity":36,"programNumber":1},{"time":157994.79166666666,"duration":250,"noteNumber":42,"velocity":42,"programNumber":1},{"time":158244.79166666666,"duration":62.5,"noteNumber":38,"velocity":25,"programNumber":1},{"time":158244.79166666666,"duration":250,"noteNumber":42,"velocity":22,"programNumber":1},{"time":158494.79166666666,"duration":125,"noteNumber":42,"velocity":33,"programNumber":1},{"time":158494.79166666666,"duration":156.25,"noteNumber":38,"velocity":39,"programNumber":1},{"time":158619.79166666666,"duration":125,"noteNumber":42,"velocity":27,"programNumber":1},{"time":158619.79166666666,"duration":125,"noteNumber":36,"velocity":25,"programNumber":1},{"time":158744.79166666666,"duration":78.125,"noteNumber":38,"velocity":32,"programNumber":1},{"time":158744.79166666666,"duration":250,"noteNumber":42,"velocity":24,"programNumber":1},{"time":158994.79166666666,"duration":125,"noteNumber":36,"velocity":30,"programNumber":1},{"time":158994.79166666666,"duration":156.25,"noteNumber":42,"velocity":43,"programNumber":1},{"time":159244.79166666666,"duration":119.79166666665697,"noteNumber":36,"velocity":43,"programNumber":1},{"time":159244.79166666666,"duration":125,"noteNumber":42,"velocity":35,"programNumber":1},{"time":159369.79166666666,"duration":125,"noteNumber":42,"velocity":24,"programNumber":1},{"time":159494.79166666666,"duration":125,"noteNumber":42,"velocity":21,"programNumber":1},{"time":159619.79166666666,"duration":119.79166666665697,"noteNumber":36,"velocity":39,"programNumber":1},{"time":159619.79166666666,"duration":125,"noteNumber":42,"velocity":36,"programNumber":1},{"time":159744.79166666666,"duration":125,"noteNumber":42,"velocity":25,"programNumber":1},{"time":159869.79166666666,"duration":125,"noteNumber":42,"velocity":19,"programNumber":1},{"time":159994.79166666666,"duration":145.83333333334303,"noteNumber":36,"velocity":46,"programNumber":1},{"time":159994.79166666666,"duration":250,"noteNumber":42,"velocity":37,"programNumber":1},{"time":160244.79166666666,"duration":156.25,"noteNumber":36,"velocity":45,"programNumber":1},{"time":160244.79166666666,"duration":250,"noteNumber":42,"velocity":37,"programNumber":1},{"time":160494.79166666666,"duration":57.291666666656965,"noteNumber":38,"velocity":32,"programNumber":1},{"time":160494.79166666666,"duration":125,"noteNumber":42,"velocity":20,"programNumber":1},{"time":160619.79166666666,"duration":114.58333333334303,"noteNumber":36,"velocity":50,"programNumber":1},{"time":160619.79166666666,"duration":125,"noteNumber":42,"velocity":24,"programNumber":1},{"time":160744.79166666666,"duration":250,"noteNumber":42,"velocity":24,"programNumber":1},{"time":160994.79166666666,"duration":119.79166666665697,"noteNumber":36,"velocity":42,"programNumber":1},{"time":160994.79166666666,"duration":125,"noteNumber":42,"velocity":41,"programNumber":1},{"time":161119.79166666666,"duration":125,"noteNumber":42,"velocity":27,"programNumber":1},{"time":161244.79166666666,"duration":119.79166666665697,"noteNumber":36,"velocity":40,"programNumber":1},{"time":161244.79166666666,"duration":125,"noteNumber":42,"velocity":32,"programNumber":1},{"time":161369.79166666666,"duration":125,"noteNumber":42,"velocity":24,"programNumber":1},{"time":161494.79166666666,"duration":125,"noteNumber":36,"velocity":55,"programNumber":1},{"time":161494.79166666666,"duration":125,"noteNumber":42,"velocity":59,"programNumber":1},{"time":161619.79166666666,"duration":119.79166666665697,"noteNumber":36,"velocity":65,"programNumber":1},{"time":161619.79166666666,"duration":125,"noteNumber":42,"velocity":58,"programNumber":1},{"time":161744.79166666666,"duration":125,"noteNumber":42,"velocity":32,"programNumber":1},{"time":161869.79166666666,"duration":125,"noteNumber":42,"velocity":20,"programNumber":1},{"time":161994.79166666666,"duration":145.83333333334303,"noteNumber":36,"velocity":42,"programNumber":1},{"time":161994.79166666666,"duration":250,"noteNumber":42,"velocity":37,"programNumber":1},{"time":162244.79166666666,"duration":250,"noteNumber":42,"velocity":21,"programNumber":1},{"time":162494.79166666666,"duration":125,"noteNumber":42,"velocity":43,"programNumber":1},{"time":162494.79166666666,"duration":166.66666666665697,"noteNumber":38,"velocity":38,"programNumber":1},{"time":162619.79166666666,"duration":114.58333333331393,"noteNumber":36,"velocity":49,"programNumber":1},{"time":162619.79166666666,"duration":124.9999999999709,"noteNumber":42,"velocity":24,"programNumber":1},{"time":162744.79166666663,"duration":250,"noteNumber":42,"velocity":23,"programNumber":1},{"time":162994.79166666663,"duration":119.79166666665697,"noteNumber":36,"velocity":41,"programNumber":1},{"time":162994.79166666663,"duration":125,"noteNumber":42,"velocity":39,"programNumber":1},{"time":163119.79166666663,"duration":125,"noteNumber":42,"velocity":26,"programNumber":1},{"time":163244.79166666663,"duration":109.375,"noteNumber":36,"velocity":54,"programNumber":1},{"time":163244.79166666663,"duration":125,"noteNumber":42,"velocity":34,"programNumber":1},{"time":163369.79166666663,"duration":125,"noteNumber":42,"velocity":27,"programNumber":1},{"time":163494.79166666663,"duration":125,"noteNumber":42,"velocity":20,"programNumber":1},{"time":163619.79166666663,"duration":119.79166666665697,"noteNumber":36,"velocity":43,"programNumber":1},{"time":163619.79166666663,"duration":125,"noteNumber":42,"velocity":37,"programNumber":1},{"time":163744.79166666663,"duration":125,"noteNumber":42,"velocity":23,"programNumber":1},{"time":163869.79166666663,"duration":125,"noteNumber":42,"velocity":20,"programNumber":1},{"time":163994.79166666663,"duration":145.83333333334303,"noteNumber":36,"velocity":50,"programNumber":1},{"time":163994.79166666663,"duration":250,"noteNumber":42,"velocity":39,"programNumber":1},{"time":164244.79166666663,"duration":156.25,"noteNumber":36,"velocity":49,"programNumber":1},{"time":164244.79166666663,"duration":250,"noteNumber":42,"velocity":38,"programNumber":1},{"time":164494.79166666663,"duration":57.291666666656965,"noteNumber":38,"velocity":31,"programNumber":1},{"time":164494.79166666663,"duration":125,"noteNumber":42,"velocity":19,"programNumber":1},{"time":164619.79166666663,"duration":114.58333333334303,"noteNumber":36,"velocity":52,"programNumber":1},{"time":164619.79166666663,"duration":125,"noteNumber":42,"velocity":24,"programNumber":1},{"time":164744.79166666663,"duration":250,"noteNumber":42,"velocity":25,"programNumber":1},{"time":164994.79166666663,"duration":119.79166666665697,"noteNumber":36,"velocity":42,"programNumber":1},{"time":164994.79166666663,"duration":125,"noteNumber":42,"velocity":40,"programNumber":1},{"time":165119.79166666663,"duration":125,"noteNumber":42,"velocity":25,"programNumber":1},{"time":165244.79166666663,"duration":119.79166666665697,"noteNumber":36,"velocity":43,"programNumber":1},{"time":165244.79166666663,"duration":125,"noteNumber":42,"velocity":36,"programNumber":1},{"time":165369.79166666663,"duration":125,"noteNumber":42,"velocity":25,"programNumber":1},{"time":165494.79166666663,"duration":83.33333333334303,"noteNumber":36,"velocity":49,"programNumber":1},{"time":165494.79166666663,"duration":125,"noteNumber":42,"velocity":38,"programNumber":1},{"time":165619.79166666663,"duration":104.16666666665697,"noteNumber":36,"velocity":55,"programNumber":1},{"time":165619.79166666663,"duration":125,"noteNumber":42,"velocity":39,"programNumber":1},{"time":165744.79166666663,"duration":125,"noteNumber":42,"velocity":26,"programNumber":1},{"time":165869.79166666663,"duration":125,"noteNumber":42,"velocity":20,"programNumber":1},{"time":165994.79166666663,"duration":135.41666666665697,"noteNumber":36,"velocity":47,"programNumber":1},{"time":165994.79166666663,"duration":250,"noteNumber":42,"velocity":38,"programNumber":1},{"time":166244.79166666663,"duration":250,"noteNumber":42,"velocity":21,"programNumber":1},{"time":166494.79166666663,"duration":125,"noteNumber":42,"velocity":42,"programNumber":1},{"time":166494.79166666663,"duration":166.66666666665697,"noteNumber":38,"velocity":38,"programNumber":1},{"time":166619.79166666663,"duration":119.79166666665697,"noteNumber":36,"velocity":41,"programNumber":1},{"time":166619.79166666663,"duration":125,"noteNumber":42,"velocity":28,"programNumber":1},{"time":166744.79166666663,"duration":67.70833333334303,"noteNumber":38,"velocity":32,"programNumber":1},{"time":166744.79166666663,"duration":250,"noteNumber":42,"velocity":23,"programNumber":1},{"time":166994.79166666663,"duration":119.79166666665697,"noteNumber":36,"velocity":40,"programNumber":1},{"time":166994.79166666663,"duration":125,"noteNumber":42,"velocity":38,"programNumber":1},{"time":167119.79166666663,"duration":125,"noteNumber":42,"velocity":25,"programNumber":1},{"time":167244.79166666663,"duration":119.79166666665697,"noteNumber":36,"velocity":41,"programNumber":1},{"time":167244.79166666663,"duration":125,"noteNumber":42,"velocity":36,"programNumber":1},{"time":167369.79166666663,"duration":125,"noteNumber":42,"velocity":26,"programNumber":1},{"time":167494.79166666663,"duration":125,"noteNumber":42,"velocity":19,"programNumber":1},{"time":167619.79166666663,"duration":119.79166666665697,"noteNumber":36,"velocity":46,"programNumber":1},{"time":167619.79166666663,"duration":125,"noteNumber":42,"velocity":38,"programNumber":1},{"time":167744.79166666663,"duration":125,"noteNumber":42,"velocity":24,"programNumber":1},{"time":167869.79166666663,"duration":125,"noteNumber":42,"velocity":20,"programNumber":1},{"time":167994.79166666663,"duration":145.83333333334303,"noteNumber":36,"velocity":43,"programNumber":1},{"time":167994.79166666663,"duration":250,"noteNumber":42,"velocity":39,"programNumber":1},{"time":168244.79166666663,"duration":156.25,"noteNumber":36,"velocity":42,"programNumber":1},{"time":168244.79166666663,"duration":250,"noteNumber":42,"velocity":38,"programNumber":1},{"time":168494.79166666663,"duration":125,"noteNumber":42,"velocity":21,"programNumber":1},{"time":168619.79166666663,"duration":119.79166666665697,"noteNumber":36,"velocity":49,"programNumber":1},{"time":168619.79166666663,"duration":125,"noteNumber":42,"velocity":24,"programNumber":1},{"time":168744.79166666663,"duration":250,"noteNumber":42,"velocity":24,"programNumber":1},{"time":168994.79166666663,"duration":119.79166666665697,"noteNumber":36,"velocity":41,"programNumber":1},{"time":168994.79166666663,"duration":125,"noteNumber":42,"velocity":38,"programNumber":1},{"time":169119.79166666663,"duration":125,"noteNumber":42,"velocity":26,"programNumber":1},{"time":169244.79166666663,"duration":109.375,"noteNumber":36,"velocity":55,"programNumber":1},{"time":169244.79166666663,"duration":125,"noteNumber":42,"velocity":33,"programNumber":1},{"time":169369.79166666663,"duration":125,"noteNumber":42,"velocity":24,"programNumber":1},{"time":169494.79166666663,"duration":119.79166666665697,"noteNumber":36,"velocity":43,"programNumber":1},{"time":169494.79166666663,"duration":119.79166666665697,"noteNumber":42,"velocity":63,"programNumber":1},{"time":169614.58333333328,"duration":119.79166666665697,"noteNumber":36,"velocity":113,"programNumber":1},{"time":169614.58333333328,"duration":130.20833333331393,"noteNumber":42,"velocity":82,"programNumber":1},{"time":169744.7916666666,"duration":125,"noteNumber":42,"velocity":25,"programNumber":1},{"time":169869.7916666666,"duration":125,"noteNumber":42,"velocity":22,"programNumber":1},{"time":169994.7916666666,"duration":156.25,"noteNumber":36,"velocity":54,"programNumber":1},{"time":169994.7916666666,"duration":250,"noteNumber":42,"velocity":41,"programNumber":1},{"time":170244.7916666666,"duration":57.291666666656965,"noteNumber":38,"velocity":31,"programNumber":1},{"time":170244.7916666666,"duration":276.04166666665697,"noteNumber":42,"velocity":21,"programNumber":1},{"time":170619.7916666666,"duration":125,"noteNumber":42,"velocity":29,"programNumber":1},{"time":170619.7916666666,"duration":125,"noteNumber":36,"velocity":42,"programNumber":1},{"time":170744.7916666666,"duration":104.16666666665697,"noteNumber":38,"velocity":25,"programNumber":1},{"time":170744.7916666666,"duration":250,"noteNumber":42,"velocity":26,"programNumber":1},{"time":170994.7916666666,"duration":125,"noteNumber":42,"velocity":42,"programNumber":1},{"time":170994.7916666666,"duration":125,"noteNumber":36,"velocity":42,"programNumber":1},{"time":171119.7916666666,"duration":125,"noteNumber":42,"velocity":26,"programNumber":1},{"time":171244.7916666666,"duration":125,"noteNumber":42,"velocity":37,"programNumber":1},{"time":171244.7916666666,"duration":125,"noteNumber":36,"velocity":36,"programNumber":1},{"time":171369.7916666666,"duration":125,"noteNumber":42,"velocity":27,"programNumber":1},{"time":171494.7916666666,"duration":125,"noteNumber":42,"velocity":22,"programNumber":1},{"time":171494.7916666666,"duration":130.20833333334303,"noteNumber":38,"velocity":16,"programNumber":1},{"time":171619.7916666666,"duration":125,"noteNumber":42,"velocity":40,"programNumber":1},{"time":171619.7916666666,"duration":125,"noteNumber":36,"velocity":43,"programNumber":1},{"time":171744.7916666666,"duration":125,"noteNumber":38,"velocity":21,"programNumber":1},{"time":171744.7916666666,"duration":125,"noteNumber":42,"velocity":25,"programNumber":1},{"time":171869.7916666666,"duration":125,"noteNumber":42,"velocity":23,"programNumber":1},{"time":171869.7916666666,"duration":156.25,"noteNumber":38,"velocity":37,"programNumber":1},{"time":171994.7916666666,"duration":171.875,"noteNumber":36,"velocity":29,"programNumber":1},{"time":171994.7916666666,"duration":250,"noteNumber":42,"velocity":41,"programNumber":1},{"time":172244.7916666666,"duration":177.08333333334303,"noteNumber":36,"velocity":29,"programNumber":1},{"time":172244.7916666666,"duration":250,"noteNumber":42,"velocity":42,"programNumber":1},{"time":172494.7916666666,"duration":72.91666666665697,"noteNumber":38,"velocity":14,"programNumber":1},{"time":172494.7916666666,"duration":125,"noteNumber":42,"velocity":23,"programNumber":1},{"time":172619.7916666666,"duration":125,"noteNumber":42,"velocity":26,"programNumber":1},{"time":172619.7916666666,"duration":125,"noteNumber":36,"velocity":33,"programNumber":1},{"time":172744.7916666666,"duration":72.91666666665697,"noteNumber":38,"velocity":14,"programNumber":1},{"time":172744.7916666666,"duration":250,"noteNumber":42,"velocity":26,"programNumber":1},{"time":172994.7916666666,"duration":125,"noteNumber":42,"velocity":42,"programNumber":1},{"time":172994.7916666666,"duration":125,"noteNumber":36,"velocity":42,"programNumber":1},{"time":173119.7916666666,"duration":125,"noteNumber":42,"velocity":25,"programNumber":1},{"time":173244.7916666666,"duration":125,"noteNumber":42,"velocity":38,"programNumber":1},{"time":173244.7916666666,"duration":125,"noteNumber":36,"velocity":44,"programNumber":1},{"time":173369.7916666666,"duration":57.291666666656965,"noteNumber":38,"velocity":17,"programNumber":1},{"time":173369.7916666666,"duration":125,"noteNumber":42,"velocity":27,"programNumber":1},{"time":173494.7916666666,"duration":125,"noteNumber":42,"velocity":23,"programNumber":1},{"time":173494.7916666666,"duration":156.25,"noteNumber":38,"velocity":34,"programNumber":1},{"time":173619.7916666666,"duration":125,"noteNumber":42,"velocity":42,"programNumber":1},{"time":173619.7916666666,"duration":125,"noteNumber":36,"velocity":40,"programNumber":1},{"time":173744.7916666666,"duration":125,"noteNumber":38,"velocity":27,"programNumber":1},{"time":173744.7916666666,"duration":125,"noteNumber":42,"velocity":26,"programNumber":1},{"time":173869.7916666666,"duration":125,"noteNumber":42,"velocity":23,"programNumber":1},{"time":173869.7916666666,"duration":140.625,"noteNumber":38,"velocity":24,"programNumber":1},{"time":173994.7916666666,"duration":125,"noteNumber":42,"velocity":41,"programNumber":1},{"time":173994.7916666666,"duration":125,"noteNumber":36,"velocity":32,"programNumber":1},{"time":174119.7916666666,"duration":67.70833333334303,"noteNumber":38,"velocity":22,"programNumber":1},{"time":174119.7916666666,"duration":125,"noteNumber":42,"velocity":26,"programNumber":1},{"time":174244.7916666666,"duration":125,"noteNumber":42,"velocity":35,"programNumber":1},{"time":174244.7916666666,"duration":125,"noteNumber":36,"velocity":26,"programNumber":1},{"time":174369.7916666666,"duration":125,"noteNumber":42,"velocity":27,"programNumber":1},{"time":174494.7916666666,"duration":125,"noteNumber":42,"velocity":23,"programNumber":1},{"time":174494.7916666666,"duration":145.83333333334303,"noteNumber":38,"velocity":34,"programNumber":1},{"time":174619.7916666666,"duration":125,"noteNumber":36,"velocity":33,"programNumber":1},{"time":174619.7916666666,"duration":125,"noteNumber":42,"velocity":41,"programNumber":1},{"time":174744.7916666666,"duration":67.70833333334303,"noteNumber":38,"velocity":25,"programNumber":1},{"time":174744.7916666666,"duration":125,"noteNumber":42,"velocity":27,"programNumber":1},{"time":174869.7916666666,"duration":125,"noteNumber":42,"velocity":23,"programNumber":1},{"time":174869.7916666666,"duration":156.25,"noteNumber":38,"velocity":41,"programNumber":1},{"time":174994.7916666666,"duration":125,"noteNumber":42,"velocity":43,"programNumber":1},{"time":174994.7916666666,"duration":125,"noteNumber":36,"velocity":41,"programNumber":1},{"time":175119.7916666666,"duration":125,"noteNumber":42,"velocity":26,"programNumber":1},{"time":175119.7916666666,"duration":166.66666666665697,"noteNumber":38,"velocity":16,"programNumber":1},{"time":175244.7916666666,"duration":125,"noteNumber":42,"velocity":38,"programNumber":1},{"time":175244.7916666666,"duration":125,"noteNumber":36,"velocity":40,"programNumber":1},{"time":175369.7916666666,"duration":125,"noteNumber":42,"velocity":27,"programNumber":1},{"time":175494.7916666666,"duration":125,"noteNumber":42,"velocity":23,"programNumber":1},{"time":175494.7916666666,"duration":145.83333333334303,"noteNumber":38,"velocity":38,"programNumber":1},{"time":175619.7916666666,"duration":125,"noteNumber":42,"velocity":42,"programNumber":1},{"time":175619.7916666666,"duration":130.20833333334303,"noteNumber":36,"velocity":26,"programNumber":1},{"time":175744.7916666666,"duration":72.91666666668607,"noteNumber":38,"velocity":19,"programNumber":1},{"time":175744.7916666666,"duration":125.0000000000291,"noteNumber":42,"velocity":25,"programNumber":1},{"time":175869.79166666663,"duration":125,"noteNumber":42,"velocity":22,"programNumber":1},{"time":175869.79166666663,"duration":166.66666666665697,"noteNumber":38,"velocity":36,"programNumber":1},{"time":175994.79166666663,"duration":125,"noteNumber":42,"velocity":45,"programNumber":1},{"time":175994.79166666663,"duration":125,"noteNumber":36,"velocity":31,"programNumber":1},{"time":176119.79166666663,"duration":125,"noteNumber":42,"velocity":28,"programNumber":1},{"time":176244.79166666663,"duration":125,"noteNumber":42,"velocity":37,"programNumber":1},{"time":176244.79166666663,"duration":125,"noteNumber":36,"velocity":32,"programNumber":1},{"time":176369.79166666663,"duration":67.70833333334303,"noteNumber":38,"velocity":24,"programNumber":1},{"time":176369.79166666663,"duration":125,"noteNumber":42,"velocity":26,"programNumber":1},{"time":176494.79166666663,"duration":57.291666666656965,"noteNumber":38,"velocity":38,"programNumber":1},{"time":176494.79166666663,"duration":125,"noteNumber":42,"velocity":22,"programNumber":1},{"time":176619.79166666663,"duration":125,"noteNumber":42,"velocity":41,"programNumber":1},{"time":176619.79166666663,"duration":125,"noteNumber":36,"velocity":30,"programNumber":1},{"time":176744.79166666663,"duration":125,"noteNumber":38,"velocity":23,"programNumber":1},{"time":176744.79166666663,"duration":125,"noteNumber":42,"velocity":25,"programNumber":1},{"time":176869.79166666663,"duration":125,"noteNumber":42,"velocity":23,"programNumber":1},{"time":176869.79166666663,"duration":140.625,"noteNumber":38,"velocity":19,"programNumber":1},{"time":176994.79166666663,"duration":125,"noteNumber":42,"velocity":41,"programNumber":1},{"time":176994.79166666663,"duration":125,"noteNumber":36,"velocity":40,"programNumber":1},{"time":177119.79166666663,"duration":72.91666666665697,"noteNumber":38,"velocity":16,"programNumber":1},{"time":177119.79166666663,"duration":125,"noteNumber":42,"velocity":25,"programNumber":1},{"time":177244.79166666663,"duration":125,"noteNumber":42,"velocity":36,"programNumber":1},{"time":177244.79166666663,"duration":125,"noteNumber":36,"velocity":37,"programNumber":1},{"time":177369.79166666663,"duration":125,"noteNumber":42,"velocity":27,"programNumber":1},{"time":177494.79166666663,"duration":125,"noteNumber":42,"velocity":20,"programNumber":1},{"time":177619.79166666663,"duration":125,"noteNumber":42,"velocity":43,"programNumber":1},{"time":177619.79166666663,"duration":125,"noteNumber":36,"velocity":44,"programNumber":1},{"time":177744.79166666663,"duration":72.91666666665697,"noteNumber":38,"velocity":19,"programNumber":1},{"time":177744.79166666663,"duration":125,"noteNumber":42,"velocity":28,"programNumber":1},{"time":177869.79166666663,"duration":125,"noteNumber":42,"velocity":22,"programNumber":1},{"time":177869.79166666663,"duration":156.25,"noteNumber":38,"velocity":37,"programNumber":1},{"time":177994.79166666663,"duration":125,"noteNumber":42,"velocity":43,"programNumber":1},{"time":177994.79166666663,"duration":125,"noteNumber":36,"velocity":30,"programNumber":1},{"time":178119.79166666663,"duration":125,"noteNumber":42,"velocity":26,"programNumber":1},{"time":178244.79166666663,"duration":125,"noteNumber":42,"velocity":37,"programNumber":1},{"time":178244.79166666663,"duration":125,"noteNumber":36,"velocity":30,"programNumber":1},{"time":178369.79166666663,"duration":67.70833333334303,"noteNumber":38,"velocity":22,"programNumber":1},{"time":178369.79166666663,"duration":125,"noteNumber":42,"velocity":27,"programNumber":1},{"time":178494.79166666663,"duration":125,"noteNumber":42,"velocity":22,"programNumber":1},{"time":178494.79166666663,"duration":151.04166666665697,"noteNumber":38,"velocity":40,"programNumber":1},{"time":178619.79166666663,"duration":125,"noteNumber":36,"velocity":28,"programNumber":1},{"time":178619.79166666663,"duration":125,"noteNumber":42,"velocity":40,"programNumber":1},{"time":178744.79166666663,"duration":125,"noteNumber":38,"velocity":24,"programNumber":1},{"time":178744.79166666663,"duration":125,"noteNumber":42,"velocity":25,"programNumber":1},{"time":178869.79166666663,"duration":125,"noteNumber":42,"velocity":21,"programNumber":1},{"time":178869.79166666663,"duration":140.625,"noteNumber":38,"velocity":19,"programNumber":1},{"time":178994.79166666663,"duration":125,"noteNumber":36,"velocity":40,"programNumber":1},{"time":178994.79166666663,"duration":125,"noteNumber":42,"velocity":41,"programNumber":1},{"time":179119.79166666663,"duration":125,"noteNumber":42,"velocity":25,"programNumber":1},{"time":179119.79166666663,"duration":166.66666666665697,"noteNumber":38,"velocity":17,"programNumber":1},{"time":179244.79166666663,"duration":125,"noteNumber":42,"velocity":33,"programNumber":1},{"time":179244.79166666663,"duration":125,"noteNumber":36,"velocity":33,"programNumber":1},{"time":179369.79166666663,"duration":125,"noteNumber":42,"velocity":26,"programNumber":1},{"time":179369.79166666663,"duration":177.08333333334303,"noteNumber":38,"velocity":30,"programNumber":1},{"time":179494.79166666663,"duration":125,"noteNumber":42,"velocity":22,"programNumber":1},{"time":179619.79166666663,"duration":125,"noteNumber":42,"velocity":41,"programNumber":1},{"time":179619.79166666663,"duration":125,"noteNumber":36,"velocity":42,"programNumber":1},{"time":179744.79166666663,"duration":72.91666666665697,"noteNumber":38,"velocity":19,"programNumber":1},{"time":179744.79166666663,"duration":125,"noteNumber":42,"velocity":27,"programNumber":1},{"time":179869.79166666663,"duration":125,"noteNumber":42,"velocity":22,"programNumber":1},{"time":179869.79166666663,"duration":156.25,"noteNumber":38,"velocity":36,"programNumber":1},{"time":179994.79166666663,"duration":125,"noteNumber":42,"velocity":43,"programNumber":1},{"time":179994.79166666663,"duration":125,"noteNumber":36,"velocity":30,"programNumber":1},{"time":180119.79166666663,"duration":125,"noteNumber":42,"velocity":25,"programNumber":1},{"time":180244.79166666663,"duration":125,"noteNumber":42,"velocity":37,"programNumber":1},{"time":180244.79166666663,"duration":125,"noteNumber":36,"velocity":28,"programNumber":1},{"time":180369.79166666663,"duration":67.70833333334303,"noteNumber":38,"velocity":21,"programNumber":1},{"time":180369.79166666663,"duration":125,"noteNumber":42,"velocity":26,"programNumber":1},{"time":180494.79166666663,"duration":57.291666666656965,"noteNumber":38,"velocity":39,"programNumber":1},{"time":180494.79166666663,"duration":125,"noteNumber":42,"velocity":23,"programNumber":1},{"time":180619.79166666663,"duration":125,"noteNumber":42,"velocity":42,"programNumber":1},{"time":180619.79166666663,"duration":140.625,"noteNumber":36,"velocity":35,"programNumber":1},{"time":180744.79166666663,"duration":125,"noteNumber":42,"velocity":26,"programNumber":1},{"time":180869.79166666663,"duration":125,"noteNumber":42,"velocity":23,"programNumber":1},{"time":180869.79166666663,"duration":135.41666666665697,"noteNumber":38,"velocity":18,"programNumber":1},{"time":180994.79166666663,"duration":125,"noteNumber":42,"velocity":40,"programNumber":1},{"time":180994.79166666663,"duration":125,"noteNumber":36,"velocity":40,"programNumber":1},{"time":181119.79166666663,"duration":72.91666666665697,"noteNumber":38,"velocity":15,"programNumber":1},{"time":181119.79166666663,"duration":125,"noteNumber":42,"velocity":26,"programNumber":1},{"time":181244.79166666663,"duration":125,"noteNumber":42,"velocity":38,"programNumber":1},{"time":181244.79166666663,"duration":125,"noteNumber":36,"velocity":42,"programNumber":1},{"time":181369.79166666663,"duration":57.291666666656965,"noteNumber":38,"velocity":30,"programNumber":1},{"time":181369.79166666663,"duration":125,"noteNumber":42,"velocity":28,"programNumber":1},{"time":181494.79166666663,"duration":125,"noteNumber":42,"velocity":21,"programNumber":1},{"time":181494.79166666663,"duration":145.83333333334303,"noteNumber":38,"velocity":38,"programNumber":1},{"time":181619.79166666663,"duration":125,"noteNumber":42,"velocity":40,"programNumber":1},{"time":181619.79166666663,"duration":125,"noteNumber":36,"velocity":38,"programNumber":1},{"time":181744.79166666663,"duration":72.91666666665697,"noteNumber":38,"velocity":18,"programNumber":1},{"time":181744.79166666663,"duration":151.04166666665697,"noteNumber":42,"velocity":27,"programNumber":1},{"time":181994.79166666663,"duration":125,"noteNumber":42,"velocity":41,"programNumber":1},{"time":181994.79166666663,"duration":125,"noteNumber":36,"velocity":39,"programNumber":1},{"time":182119.79166666663,"duration":125,"noteNumber":42,"velocity":27,"programNumber":1},{"time":182244.79166666663,"duration":119.79166666665697,"noteNumber":36,"velocity":36,"programNumber":1},{"time":182244.79166666663,"duration":125,"noteNumber":42,"velocity":39,"programNumber":1},{"time":182369.79166666663,"duration":125,"noteNumber":42,"velocity":27,"programNumber":1},{"time":182494.79166666663,"duration":125,"noteNumber":42,"velocity":22,"programNumber":1},{"time":182619.79166666663,"duration":125,"noteNumber":42,"velocity":42,"programNumber":1},{"time":182619.79166666663,"duration":125,"noteNumber":36,"velocity":42,"programNumber":1},{"time":182744.79166666663,"duration":57.291666666656965,"noteNumber":38,"velocity":29,"programNumber":1},{"time":182744.79166666663,"duration":125,"noteNumber":42,"velocity":27,"programNumber":1},{"time":182869.79166666663,"duration":125,"noteNumber":42,"velocity":22,"programNumber":1},{"time":182994.79166666663,"duration":125,"noteNumber":42,"velocity":40,"programNumber":1},{"time":182994.79166666663,"duration":125,"noteNumber":36,"velocity":29,"programNumber":1},{"time":183119.79166666663,"duration":57.291666666656965,"noteNumber":38,"velocity":30,"programNumber":1},{"time":183119.79166666663,"duration":125,"noteNumber":42,"velocity":25,"programNumber":1},{"time":183244.79166666663,"duration":125,"noteNumber":42,"velocity":36,"programNumber":1},{"time":183244.79166666663,"duration":125,"noteNumber":36,"velocity":30,"programNumber":1},{"time":183369.79166666663,"duration":125,"noteNumber":42,"velocity":26,"programNumber":1},{"time":183494.79166666663,"duration":67.70833333334303,"noteNumber":38,"velocity":31,"programNumber":1},{"time":183494.79166666663,"duration":125,"noteNumber":42,"velocity":21,"programNumber":1},{"time":183619.79166666663,"duration":119.79166666665697,"noteNumber":36,"velocity":45,"programNumber":1},{"time":183619.79166666663,"duration":125,"noteNumber":42,"velocity":39,"programNumber":1},{"time":183744.79166666663,"duration":125,"noteNumber":42,"velocity":27,"programNumber":1},{"time":183869.79166666663,"duration":125,"noteNumber":42,"velocity":23,"programNumber":1},{"time":183994.79166666663,"duration":125,"noteNumber":42,"velocity":40,"programNumber":1},{"time":183994.79166666663,"duration":125,"noteNumber":36,"velocity":38,"programNumber":1},{"time":184119.79166666663,"duration":67.70833333334303,"noteNumber":38,"velocity":26,"programNumber":1},{"time":184119.79166666663,"duration":125,"noteNumber":42,"velocity":26,"programNumber":1},{"time":184244.79166666663,"duration":119.79166666665697,"noteNumber":36,"velocity":33,"programNumber":1},{"time":184244.79166666663,"duration":125,"noteNumber":42,"velocity":35,"programNumber":1},{"time":184369.79166666663,"duration":125,"noteNumber":42,"velocity":27,"programNumber":1},{"time":184494.79166666663,"duration":125,"noteNumber":42,"velocity":21,"programNumber":1},{"time":184619.79166666663,"duration":125,"noteNumber":42,"velocity":42,"programNumber":1},{"time":184619.79166666663,"duration":125,"noteNumber":36,"velocity":40,"programNumber":1},{"time":184744.79166666663,"duration":57.291666666656965,"noteNumber":38,"velocity":29,"programNumber":1},{"time":184744.79166666663,"duration":125,"noteNumber":42,"velocity":25,"programNumber":1},{"time":184869.79166666663,"duration":125,"noteNumber":42,"velocity":23,"programNumber":1},{"time":184994.79166666663,"duration":125,"noteNumber":42,"velocity":41,"programNumber":1},{"time":184994.79166666663,"duration":125,"noteNumber":36,"velocity":29,"programNumber":1},{"time":185119.79166666663,"duration":67.70833333334303,"noteNumber":38,"velocity":23,"programNumber":1},{"time":185119.79166666663,"duration":125,"noteNumber":42,"velocity":26,"programNumber":1},{"time":185244.79166666663,"duration":125,"noteNumber":42,"velocity":37,"programNumber":1},{"time":185244.79166666663,"duration":125,"noteNumber":36,"velocity":28,"programNumber":1},{"time":185369.79166666663,"duration":125,"noteNumber":42,"velocity":27,"programNumber":1},{"time":185494.79166666663,"duration":125,"noteNumber":42,"velocity":23,"programNumber":1},{"time":185619.79166666663,"duration":125,"noteNumber":42,"velocity":42,"programNumber":1},{"time":185619.79166666663,"duration":125,"noteNumber":36,"velocity":33,"programNumber":1},{"time":185744.79166666663,"duration":67.70833333334303,"noteNumber":38,"velocity":24,"programNumber":1},{"time":185744.79166666663,"duration":125,"noteNumber":42,"velocity":27,"programNumber":1},{"time":185869.79166666663,"duration":125,"noteNumber":42,"velocity":22,"programNumber":1},{"time":185994.79166666663,"duration":125,"noteNumber":42,"velocity":43,"programNumber":1},{"time":185994.79166666663,"duration":125,"noteNumber":36,"velocity":38,"programNumber":1},{"time":186119.79166666663,"duration":57.291666666656965,"noteNumber":38,"velocity":26,"programNumber":1},{"time":186119.79166666663,"duration":125,"noteNumber":42,"velocity":26,"programNumber":1},{"time":186244.79166666663,"duration":119.79166666665697,"noteNumber":36,"velocity":40,"programNumber":1},{"time":186244.79166666663,"duration":125,"noteNumber":42,"velocity":37,"programNumber":1},{"time":186369.79166666663,"duration":125,"noteNumber":42,"velocity":26,"programNumber":1},{"time":186494.79166666663,"duration":125,"noteNumber":42,"velocity":22,"programNumber":1},{"time":186619.79166666663,"duration":125,"noteNumber":42,"velocity":41,"programNumber":1},{"time":186619.79166666663,"duration":125,"noteNumber":36,"velocity":37,"programNumber":1},{"time":186744.79166666663,"duration":57.291666666656965,"noteNumber":38,"velocity":29,"programNumber":1},{"time":186744.79166666663,"duration":125,"noteNumber":42,"velocity":27,"programNumber":1},{"time":186869.79166666663,"duration":125,"noteNumber":42,"velocity":22,"programNumber":1},{"time":186994.79166666663,"duration":125,"noteNumber":42,"velocity":41,"programNumber":1},{"time":186994.79166666663,"duration":125,"noteNumber":36,"velocity":28,"programNumber":1},{"time":187119.79166666663,"duration":57.291666666656965,"noteNumber":38,"velocity":31,"programNumber":1},{"time":187119.79166666663,"duration":125,"noteNumber":42,"velocity":26,"programNumber":1},{"time":187244.79166666663,"duration":119.79166666665697,"noteNumber":36,"velocity":43,"programNumber":1},{"time":187244.79166666663,"duration":125,"noteNumber":42,"velocity":36,"programNumber":1},{"time":187369.79166666663,"duration":125,"noteNumber":42,"velocity":28,"programNumber":1},{"time":187494.79166666663,"duration":57.291666666656965,"noteNumber":38,"velocity":27,"programNumber":1},{"time":187494.79166666663,"duration":125,"noteNumber":42,"velocity":22,"programNumber":1},{"time":187619.79166666663,"duration":125,"noteNumber":36,"velocity":32,"programNumber":1},{"time":187619.79166666663,"duration":125,"noteNumber":42,"velocity":40,"programNumber":1},{"time":187744.79166666663,"duration":130.20833333334303,"noteNumber":42,"velocity":11,"programNumber":1},{"time":187874.99999999997,"duration":119.79166666665697,"noteNumber":42,"velocity":11,"programNumber":1},{"time":187994.79166666663,"duration":151.04166666665697,"noteNumber":36,"velocity":30,"programNumber":1},{"time":187994.79166666663,"duration":250,"noteNumber":42,"velocity":32,"programNumber":1},{"time":188244.79166666663,"duration":171.875,"noteNumber":36,"velocity":35,"programNumber":1},{"time":188244.79166666663,"duration":250,"noteNumber":42,"velocity":39,"programNumber":1},{"time":188494.79166666663,"duration":57.291666666656965,"noteNumber":38,"velocity":31,"programNumber":1},{"time":188494.79166666663,"duration":125,"noteNumber":42,"velocity":20,"programNumber":1},{"time":188619.79166666663,"duration":125,"noteNumber":36,"velocity":38,"programNumber":1},{"time":188619.79166666663,"duration":125,"noteNumber":42,"velocity":25,"programNumber":1},{"time":188744.79166666663,"duration":114.58333333334303,"noteNumber":36,"velocity":61,"programNumber":1},{"time":188744.79166666663,"duration":125,"noteNumber":42,"velocity":39,"programNumber":1},{"time":188869.79166666663,"duration":125,"noteNumber":42,"velocity":26,"programNumber":1},{"time":188994.79166666663,"duration":119.79166666665697,"noteNumber":36,"velocity":36,"programNumber":1},{"time":188994.79166666663,"duration":125,"noteNumber":42,"velocity":35,"programNumber":1},{"time":189119.79166666663,"duration":125,"noteNumber":42,"velocity":26,"programNumber":1},{"time":189244.79166666663,"duration":130.20833333334303,"noteNumber":36,"velocity":33,"programNumber":1},{"time":189244.79166666663,"duration":130.20833333334303,"noteNumber":42,"velocity":48,"programNumber":1},{"time":189374.99999999997,"duration":119.79166666665697,"noteNumber":42,"velocity":40,"programNumber":1},{"time":189374.99999999997,"duration":125,"noteNumber":36,"velocity":33,"programNumber":1},{"time":189494.79166666663,"duration":125,"noteNumber":42,"velocity":26,"programNumber":1},{"time":189619.79166666663,"duration":125,"noteNumber":42,"velocity":21,"programNumber":1},{"time":189744.79166666663,"duration":161.45833333334303,"noteNumber":36,"velocity":30,"programNumber":1},{"time":189744.79166666663,"duration":250,"noteNumber":42,"velocity":41,"programNumber":1},{"time":189994.79166666663,"duration":62.5,"noteNumber":38,"velocity":31,"programNumber":1},{"time":189994.79166666663,"duration":250,"noteNumber":42,"velocity":21,"programNumber":1},{"time":190244.79166666663,"duration":125,"noteNumber":42,"velocity":31,"programNumber":1},{"time":190244.79166666663,"duration":161.45833333334303,"noteNumber":38,"velocity":26,"programNumber":1},{"time":190369.79166666663,"duration":125,"noteNumber":42,"velocity":26,"programNumber":1},{"time":190369.79166666663,"duration":125,"noteNumber":36,"velocity":34,"programNumber":1},{"time":190494.79166666663,"duration":78.125,"noteNumber":38,"velocity":27,"programNumber":1},{"time":190494.79166666663,"duration":250,"noteNumber":42,"velocity":24,"programNumber":1},{"time":190744.79166666663,"duration":119.79166666665697,"noteNumber":36,"velocity":42,"programNumber":1},{"time":190744.79166666663,"duration":125,"noteNumber":42,"velocity":40,"programNumber":1},{"time":190869.79166666663,"duration":125,"noteNumber":42,"velocity":26,"programNumber":1},{"time":190994.79166666663,"duration":119.79166666665697,"noteNumber":36,"velocity":43,"programNumber":1},{"time":190994.79166666663,"duration":125,"noteNumber":42,"velocity":37,"programNumber":1},{"time":191119.79166666663,"duration":125,"noteNumber":42,"velocity":25,"programNumber":1},{"time":191244.79166666663,"duration":125,"noteNumber":42,"velocity":23,"programNumber":1},{"time":191369.79166666663,"duration":119.79166666665697,"noteNumber":36,"velocity":39,"programNumber":1},{"time":191369.79166666663,"duration":125,"noteNumber":42,"velocity":37,"programNumber":1},{"time":191494.79166666663,"duration":62.5,"noteNumber":38,"velocity":28,"programNumber":1},{"time":191494.79166666663,"duration":125,"noteNumber":42,"velocity":26,"programNumber":1},{"time":191619.79166666663,"duration":125,"noteNumber":42,"velocity":20,"programNumber":1},{"time":191744.79166666663,"duration":145.83333333334303,"noteNumber":36,"velocity":46,"programNumber":1},{"time":191744.79166666663,"duration":250,"noteNumber":42,"velocity":39,"programNumber":1},{"time":191994.79166666663,"duration":166.66666666665697,"noteNumber":36,"velocity":45,"programNumber":1},{"time":191994.79166666663,"duration":250,"noteNumber":42,"velocity":38,"programNumber":1},{"time":192244.79166666663,"duration":62.5,"noteNumber":38,"velocity":31,"programNumber":1},{"time":192244.79166666663,"duration":125,"noteNumber":42,"velocity":21,"programNumber":1},{"time":192369.79166666663,"duration":125,"noteNumber":42,"velocity":25,"programNumber":1},{"time":192369.79166666663,"duration":125,"noteNumber":36,"velocity":33,"programNumber":1},{"time":192494.79166666663,"duration":62.5,"noteNumber":38,"velocity":27,"programNumber":1},{"time":192494.79166666663,"duration":250,"noteNumber":42,"velocity":25,"programNumber":1},{"time":192744.79166666663,"duration":119.79166666665697,"noteNumber":36,"velocity":41,"programNumber":1},{"time":192744.79166666663,"duration":125,"noteNumber":42,"velocity":41,"programNumber":1},{"time":192869.79166666663,"duration":125,"noteNumber":42,"velocity":28,"programNumber":1},{"time":192994.79166666663,"duration":119.79166666665697,"noteNumber":36,"velocity":40,"programNumber":1},{"time":192994.79166666663,"duration":125,"noteNumber":42,"velocity":33,"programNumber":1},{"time":193119.79166666663,"duration":145.83333333334303,"noteNumber":42,"velocity":25,"programNumber":1},{"time":193369.79166666663,"duration":119.79166666665697,"noteNumber":36,"velocity":62,"programNumber":1},{"time":193369.79166666663,"duration":125,"noteNumber":42,"velocity":61,"programNumber":1},{"time":193494.79166666663,"duration":125,"noteNumber":42,"velocity":34,"programNumber":1},{"time":193619.79166666663,"duration":125,"noteNumber":42,"velocity":22,"programNumber":1},{"time":193744.79166666663,"duration":140.625,"noteNumber":36,"velocity":53,"programNumber":1},{"time":193744.79166666663,"duration":250,"noteNumber":42,"velocity":38,"programNumber":1},{"time":193994.79166666663,"duration":250,"noteNumber":42,"velocity":22,"programNumber":1},{"time":194244.79166666663,"duration":125,"noteNumber":42,"velocity":45,"programNumber":1},{"time":194244.79166666663,"duration":161.45833333334303,"noteNumber":38,"velocity":57,"programNumber":1},{"time":194369.79166666663,"duration":119.79166666668607,"noteNumber":36,"velocity":43,"programNumber":1},{"time":194369.79166666663,"duration":125.0000000000291,"noteNumber":42,"velocity":26,"programNumber":1},{"time":194494.79166666666,"duration":250,"noteNumber":42,"velocity":24,"programNumber":1},{"time":194744.79166666666,"duration":119.79166666665697,"noteNumber":36,"velocity":54,"programNumber":1},{"time":194744.79166666666,"duration":125,"noteNumber":42,"velocity":41,"programNumber":1},{"time":194869.79166666666,"duration":125,"noteNumber":42,"velocity":27,"programNumber":1},{"time":194994.79166666666,"duration":114.58333333334303,"noteNumber":36,"velocity":50,"programNumber":1},{"time":194994.79166666666,"duration":125,"noteNumber":42,"velocity":36,"programNumber":1},{"time":195119.79166666666,"duration":125,"noteNumber":42,"velocity":28,"programNumber":1},{"time":195244.79166666666,"duration":62.5,"noteNumber":38,"velocity":34,"programNumber":1},{"time":195244.79166666666,"duration":125,"noteNumber":42,"velocity":21,"programNumber":1},{"time":195369.79166666666,"duration":114.58333333334303,"noteNumber":36,"velocity":56,"programNumber":1},{"time":195369.79166666666,"duration":125,"noteNumber":42,"velocity":39,"programNumber":1},{"time":195494.79166666666,"duration":125,"noteNumber":42,"velocity":24,"programNumber":1},{"time":195619.79166666666,"duration":125,"noteNumber":42,"velocity":21,"programNumber":1},{"time":195744.79166666666,"duration":145.83333333334303,"noteNumber":36,"velocity":43,"programNumber":1},{"time":195744.79166666666,"duration":250,"noteNumber":42,"velocity":42,"programNumber":1},{"time":195994.79166666666,"duration":161.45833333334303,"noteNumber":36,"velocity":43,"programNumber":1},{"time":195994.79166666666,"duration":250,"noteNumber":42,"velocity":41,"programNumber":1},{"time":196244.79166666666,"duration":125,"noteNumber":42,"velocity":20,"programNumber":1},{"time":196369.79166666666,"duration":119.79166666665697,"noteNumber":36,"velocity":47,"programNumber":1},{"time":196369.79166666666,"duration":125,"noteNumber":42,"velocity":26,"programNumber":1},{"time":196494.79166666666,"duration":250,"noteNumber":42,"velocity":25,"programNumber":1},{"time":196744.79166666666,"duration":119.79166666665697,"noteNumber":36,"velocity":56,"programNumber":1},{"time":196744.79166666666,"duration":130.20833333331393,"noteNumber":42,"velocity":43,"programNumber":1},{"time":196874.99999999997,"duration":119.79166666665697,"noteNumber":42,"velocity":25,"programNumber":1},{"time":196994.79166666663,"duration":114.58333333334303,"noteNumber":36,"velocity":56,"programNumber":1},{"time":196994.79166666663,"duration":125,"noteNumber":42,"velocity":38,"programNumber":1},{"time":197119.79166666663,"duration":125,"noteNumber":42,"velocity":27,"programNumber":1},{"time":197244.79166666663,"duration":93.75,"noteNumber":36,"velocity":48,"programNumber":1},{"time":197244.79166666663,"duration":125,"noteNumber":42,"velocity":40,"programNumber":1},{"time":197369.79166666663,"duration":104.16666666665697,"noteNumber":36,"velocity":58,"programNumber":1},{"time":197369.79166666663,"duration":125,"noteNumber":42,"velocity":42,"programNumber":1},{"time":197494.79166666663,"duration":125,"noteNumber":42,"velocity":28,"programNumber":1},{"time":197619.79166666663,"duration":62.5,"noteNumber":38,"velocity":37,"programNumber":1},{"time":197619.79166666663,"duration":125,"noteNumber":42,"velocity":21,"programNumber":1},{"time":197744.79166666663,"duration":135.41666666665697,"noteNumber":36,"velocity":60,"programNumber":1},{"time":197744.79166666663,"duration":250,"noteNumber":42,"velocity":40,"programNumber":1},{"time":197994.79166666663,"duration":62.5,"noteNumber":38,"velocity":36,"programNumber":1},{"time":197994.79166666663,"duration":250,"noteNumber":42,"velocity":22,"programNumber":1},{"time":198244.79166666663,"duration":125,"noteNumber":42,"velocity":44,"programNumber":1},{"time":198244.79166666663,"duration":161.45833333334303,"noteNumber":38,"velocity":56,"programNumber":1},{"time":198369.79166666663,"duration":119.79166666668607,"noteNumber":36,"velocity":55,"programNumber":1},{"time":198369.79166666663,"duration":125.0000000000291,"noteNumber":42,"velocity":30,"programNumber":1},{"time":198494.79166666666,"duration":62.5,"noteNumber":38,"velocity":33,"programNumber":1},{"time":198494.79166666666,"duration":250,"noteNumber":42,"velocity":24,"programNumber":1},{"time":198744.79166666666,"duration":119.79166666665697,"noteNumber":36,"velocity":54,"programNumber":1},{"time":198744.79166666666,"duration":125,"noteNumber":42,"velocity":40,"programNumber":1},{"time":198869.79166666666,"duration":125,"noteNumber":42,"velocity":26,"programNumber":1},{"time":198994.79166666666,"duration":114.58333333334303,"noteNumber":36,"velocity":54,"programNumber":1},{"time":198994.79166666666,"duration":125,"noteNumber":42,"velocity":38,"programNumber":1},{"time":199119.79166666666,"duration":125,"noteNumber":42,"velocity":27,"programNumber":1},{"time":199244.79166666666,"duration":125,"noteNumber":42,"velocity":19,"programNumber":1},{"time":199369.79166666666,"duration":114.58333333334303,"noteNumber":36,"velocity":59,"programNumber":1},{"time":199369.79166666666,"duration":125,"noteNumber":42,"velocity":40,"programNumber":1},{"time":199494.79166666666,"duration":125,"noteNumber":42,"velocity":25,"programNumber":1},{"time":199619.79166666666,"duration":125,"noteNumber":42,"velocity":20,"programNumber":1},{"time":199744.79166666666,"duration":140.625,"noteNumber":36,"velocity":55,"programNumber":1},{"time":199744.79166666666,"duration":250,"noteNumber":42,"velocity":41,"programNumber":1},{"time":199994.79166666666,"duration":151.04166666665697,"noteNumber":36,"velocity":55,"programNumber":1},{"time":199994.79166666666,"duration":250,"noteNumber":42,"velocity":40,"programNumber":1},{"time":200244.79166666666,"duration":125,"noteNumber":42,"velocity":22,"programNumber":1},{"time":200369.79166666666,"duration":119.79166666665697,"noteNumber":36,"velocity":43,"programNumber":1},{"time":200369.79166666666,"duration":125,"noteNumber":42,"velocity":25,"programNumber":1},{"time":200494.79166666666,"duration":250,"noteNumber":42,"velocity":25,"programNumber":1},{"time":200744.79166666666,"duration":119.79166666665697,"noteNumber":36,"velocity":54,"programNumber":1},{"time":200744.79166666666,"duration":125,"noteNumber":42,"velocity":40,"programNumber":1},{"time":200869.79166666666,"duration":125,"noteNumber":42,"velocity":27,"programNumber":1},{"time":200994.79166666666,"duration":114.58333333334303,"noteNumber":36,"velocity":50,"programNumber":1},{"time":200994.79166666666,"duration":125,"noteNumber":42,"velocity":34,"programNumber":1},{"time":201119.79166666666,"duration":125,"noteNumber":42,"velocity":25,"programNumber":1},{"time":201244.79166666666,"duration":125,"noteNumber":36,"velocity":57,"programNumber":1},{"time":201244.79166666666,"duration":125,"noteNumber":42,"velocity":67,"programNumber":1},{"time":201369.79166666666,"duration":114.58333333334303,"noteNumber":36,"velocity":127,"programNumber":1},{"time":201369.79166666666,"duration":125,"noteNumber":42,"velocity":88,"programNumber":1},{"time":201494.79166666666,"duration":125,"noteNumber":42,"velocity":25,"programNumber":1},{"time":201619.79166666666,"duration":62.5,"noteNumber":38,"velocity":36,"programNumber":1},{"time":201619.79166666666,"duration":125,"noteNumber":42,"velocity":23,"programNumber":1},{"time":201744.79166666666,"duration":161.45833333334303,"noteNumber":36,"velocity":45,"programNumber":1},{"time":201744.79166666666,"duration":250,"noteNumber":42,"velocity":43,"programNumber":1},{"time":201994.79166666666,"duration":250,"noteNumber":42,"velocity":21,"programNumber":1},{"time":202244.79166666666,"duration":88.54166666665697,"noteNumber":38,"velocity":38,"programNumber":1},{"time":202244.79166666666,"duration":125,"noteNumber":42,"velocity":24,"programNumber":1},{"time":202369.79166666666,"duration":119.79166666665697,"noteNumber":36,"velocity":52,"programNumber":1},{"time":202369.79166666666,"duration":125,"noteNumber":42,"velocity":28,"programNumber":1},{"time":202494.79166666666,"duration":250,"noteNumber":42,"velocity":22,"programNumber":1},{"time":202744.79166666666,"duration":119.79166666665697,"noteNumber":36,"velocity":47,"programNumber":1},{"time":202744.79166666666,"duration":125,"noteNumber":42,"velocity":34,"programNumber":1},{"time":202869.79166666666,"duration":125,"noteNumber":42,"velocity":19,"programNumber":1},{"time":202994.79166666666,"duration":109.375,"noteNumber":36,"velocity":51,"programNumber":1},{"time":202994.79166666666,"duration":125,"noteNumber":42,"velocity":28,"programNumber":1},{"time":203119.79166666666,"duration":125,"noteNumber":42,"velocity":18,"programNumber":1},{"time":203244.79166666666,"duration":125,"noteNumber":42,"velocity":14,"programNumber":1},{"time":203369.79166666666,"duration":109.375,"noteNumber":36,"velocity":48,"programNumber":1},{"time":203369.79166666666,"duration":125,"noteNumber":42,"velocity":25,"programNumber":1},{"time":203494.79166666666,"duration":125,"noteNumber":42,"velocity":15,"programNumber":1},{"time":203619.79166666666,"duration":130.20833333334303,"noteNumber":42,"velocity":13,"programNumber":1},{"time":203750,"duration":114.58333333334303,"noteNumber":36,"velocity":46,"programNumber":1},{"time":203750,"duration":250,"noteNumber":42,"velocity":25,"programNumber":1},{"time":204000,"duration":145.83333333334303,"noteNumber":36,"velocity":44,"programNumber":1},{"time":204000,"duration":244.79166666668607,"noteNumber":42,"velocity":25,"programNumber":1},{"time":204244.7916666667,"duration":125,"noteNumber":42,"velocity":23,"programNumber":1},{"time":204369.7916666667,"duration":119.79166666665697,"noteNumber":36,"velocity":48,"programNumber":1},{"time":204369.7916666667,"duration":125,"noteNumber":42,"velocity":27,"programNumber":1},{"time":204494.7916666667,"duration":140.625,"noteNumber":42,"velocity":27,"programNumber":1},{"time":204744.7916666667,"duration":125,"noteNumber":42,"velocity":42,"programNumber":1},{"time":204744.7916666667,"duration":125,"noteNumber":36,"velocity":32,"programNumber":1},{"time":204869.7916666667,"duration":125,"noteNumber":42,"velocity":25,"programNumber":1},{"time":204994.7916666667,"duration":125,"noteNumber":42,"velocity":37,"programNumber":1},{"time":204994.7916666667,"duration":125,"noteNumber":36,"velocity":34,"programNumber":1},{"time":205119.7916666667,"duration":125,"noteNumber":42,"velocity":27,"programNumber":1},{"time":205244.7916666667,"duration":62.5,"noteNumber":38,"velocity":38,"programNumber":1},{"time":205244.7916666667,"duration":125,"noteNumber":42,"velocity":23,"programNumber":1},{"time":205369.7916666667,"duration":125,"noteNumber":42,"velocity":41,"programNumber":1},{"time":205369.7916666667,"duration":130.20833333334303,"noteNumber":36,"velocity":30,"programNumber":1},{"time":205494.7916666667,"duration":125,"noteNumber":38,"velocity":23,"programNumber":1},{"time":205494.7916666667,"duration":125,"noteNumber":42,"velocity":25,"programNumber":1},{"time":205619.7916666667,"duration":125,"noteNumber":42,"velocity":23,"programNumber":1},{"time":205619.7916666667,"duration":140.625,"noteNumber":38,"velocity":18,"programNumber":1},{"time":205744.7916666667,"duration":125,"noteNumber":42,"velocity":40,"programNumber":1},{"time":205744.7916666667,"duration":125,"noteNumber":36,"velocity":44,"programNumber":1},{"time":205869.7916666667,"duration":72.91666666665697,"noteNumber":38,"velocity":16,"programNumber":1},{"time":205869.7916666667,"duration":125,"noteNumber":42,"velocity":26,"programNumber":1},{"time":205994.7916666667,"duration":125,"noteNumber":42,"velocity":34,"programNumber":1},{"time":205994.7916666667,"duration":125,"noteNumber":36,"velocity":36,"programNumber":1},{"time":206119.7916666667,"duration":125,"noteNumber":42,"velocity":27,"programNumber":1},{"time":206244.7916666667,"duration":125,"noteNumber":42,"velocity":23,"programNumber":1},{"time":206244.7916666667,"duration":145.83333333334303,"noteNumber":38,"velocity":39,"programNumber":1},{"time":206369.7916666667,"duration":125,"noteNumber":36,"velocity":45,"programNumber":1},{"time":206369.7916666667,"duration":125,"noteNumber":42,"velocity":40,"programNumber":1},{"time":206494.7916666667,"duration":67.70833333334303,"noteNumber":38,"velocity":19,"programNumber":1},{"time":206494.7916666667,"duration":125,"noteNumber":42,"velocity":27,"programNumber":1},{"time":206619.7916666667,"duration":125,"noteNumber":42,"velocity":23,"programNumber":1},{"time":206619.7916666667,"duration":166.66666666665697,"noteNumber":38,"velocity":37,"programNumber":1},{"time":206744.7916666667,"duration":125,"noteNumber":42,"velocity":42,"programNumber":1},{"time":206744.7916666667,"duration":125,"noteNumber":36,"velocity":31,"programNumber":1},{"time":206869.7916666667,"duration":125,"noteNumber":42,"velocity":26,"programNumber":1},{"time":206869.7916666667,"duration":140.625,"noteNumber":38,"velocity":26,"programNumber":1},{"time":206994.7916666667,"duration":125,"noteNumber":42,"velocity":38,"programNumber":1},{"time":206994.7916666667,"duration":125,"noteNumber":36,"velocity":30,"programNumber":1},{"time":207119.7916666667,"duration":67.70833333334303,"noteNumber":38,"velocity":22,"programNumber":1},{"time":207119.7916666667,"duration":125,"noteNumber":42,"velocity":27,"programNumber":1},{"time":207244.7916666667,"duration":125,"noteNumber":42,"velocity":23,"programNumber":1},{"time":207244.7916666667,"duration":151.04166666665697,"noteNumber":38,"velocity":39,"programNumber":1},{"time":207369.7916666667,"duration":125,"noteNumber":36,"velocity":37,"programNumber":1},{"time":207369.7916666667,"duration":125,"noteNumber":42,"velocity":42,"programNumber":1},{"time":207494.7916666667,"duration":125,"noteNumber":42,"velocity":24,"programNumber":1},{"time":207619.7916666667,"duration":125,"noteNumber":42,"velocity":22,"programNumber":1},{"time":207619.7916666667,"duration":140.625,"noteNumber":38,"velocity":18,"programNumber":1},{"time":207744.7916666667,"duration":125,"noteNumber":42,"velocity":44,"programNumber":1},{"time":207744.7916666667,"duration":125,"noteNumber":36,"velocity":43,"programNumber":1},{"time":207869.7916666667,"duration":72.91666666665697,"noteNumber":38,"velocity":16,"programNumber":1},{"time":207869.7916666667,"duration":125,"noteNumber":42,"velocity":28,"programNumber":1},{"time":207994.7916666667,"duration":119.79166666665697,"noteNumber":36,"velocity":44,"programNumber":1},{"time":207994.7916666667,"duration":125,"noteNumber":42,"velocity":37,"programNumber":1},{"time":208119.7916666667,"duration":125,"noteNumber":42,"velocity":26,"programNumber":1},{"time":208244.7916666667,"duration":125,"noteNumber":42,"velocity":22,"programNumber":1},{"time":208244.7916666667,"duration":151.04166666665697,"noteNumber":38,"velocity":37,"programNumber":1},{"time":208369.7916666667,"duration":125,"noteNumber":42,"velocity":40,"programNumber":1},{"time":208369.7916666667,"duration":125,"noteNumber":36,"velocity":40,"programNumber":1},{"time":208494.7916666667,"duration":125,"noteNumber":38,"velocity":19,"programNumber":1},{"time":208494.7916666667,"duration":125,"noteNumber":42,"velocity":25,"programNumber":1},{"time":208619.7916666667,"duration":125,"noteNumber":42,"velocity":23,"programNumber":1},{"time":208619.7916666667,"duration":161.45833333334303,"noteNumber":38,"velocity":36,"programNumber":1},{"time":208744.7916666667,"duration":125,"noteNumber":42,"velocity":41,"programNumber":1},{"time":208744.7916666667,"duration":125,"noteNumber":36,"velocity":30,"programNumber":1},{"time":208869.7916666667,"duration":125,"noteNumber":42,"velocity":26,"programNumber":1},{"time":208994.7916666667,"duration":125,"noteNumber":42,"velocity":36,"programNumber":1},{"time":208994.7916666667,"duration":125,"noteNumber":36,"velocity":27,"programNumber":1},{"time":209119.7916666667,"duration":67.70833333334303,"noteNumber":38,"velocity":20,"programNumber":1},{"time":209119.7916666667,"duration":125,"noteNumber":42,"velocity":27,"programNumber":1},{"time":209244.7916666667,"duration":62.5,"noteNumber":38,"velocity":38,"programNumber":1},{"time":209244.7916666667,"duration":125,"noteNumber":42,"velocity":21,"programNumber":1},{"time":209369.7916666667,"duration":125,"noteNumber":42,"velocity":43,"programNumber":1},{"time":209369.7916666667,"duration":125,"noteNumber":36,"velocity":34,"programNumber":1},{"time":209494.7916666667,"duration":125,"noteNumber":42,"velocity":27,"programNumber":1},{"time":209619.7916666667,"duration":125,"noteNumber":42,"velocity":23,"programNumber":1},{"time":209744.7916666667,"duration":125,"noteNumber":42,"velocity":42,"programNumber":1},{"time":209744.7916666667,"duration":125,"noteNumber":36,"velocity":42,"programNumber":1},{"time":209869.7916666667,"duration":72.91666666665697,"noteNumber":38,"velocity":16,"programNumber":1},{"time":209869.7916666667,"duration":125,"noteNumber":42,"velocity":25,"programNumber":1},{"time":209994.7916666667,"duration":125,"noteNumber":42,"velocity":37,"programNumber":1},{"time":209994.7916666667,"duration":125,"noteNumber":36,"velocity":41,"programNumber":1},{"time":210119.7916666667,"duration":125,"noteNumber":42,"velocity":27,"programNumber":1},{"time":210244.7916666667,"duration":125,"noteNumber":42,"velocity":22,"programNumber":1},{"time":210244.7916666667,"duration":145.83333333334303,"noteNumber":38,"velocity":37,"programNumber":1},{"time":210369.7916666667,"duration":125,"noteNumber":42,"velocity":39,"programNumber":1},{"time":210369.7916666667,"duration":125,"noteNumber":36,"velocity":38,"programNumber":1},{"time":210494.7916666667,"duration":72.91666666665697,"noteNumber":38,"velocity":20,"programNumber":1},{"time":210494.7916666667,"duration":125,"noteNumber":42,"velocity":26,"programNumber":1},{"time":210619.7916666667,"duration":125,"noteNumber":42,"velocity":22,"programNumber":1},{"time":210619.7916666667,"duration":161.45833333334303,"noteNumber":38,"velocity":35,"programNumber":1},{"time":210744.7916666667,"duration":125,"noteNumber":36,"velocity":30,"programNumber":1},{"time":210744.7916666667,"duration":125,"noteNumber":42,"velocity":41,"programNumber":1},{"time":210869.7916666667,"duration":125,"noteNumber":42,"velocity":25,"programNumber":1},{"time":210869.7916666667,"duration":145.83333333334303,"noteNumber":38,"velocity":27,"programNumber":1},{"time":210994.7916666667,"duration":119.79166666668607,"noteNumber":36,"velocity":44,"programNumber":1},{"time":210994.7916666667,"duration":125.0000000000291,"noteNumber":42,"velocity":33,"programNumber":1},{"time":211119.79166666672,"duration":67.70833333334303,"noteNumber":38,"velocity":22,"programNumber":1},{"time":211119.79166666672,"duration":125,"noteNumber":42,"velocity":26,"programNumber":1},{"time":211244.79166666672,"duration":62.5,"noteNumber":38,"velocity":38,"programNumber":1},{"time":211244.79166666672,"duration":125,"noteNumber":42,"velocity":22,"programNumber":1},{"time":211369.79166666672,"duration":125,"noteNumber":42,"velocity":41,"programNumber":1},{"time":211369.79166666672,"duration":125,"noteNumber":36,"velocity":33,"programNumber":1},{"time":211494.79166666672,"duration":125,"noteNumber":42,"velocity":26,"programNumber":1},{"time":211619.79166666672,"duration":125,"noteNumber":42,"velocity":22,"programNumber":1},{"time":211619.79166666672,"duration":130.20833333334303,"noteNumber":38,"velocity":19,"programNumber":1},{"time":211744.79166666672,"duration":125,"noteNumber":42,"velocity":42,"programNumber":1},{"time":211744.79166666672,"duration":125,"noteNumber":36,"velocity":41,"programNumber":1},{"time":211869.79166666672,"duration":72.91666666665697,"noteNumber":38,"velocity":15,"programNumber":1},{"time":211869.79166666672,"duration":125,"noteNumber":42,"velocity":25,"programNumber":1},{"time":211994.79166666672,"duration":125,"noteNumber":42,"velocity":36,"programNumber":1},{"time":211994.79166666672,"duration":125,"noteNumber":36,"velocity":39,"programNumber":1},{"time":212119.79166666672,"duration":125,"noteNumber":42,"velocity":27,"programNumber":1},{"time":212244.79166666672,"duration":125,"noteNumber":42,"velocity":23,"programNumber":1},{"time":212369.79166666672,"duration":125,"noteNumber":42,"velocity":41,"programNumber":1},{"time":212369.79166666672,"duration":135.41666666665697,"noteNumber":36,"velocity":25,"programNumber":1},{"time":212494.79166666672,"duration":72.91666666665697,"noteNumber":38,"velocity":18,"programNumber":1},{"time":212494.79166666672,"duration":125,"noteNumber":42,"velocity":26,"programNumber":1},{"time":212619.79166666672,"duration":125,"noteNumber":42,"velocity":23,"programNumber":1},{"time":212619.79166666672,"duration":161.45833333334303,"noteNumber":38,"velocity":35,"programNumber":1},{"time":212744.79166666672,"duration":125,"noteNumber":42,"velocity":41,"programNumber":1},{"time":212744.79166666672,"duration":125,"noteNumber":36,"velocity":30,"programNumber":1},{"time":212869.79166666672,"duration":125,"noteNumber":42,"velocity":26,"programNumber":1},{"time":212994.79166666672,"duration":125,"noteNumber":42,"velocity":37,"programNumber":1},{"time":212994.79166666672,"duration":125,"noteNumber":36,"velocity":31,"programNumber":1},{"time":213119.79166666672,"duration":67.70833333334303,"noteNumber":38,"velocity":21,"programNumber":1},{"time":213119.79166666672,"duration":125,"noteNumber":42,"velocity":27,"programNumber":1},{"time":213244.79166666672,"duration":62.5,"noteNumber":38,"velocity":38,"programNumber":1},{"time":213244.79166666672,"duration":125,"noteNumber":42,"velocity":21,"programNumber":1},{"time":213369.79166666672,"duration":125,"noteNumber":42,"velocity":40,"programNumber":1},{"time":213369.79166666672,"duration":125,"noteNumber":36,"velocity":29,"programNumber":1},{"time":213494.79166666672,"duration":125,"noteNumber":42,"velocity":27,"programNumber":1},{"time":213619.79166666672,"duration":125,"noteNumber":42,"velocity":21,"programNumber":1},{"time":213744.79166666672,"duration":125,"noteNumber":42,"velocity":40,"programNumber":1},{"time":213744.79166666672,"duration":125,"noteNumber":36,"velocity":41,"programNumber":1},{"time":213869.79166666672,"duration":125,"noteNumber":42,"velocity":26,"programNumber":1},{"time":213869.79166666672,"duration":166.66666666665697,"noteNumber":38,"velocity":15,"programNumber":1},{"time":213994.79166666672,"duration":125,"noteNumber":42,"velocity":38,"programNumber":1},{"time":213994.79166666672,"duration":125,"noteNumber":36,"velocity":37,"programNumber":1},{"time":214119.79166666672,"duration":125,"noteNumber":42,"velocity":27,"programNumber":1},{"time":214244.79166666672,"duration":125,"noteNumber":42,"velocity":21,"programNumber":1},{"time":214244.79166666672,"duration":145.83333333334303,"noteNumber":38,"velocity":37,"programNumber":1},{"time":214369.79166666672,"duration":125,"noteNumber":42,"velocity":42,"programNumber":1},{"time":214369.79166666672,"duration":125,"noteNumber":36,"velocity":44,"programNumber":1},{"time":214494.79166666672,"duration":125,"noteNumber":38,"velocity":18,"programNumber":1},{"time":214494.79166666672,"duration":125,"noteNumber":42,"velocity":27,"programNumber":1},{"time":214619.79166666672,"duration":125,"noteNumber":42,"velocity":22,"programNumber":1},{"time":214619.79166666672,"duration":166.66666666665697,"noteNumber":38,"velocity":36,"programNumber":1},{"time":214744.79166666672,"duration":125,"noteNumber":42,"velocity":40,"programNumber":1},{"time":214744.79166666672,"duration":125,"noteNumber":36,"velocity":29,"programNumber":1},{"time":214869.79166666672,"duration":125,"noteNumber":42,"velocity":25,"programNumber":1},{"time":214869.79166666672,"duration":145.83333333334303,"noteNumber":38,"velocity":26,"programNumber":1},{"time":214994.79166666672,"duration":125,"noteNumber":42,"velocity":36,"programNumber":1},{"time":214994.79166666672,"duration":125,"noteNumber":36,"velocity":30,"programNumber":1},{"time":215119.79166666672,"duration":67.70833333334303,"noteNumber":38,"velocity":22,"programNumber":1},{"time":215119.79166666672,"duration":125,"noteNumber":42,"velocity":26,"programNumber":1},{"time":215244.79166666672,"duration":125,"noteNumber":42,"velocity":21,"programNumber":1},{"time":215244.79166666672,"duration":161.45833333334303,"noteNumber":38,"velocity":40,"programNumber":1},{"time":215369.79166666672,"duration":125,"noteNumber":42,"velocity":39,"programNumber":1},{"time":215369.79166666672,"duration":125,"noteNumber":36,"velocity":27,"programNumber":1},{"time":215494.79166666672,"duration":125,"noteNumber":42,"velocity":27,"programNumber":1},{"time":215619.79166666672,"duration":125,"noteNumber":42,"velocity":23,"programNumber":1},{"time":215619.79166666672,"duration":140.625,"noteNumber":38,"velocity":19,"programNumber":1},{"time":215744.79166666672,"duration":125,"noteNumber":42,"velocity":41,"programNumber":1},{"time":215744.79166666672,"duration":125,"noteNumber":36,"velocity":39,"programNumber":1},{"time":215869.79166666672,"duration":140.625,"noteNumber":42,"velocity":26,"programNumber":1},{"time":215869.79166666672,"duration":151.04166666665697,"noteNumber":38,"velocity":24,"programNumber":1},{"time":216119.79166666672,"duration":67.70833333334303,"noteNumber":38,"velocity":24,"programNumber":1},{"time":216119.79166666672,"duration":125,"noteNumber":42,"velocity":29,"programNumber":1},{"time":216244.79166666672,"duration":62.5,"noteNumber":38,"velocity":43,"programNumber":1},{"time":216244.79166666672,"duration":125,"noteNumber":42,"velocity":23,"programNumber":1},{"time":216369.79166666672,"duration":119.79166666665697,"noteNumber":36,"velocity":60,"programNumber":1},{"time":216369.79166666672,"duration":125,"noteNumber":42,"velocity":46,"programNumber":1},{"time":216494.79166666672,"duration":125,"noteNumber":42,"velocity":26,"programNumber":1},{"time":216619.79166666672,"duration":125,"noteNumber":42,"velocity":25,"programNumber":1},{"time":216744.79166666672,"duration":119.79166666665697,"noteNumber":36,"velocity":48,"programNumber":1},{"time":216744.79166666672,"duration":125,"noteNumber":42,"velocity":44,"programNumber":1},{"time":216869.79166666672,"duration":62.5,"noteNumber":38,"velocity":30,"programNumber":1},{"time":216869.79166666672,"duration":125,"noteNumber":42,"velocity":28,"programNumber":1},{"time":216994.79166666672,"duration":119.79166666665697,"noteNumber":36,"velocity":45,"programNumber":1},{"time":216994.79166666672,"duration":125,"noteNumber":42,"velocity":41,"programNumber":1},{"time":217119.79166666672,"duration":125,"noteNumber":42,"velocity":29,"programNumber":1},{"time":217244.79166666672,"duration":125,"noteNumber":42,"velocity":26,"programNumber":1},{"time":217369.79166666672,"duration":119.79166666665697,"noteNumber":36,"velocity":53,"programNumber":1},{"time":217369.79166666672,"duration":125,"noteNumber":42,"velocity":46,"programNumber":1},{"time":217494.79166666672,"duration":67.70833333334303,"noteNumber":38,"velocity":30,"programNumber":1},{"time":217494.79166666672,"duration":125,"noteNumber":42,"velocity":29,"programNumber":1},{"time":217619.79166666672,"duration":125,"noteNumber":42,"velocity":24,"programNumber":1},{"time":217744.79166666672,"duration":119.79166666665697,"noteNumber":36,"velocity":58,"programNumber":1},{"time":217744.79166666672,"duration":125,"noteNumber":42,"velocity":49,"programNumber":1},{"time":217869.79166666672,"duration":67.70833333334303,"noteNumber":38,"velocity":23,"programNumber":1},{"time":217869.79166666672,"duration":125,"noteNumber":42,"velocity":28,"programNumber":1},{"time":217994.79166666672,"duration":119.79166666665697,"noteNumber":36,"velocity":61,"programNumber":1},{"time":217994.79166666672,"duration":125,"noteNumber":42,"velocity":40,"programNumber":1},{"time":218119.79166666672,"duration":62.5,"noteNumber":38,"velocity":26,"programNumber":1},{"time":218119.79166666672,"duration":125,"noteNumber":42,"velocity":28,"programNumber":1},{"time":218244.79166666672,"duration":62.5,"noteNumber":38,"velocity":44,"programNumber":1},{"time":218244.79166666672,"duration":125,"noteNumber":42,"velocity":23,"programNumber":1},{"time":218369.79166666672,"duration":119.79166666665697,"noteNumber":36,"velocity":56,"programNumber":1},{"time":218369.79166666672,"duration":125,"noteNumber":42,"velocity":43,"programNumber":1},{"time":218494.79166666672,"duration":125,"noteNumber":42,"velocity":28,"programNumber":1},{"time":218619.79166666672,"duration":125,"noteNumber":42,"velocity":23,"programNumber":1},{"time":218744.79166666672,"duration":119.79166666665697,"noteNumber":36,"velocity":47,"programNumber":1},{"time":218744.79166666672,"duration":125,"noteNumber":42,"velocity":44,"programNumber":1},{"time":218869.79166666672,"duration":67.70833333334303,"noteNumber":38,"velocity":30,"programNumber":1},{"time":218869.79166666672,"duration":125,"noteNumber":42,"velocity":28,"programNumber":1},{"time":218994.79166666672,"duration":119.79166666665697,"noteNumber":36,"velocity":41,"programNumber":1},{"time":218994.79166666672,"duration":125,"noteNumber":42,"velocity":39,"programNumber":1},{"time":219119.79166666672,"duration":125,"noteNumber":42,"velocity":29,"programNumber":1},{"time":219244.79166666672,"duration":125,"noteNumber":42,"velocity":24,"programNumber":1},{"time":219369.79166666672,"duration":119.79166666665697,"noteNumber":36,"velocity":54,"programNumber":1},{"time":219369.79166666672,"duration":125,"noteNumber":42,"velocity":44,"programNumber":1},{"time":219494.79166666672,"duration":125,"noteNumber":42,"velocity":15,"programNumber":1},{"time":219619.79166666672,"duration":62.5,"noteNumber":38,"velocity":26,"programNumber":1},{"time":219619.79166666672,"duration":125,"noteNumber":42,"velocity":16,"programNumber":1},{"time":219744.79166666672,"duration":166.66666666665697,"noteNumber":36,"velocity":60,"programNumber":1},{"time":219744.79166666672,"duration":250,"noteNumber":42,"velocity":45,"programNumber":1},{"time":219994.79166666672,"duration":192.70833333334303,"noteNumber":36,"velocity":45,"programNumber":1},{"time":219994.79166666672,"duration":250,"noteNumber":42,"velocity":58,"programNumber":1},{"time":220244.79166666672,"duration":125,"noteNumber":42,"velocity":36,"programNumber":1},{"time":220244.79166666672,"duration":166.66666666665697,"noteNumber":38,"velocity":23,"programNumber":1},{"time":220369.79166666672,"duration":125,"noteNumber":36,"velocity":61,"programNumber":1},{"time":220369.79166666672,"duration":130.20833333334303,"noteNumber":42,"velocity":48,"programNumber":1},{"time":220500.00000000006,"duration":2281.25,"noteNumber":42,"velocity":53,"programNumber":1}]]}